<svg width="64" height="64" viewBox="0 0 64 64" fill="none" xmlns="http://www.w3.org/2000/svg">
<path fill-rule="evenodd" clip-rule="evenodd" d="M6 32.0002C6 46.3595 17.6409 58.0004 32.0002 58.0004C46.3602 58.0004 58.0004 46.3595 58.0004 32.0002C58.0004 17.6409 46.3602 6 32.0002 6C17.6409 6 6 17.6409 6 32.0002Z" fill="white"/>
<path d="M30.0083 47.77H28.0323L29.9859 35.9428L23.9358 35.9515C23.9358 35.9515 23.8787 35.9529 23.8513 35.9529C23.3067 35.9529 22.8647 35.5109 22.8647 34.9664C22.8647 34.7324 23.0828 34.3366 23.0828 34.3366L33.9538 16.2065L35.9631 16.2145L33.9603 28.0604L40.0415 28.0532C40.0415 28.0532 40.1072 28.0518 40.1383 28.0518C40.6828 28.0518 41.1241 28.4931 41.1241 29.0383C41.1241 29.2593 41.0382 29.4536 40.9147 29.6183L30.0083 47.77ZM32.0002 6C17.6409 6 6 17.6409 6 32.0002C6 46.3595 17.6409 58.0004 32.0002 58.0004C46.3602 58.0004 58.0004 46.3595 58.0004 32.0002C58.0004 17.6409 46.3602 6 32.0002 6Z" fill="#005AF0"/>
</svg>
