<svg width="18" height="18" viewBox="0 0 18 18" fill="none" xmlns="http://www.w3.org/2000/svg">
<path d="M0.355202 14.696C2.0217 15.7535 3.9612 16.3123 5.9637 16.3123C8.8962 16.3123 11.5835 15.1858 13.5312 13.1405C15.395 11.183 16.4202 8.5528 16.3692 5.88355C17.0757 5.27905 17.9067 4.1248 17.9067 2.9998C17.9067 2.56855 17.4387 2.2948 17.0592 2.51455C16.3955 2.90455 15.7902 3.00655 15.1677 2.8318C13.8965 1.5928 12.0042 1.3318 10.4097 2.1913C9.0162 2.9413 8.24145 4.3138 8.3112 5.8138C5.95695 5.52655 3.78195 4.34605 2.26545 2.51155C2.01645 2.2123 1.54395 2.24755 1.34595 2.58655C0.615452 3.83755 0.622952 5.2873 1.2582 6.45805C0.955952 6.5113 0.769202 6.76555 0.769202 7.0408C0.769202 8.21755 1.2987 9.29905 2.15145 10.037C1.99245 10.19 1.93995 10.4173 2.00745 10.6198C2.38245 11.7463 3.23145 12.6268 4.2927 13.0678C3.13845 13.619 1.86195 13.8028 0.725702 13.6633C0.137702 13.5838 -0.152548 14.3743 0.355202 14.696ZM6.11745 13.2605C6.5382 12.9373 6.3147 12.2638 5.7867 12.2525C4.8567 12.233 4.00995 11.7748 3.4827 11.054C3.73695 11.0375 4.0002 10.9985 4.2507 10.931C4.82145 10.7765 4.79445 9.95305 4.2147 9.8368C3.16245 9.6253 2.3367 8.8588 2.02695 7.8718C2.3097 7.94155 2.5977 7.98055 2.88495 7.9858C3.4542 7.9888 3.66945 7.25905 3.2052 6.9538C2.15895 6.26455 1.7127 5.0473 2.0082 3.9028C3.8352 5.7538 6.31395 6.86905 8.93595 6.99505C9.3117 7.0183 9.5937 6.66505 9.5112 6.3073C9.15495 4.76305 10.0175 3.6808 10.9437 3.18205C11.8602 2.68705 13.3317 2.53255 14.4597 3.71605C14.795 4.0693 15.926 4.0828 16.5012 3.94855C16.2432 4.43455 15.8465 4.8958 15.4752 5.1553C15.317 5.2663 15.2262 5.4508 15.236 5.64355C15.3567 8.1073 14.4387 10.5568 12.7175 12.3635C10.9835 14.1838 8.5857 15.1865 5.96445 15.1865C4.92195 15.1865 3.8997 15.017 2.9337 14.69C4.0887 14.4665 5.18595 13.9775 6.11745 13.2605Z" fill="black"/>
</svg>