<svg width="64" height="64" viewBox="0 0 64 64" fill="none" xmlns="http://www.w3.org/2000/svg">
<path d="M32 1L59 16.4929V47.4858L32 62.9788L5 47.4858V16.4929L32 1Z" fill="white"/>
<path d="M54.1793 46.4171L32.8933 58.6331V49.1208L46.156 41.7176L54.1793 46.4171ZM55.6374 45.0794V19.5363L47.8514 24.1014V40.5214L55.6374 45.0794ZM9.73744 46.4171L31.0235 58.6331V49.1208L17.7537 41.7176L9.73744 46.4171ZM8.2793 45.0794V19.5363L16.0653 24.1014V40.5214L8.2793 45.0794ZM9.19325 17.8801L31.0235 5.35272V14.5466L17.0351 22.3532L16.9235 22.4169L9.19325 17.8801ZM54.7235 17.8801L32.8933 5.35272V14.5466L46.8816 22.3461L46.9933 22.4098L54.7235 17.8801Z" fill="#8ED6FB"/>
<path d="M31.0229 46.955L17.9346 39.6509V25.1913L31.0229 32.8564V46.955ZM32.8927 46.955L45.9811 39.658V25.1913L32.8927 32.8564V46.955ZM18.8206 23.521L31.9578 16.1957L45.095 23.521L31.9578 31.2144L18.8206 23.521Z" fill="#1C78C0"/>
</svg>
