<svg width="76" height="69" viewBox="0 0 76 69" fill="none" xmlns="http://www.w3.org/2000/svg">
<path d="M47.9534 53.5361C47.9534 53.5361 47.9848 53.5816 48.0434 53.6677C48.1016 53.7535 48.194 53.8755 48.2988 54.037C48.3517 54.1157 48.4106 54.2037 48.4752 54.2996C48.538 54.3959 48.6064 54.4999 48.6791 54.6111C48.8227 54.8351 48.9818 55.0881 49.1522 55.3656C49.2358 55.5047 49.3229 55.6496 49.4136 55.7996C49.5021 55.9513 49.5935 56.1075 49.6877 56.2681C49.7826 56.4278 49.8775 56.5944 49.9745 56.7652C50.0719 56.9348 50.1717 57.1084 50.2736 57.2851C50.4733 57.641 50.6878 58.0048 50.9016 58.3791C51.1221 58.7506 51.3461 59.1301 51.581 59.5066C51.8192 59.8805 52.0587 60.2587 52.3141 60.6195C52.5709 60.9813 52.8285 61.3375 53.1001 61.6688C53.2377 61.835 53.3703 61.9983 53.509 62.1534C53.5778 62.2318 53.6462 62.3083 53.7136 62.3845C53.7824 62.4607 53.8536 62.5317 53.9221 62.6039C54.0579 62.7493 54.2008 62.8827 54.3348 63.0152C54.4724 63.1444 54.6072 63.2683 54.7384 63.3847C54.8721 63.5 55.0009 63.6095 55.137 63.6965C55.2739 63.7833 55.4069 63.8598 55.5413 63.9184C55.6761 63.9763 55.807 64.0218 55.9304 64.057C56.0574 64.0896 56.1774 64.1113 56.2885 64.123C56.5076 64.1534 56.6984 64.1368 56.8279 64.1226C56.9577 64.1065 57.0332 64.0835 57.0332 64.0835L57.1923 63.7953C57.192 63.7953 57.1726 63.7176 57.1264 63.5995C57.0808 63.4788 57.0043 63.3236 56.9048 63.143C56.8558 63.0516 56.7962 62.9614 56.7302 62.8671C56.6653 62.7701 56.5919 62.6731 56.5093 62.579C56.3457 62.3845 56.146 62.1948 55.9061 62.0095C55.7897 61.9128 55.6687 61.8106 55.5452 61.7022C55.4242 61.5901 55.2958 61.4797 55.1709 61.3547C54.9159 61.1138 54.6537 60.8454 54.3888 60.5593C54.1274 60.2696 53.8558 59.9662 53.588 59.6466C53.3234 59.3239 53.0482 58.9958 52.7819 58.6577C52.512 58.3181 52.2418 57.978 51.9762 57.6432C51.7052 57.3088 51.4424 56.9747 51.1757 56.6586C50.9104 56.3396 50.6497 56.0352 50.3922 55.7523C50.1378 55.4683 49.8863 55.2069 49.651 54.9705C49.5311 54.8538 49.416 54.743 49.3063 54.6368C49.1938 54.5349 49.0866 54.4375 48.986 54.3468C48.7807 54.1684 48.6004 54.0153 48.4438 53.8977C48.2917 53.7765 48.1676 53.6892 48.084 53.6282C47.9989 53.568 47.9534 53.5361 47.9534 53.5361Z" fill="#4A6732"/>
<path d="M23.9183 68.5402C30.1279 66.1247 32.6104 65.4156 39.4113 62.4523C43.0749 60.8569 47.3198 58.9989 51.4241 57.3667C48.7126 59.7006 43.7628 63.7226 39.5647 65.5839C31.5323 69.1377 23.9183 68.5402 23.9183 68.5402Z" fill="#688C39"/>
<path d="M29.7032 68.1135C28.8001 68.1989 25.0624 68.4288 25.0624 68.4288C26.1257 67.9935 31.3817 65.7245 31.388 65.7227C29.1606 66.5642 26.9977 67.3426 23.9183 68.5403C23.9183 68.5403 28.3436 68.8878 34.0053 67.4785C33.9908 67.4796 32.9586 67.6856 32.5579 67.7576C32.2887 67.8051 30.6539 68.0253 29.7032 68.1135Z" fill="#4A6732"/>
<path d="M13.7707 64.5491C17.0808 63.652 22.3118 62.7814 24.5103 62.4614C29.2873 61.7622 32.1359 61.1407 35.4789 60.4238C42.0204 59.0225 44.0563 59.0349 51.4241 57.3667C46.0223 60.4745 42.4871 62.5553 36.2028 64.1586C21.9756 67.7852 13.7707 64.5491 13.7707 64.5491Z" fill="#688C39"/>
<path d="M11.7394 23.3906C11.7394 23.3906 19.6222 31.5761 23.3705 34.7056C25.8043 36.7387 32.2206 42.2452 34.465 44.3044C36.1255 45.8259 40.3542 49.3942 42.9821 52.0431C44.3928 53.4685 47.2944 54.8753 49.1458 55.9696C47.3759 53.8903 34.2939 47.0556 31.8897 45.434C27.0009 42.1887 22.2857 36.8822 18.3645 32.6083C16.4846 30.5171 11.7394 23.3906 11.7394 23.3906Z" fill="#4A6732"/>
<path d="M16.7538 29.167C18.4912 32.9777 34.5722 45.1203 37.2868 47.8433C35.4344 46.6366 32.0019 43.9349 29.9039 42.3859C29.1172 41.806 27.3106 40.4083 24.3071 37.7698C24.0362 37.5338 16.8998 29.4863 16.7538 29.167Z" fill="#80A53A"/>
<path d="M22.4296 0.745605C27.4616 11.9767 32.404 22.9696 37.3786 32.2028C41.68 39.9763 45.4882 50.8839 51.4851 57.3397C49.5138 48.8458 46.1497 39.8112 42.5242 31.9428C38.5396 23.2966 37.4209 20.8639 30.269 11.1561C29.9819 10.7667 22.6208 1.16791 22.4296 0.745605Z" fill="#688C39"/>
<path d="M51.2202 56.8231C51.2202 56.8231 49.9932 55.4851 49.5677 54.8725C49.2368 54.3917 48.1764 52.9648 47.668 52.2757C48.8495 54.142 50.1103 55.8516 51.4907 57.3367C51.0932 55.6219 50.6409 53.8978 50.1371 52.1548C50.6469 54.5438 51.1013 56.3726 51.1672 56.5871L51.2202 56.8231Z" fill="#4A6732"/>
<path d="M24.4277 3.89381C24.4277 3.89381 25.8505 5.93502 26.5987 6.80502C27.3459 7.67601 29.3391 10.2774 29.8284 10.8633C29.9709 11.0316 30.1974 11.2172 30.4535 11.4066C30.3914 11.3237 30.3315 11.2408 30.269 11.1561C29.9819 10.7667 22.6208 1.16791 22.4296 0.745605C23.5906 3.334 24.7456 5.9089 25.8956 8.4531C25.6127 7.4322 25.2751 6.2246 25.1269 5.7614C24.8504 4.8993 24.4277 3.89381 24.4277 3.89381Z" fill="#4A6732"/>
<path d="M26.4887 8.1582C27.8296 9.8794 31.9257 18.5252 32.7843 20.6832C34.5574 24.7804 36.0581 27.7938 38.3554 31.4771C39.8985 33.9984 39.7707 33.8841 42.6039 40.5541C44.4814 44.9705 46.1073 49.0634 49.5843 53.2933C45.6113 39.6503 33.129 16.6862 26.4887 8.1582Z" fill="#4A6732"/>
<path d="M32.6767 19.5981C33.698 20.4946 39.8159 32.828 40.2766 34.304C41.1244 37.1252 44.9982 44.8217 47.9192 49.3631C44.1424 42.5499 40.9264 32.5073 37.5994 27.5455C37.4752 27.3603 32.8637 19.7632 32.6767 19.5981Z" fill="#80A53A"/>
<path d="M35.7233 28.7219C28.3803 18.086 24.0859 12.5284 17.9402 4.76803C17.7592 4.53873 15.9568 2.22372 15.7917 2.02412C15.4788 1.64842 15.1768 1.38623 15.1768 1.38623C15.2859 2.30213 15.9096 3.71993 16.263 4.61633C16.3061 4.72743 16.3477 4.83992 16.3911 4.95492L16.4003 4.97752L16.3999 4.97293C19.625 13.3821 27.1759 28.7734 29.7794 33.0085C34.7034 40.9326 42.933 52.9712 51.4008 57.3791L51.4907 57.3364C49.9865 49.0719 40.5758 35.7521 35.7233 28.7219Z" fill="#688C39"/>
<path d="M51.4907 57.3367C50.9393 54.3071 49.3279 50.6114 47.2662 46.7798C47.6458 47.6455 48.0536 48.6468 48.4216 49.703C49.9075 53.9602 50.4179 55.5531 50.4179 55.5531C50.4179 55.5531 48.8301 54.6567 45.8675 52.375C43.5857 50.6174 41.0848 47.9836 41.0376 48.6041C44.2948 52.3008 47.8282 55.5192 51.4008 57.3794L51.4907 57.3367Z" fill="#688C39"/>
<path d="M17.9458 4.77293C17.7846 4.57113 15.9582 2.22302 15.7917 2.02412C15.4788 1.64842 15.1768 1.38623 15.1768 1.38623C15.3021 2.43893 16.1068 4.15342 16.4003 4.97752C16.2242 4.35032 16.1516 4.08222 15.9441 3.43412C15.7618 2.87532 15.4312 1.89352 15.4114 1.80992C15.4114 1.80992 17.3083 4.11043 17.9458 4.77293Z" fill="#4A6732"/>
<path d="M18.4252 7.05225C21.3663 12.7269 30.3354 29.4373 33.818 35.0447C37.302 40.6514 38.8493 42.4668 43.0357 47.7154C44.2884 49.2545 46.1969 50.9155 47.4299 52.6631C48.2886 53.8817 48.9232 54.1554 48.9232 54.1554C47.0447 50.8763 46.1366 48.5177 44.9456 46.2984C42.8202 42.3462 42.6685 41.587 40.7621 38.9034C36.988 33.4989 33.4564 28.1966 29.2961 22.9749C27.4683 20.6723 20.2928 9.31524 18.4252 7.05225Z" fill="#4A6732"/>
<path d="M45.2808 48.711C43.0854 43.6405 27.8391 21.4745 24.8161 17.686C27.0161 22.2516 38.5759 40.577 41.9633 44.7811L45.2808 48.711Z" fill="#80A53A"/>
<path d="M11.5499 8.71045C14.314 15.4336 15.8073 20.4649 23.5451 31.6318C30.8977 42.2415 46.882 54.2377 51.4121 57.3725C45.2783 48.98 37.5627 39.71 34.3775 36.2334C31.3708 32.9511 25.9419 27.7223 20.4773 20.2275C16.3428 14.5545 11.5499 8.71045 11.5499 8.71045Z" fill="#688C39"/>
<path d="M27.7544 35.1838C24.6563 31.3868 17.0706 21.769 14.0529 12.7676C19.9147 23.3128 28.8801 32.0232 33.8892 37.7386C37.8157 42.1459 44.2055 49.1128 47.4465 53.2311C41.8655 49.3955 31.7468 40.3379 27.7544 35.1838Z" fill="#4A6732"/>
<path d="M22.9309 27.4101C25.2405 31.9493 37.8746 44.9897 42.1432 47.9809C39.7655 45.2119 33.982 39.776 28.3616 33.2993C24.5558 28.9118 20.9518 23.7447 18.0396 19.7671L22.9309 27.4101Z" fill="#80A53A"/>
<path d="M12.2022 9.74545C12.2022 9.74545 14.1309 12.1457 15.7939 14.389C16.0419 14.7242 17.7183 16.7361 18.2083 17.176C14.7687 12.6357 11.5499 8.71045 11.5499 8.71045C12.6139 11.2976 13.4892 13.6366 14.6068 16.1699C14.3496 15.2022 13.8754 14.0151 13.48 13.0986C12.7388 11.3781 12.2022 9.74545 12.2022 9.74545Z" fill="#4A6732"/>
<path d="M6.7077 17.4624C12.5832 26.6766 18.79 34.5015 26.3461 41.7483C33.0934 47.9414 43.1828 53.293 51.3701 57.37C44.734 51.1734 39.2582 46.7094 28.6512 37.5848C25.1022 34.5298 21.3596 31.1442 17.8488 27.9328C14.4018 24.8665 6.7077 17.4624 6.7077 17.4624Z" fill="#688C39"/>
<path d="M11.7394 23.3906C11.7394 23.3906 19.6222 31.5761 23.3705 34.7056C25.8043 36.7387 32.2206 42.2452 34.465 44.3044C36.1255 45.8259 40.3542 49.3942 42.9821 52.0431C44.3928 53.4685 47.2944 54.8753 49.1458 55.9696C47.3759 53.8903 34.2939 47.0556 31.8897 45.434C27.0009 42.1887 22.2857 36.8822 18.3645 32.6083C16.4846 30.5171 11.7394 23.3906 11.7394 23.3906Z" fill="#4A6732"/>
<path d="M16.7538 29.167C18.4912 32.9777 34.5722 45.1203 37.2868 47.8433C35.4344 46.6366 32.0019 43.9349 29.9039 42.3859C29.1172 41.806 27.3106 40.4083 24.3071 37.7698C24.0362 37.5338 16.8998 29.4863 16.7538 29.167Z" fill="#80A53A"/>
<path d="M56.1643 8.61719C55.8768 17.045 55.826 24.7201 55.106 33.3631C54.3846 41.6464 53.0839 45.1664 51.4248 57.3664C54.9935 49.4692 58.0489 42.3424 59.2356 32.4985C60.1398 25.0027 58.7728 15.5165 56.1809 8.5293L56.1643 8.61719Z" fill="#688C39"/>
<path d="M56.1643 8.61719C56.0955 10.633 56.0391 12.605 55.9855 14.559C56.0857 14.1392 56.0987 13.8256 56.1301 13.4735C56.2134 12.5387 56.3742 9.75139 56.3742 9.75139C56.3742 9.75139 57.0138 11.4256 57.1271 11.8673C57.417 12.9934 57.5409 13.4262 57.7183 14.0986C57.8834 14.7269 58.0633 15.4209 58.2418 15.7796C57.7 13.2065 57.0018 10.7413 56.1809 8.5293L56.1643 8.61719Z" fill="#4A6732"/>
<path d="M56.6536 12.1064C56.6536 12.1064 57.308 22.7194 56.8787 27.1037C56.6007 29.9517 56.0634 37.669 55.5311 40.366C55.1028 42.5377 54.6 46.3212 54.4568 48.4001C55.0717 45.9607 56.6607 43.0379 57.1796 40.4771C58.2662 35.2948 58.7978 26.1272 58.6154 20.8983C58.5001 18.3636 56.6536 12.1064 56.6536 12.1064Z" fill="#4A6732"/>
<path d="M57.5758 18.9551C58.1194 21.0326 57.6171 28.7091 56.7023 35.3399C56.0059 40.3913 54.8901 44.7174 54.8813 46.216C55.306 44.2694 56.5877 38.3396 56.957 36.0169C57.0957 35.1469 57.3804 32.3311 57.6531 28.7348C57.84 26.3141 57.6562 19.2606 57.5758 18.9551Z" fill="#80A53A"/>
<path d="M8.5143 19.5526L9.24071 20.3287L9.2477 20.3365C9.3465 20.4335 10.3523 21.4283 11.5866 22.602C12.8845 23.8371 17.1379 27.6898 17.9888 28.0609L17.9899 28.0605C17.943 28.0189 17.8943 27.9745 17.8488 27.9328C14.4018 24.8665 6.7077 17.4624 6.7077 17.4624C8.2398 19.8648 9.7942 22.1705 11.3884 24.398C10.9417 23.5404 10.3812 22.6115 10.0478 22.1081C8.89422 20.3714 8.5767 19.6129 8.5143 19.5526Z" fill="#4A6732"/>
<path d="M0.700623 23.7461C8.60182 34.4462 19.0856 42.384 30.7774 48.6144C37.4713 52.2184 44.6052 55.5621 51.4121 57.3728C46.2308 54.2394 45.7708 53.6573 41.3935 51.106C36.0669 48.0034 29.077 42.9378 24.6376 40.0677C15.8785 34.4028 13.3068 31.9615 4.80591 26.5542L0.700623 23.7461Z" fill="#688C39"/>
<path d="M11.5535 31.1787C11.9232 31.4162 12.4135 31.7329 12.7723 31.9005C10.5396 30.325 8.12451 28.6659 4.80591 26.5542L0.700623 23.7461C2.88612 26.7055 5.26772 29.4519 7.82072 32.0109C6.31472 30.0654 3.16123 26.1361 3.16123 26.1361C6.25162 27.7388 8.80431 29.4141 11.5535 31.1787Z" fill="#4A6732"/>
<path d="M12.1574 33.5959C13.117 34.4521 21.0305 39.6792 22.0694 40.6656C23.925 42.4175 33.873 48.155 33.873 48.155C33.873 48.155 43.5945 53.1741 44.2457 53.6996C43.0304 53.6214 29.4933 47.1827 24.2513 44.0267C23.4322 43.5339 19.7929 41.0772 19.1664 40.5703C17.2565 39.0301 16.5051 38.3856 14.2843 36.5818C13.414 35.8745 8.28917 31.5071 8.04327 30.3892L12.1574 33.5959Z" fill="#4A6732"/>
<path d="M33.2937 48.5502C31.4914 46.9238 25.2289 43.5957 21.9033 41.0582C20.2195 39.7727 14.7743 36.0064 13.0355 34.8677C15.125 36.887 17.9546 39.1882 18.8655 39.8344C21.47 41.6826 22.7651 42.5586 25.0768 43.8445C27.1448 44.9944 33.2937 48.5502 33.2937 48.5502Z" fill="#80A53A"/>
<path d="M60.893 39.6729C57.8757 46.3026 54.3675 51.1184 51.4391 57.3488C55.488 52.6632 59.4497 47.9593 62.8166 42.4073C66.7299 36.1829 69.0438 27.101 69.8121 19.8574C68.4374 21.0822 63.6915 33.5247 60.893 39.6729Z" fill="#688C39"/>
<path d="M68.1291 22.8228C68.4886 22.2305 68.8142 21.7038 68.9596 21.4996C69.3713 20.9224 69.5201 20.589 69.5201 20.589C69.5201 20.589 69.3092 22.1797 69.294 22.9784C69.2817 23.6826 69.2644 23.7584 69.2601 23.8328C69.4926 22.4686 69.6764 21.1351 69.8122 19.8574C69.4521 20.1798 68.8583 21.2741 68.1291 22.8228Z" fill="#4A6732"/>
<path d="M60.2827 42.5655C61.0559 41.0366 64.3622 34.3709 65.0575 33.0244C65.9352 31.324 67.7217 27.1728 68.048 26.2666C67.982 27.5849 65.9821 33.5017 65.6795 34.3709C64.8582 36.7247 63.3169 39.5627 62.2572 41.7433C61.5664 43.1604 60.2693 44.7638 59.4815 46.0799C58.8359 47.1591 54.3257 53.0692 54.1916 53.2678C56.9641 49.2979 59.0261 44.998 60.2827 42.5655Z" fill="#4A6732"/>
<path d="M65.8654 31.7075C65.5316 33.4167 62.9839 37.4941 62.3503 39.1441C61.5068 41.3408 59.1569 46.1541 57.8859 48.2241C59.1852 46.7827 62.2469 39.4287 63.1433 37.7174C63.8771 36.3762 65.8424 32.799 65.8654 31.7075Z" fill="#80A53A"/>
<path d="M58.4013 36.3198C56.3619 43.2663 53.4102 50.4348 51.4325 57.3316C60.4474 44.8993 65.9035 30.1557 65.3598 14.6758C64.2006 18.3204 60.0872 30.5815 58.4013 36.3198Z" fill="#688C39"/>
<path d="M61.9495 25.1071C62.3383 23.986 62.8932 22.9252 63.1197 22.2778C63.9586 19.8853 64.9584 17.7626 65.0056 17.2501C65.0056 17.2501 64.9464 21.7296 64.8247 22.8705C64.752 23.5394 64.5428 25.3925 64.5731 26.798C65.2258 22.8278 65.5045 18.7783 65.3598 14.6758C64.7629 16.554 63.3804 20.7239 61.9495 25.1071Z" fill="#4A6732"/>
<path d="M64.2467 21.5566C64.1391 22.8223 62.4755 28.139 61.9905 29.4006C61.1286 31.8534 60.3539 33.6544 59.8784 36.1365C59.5429 37.8256 59.4924 37.8415 58.0679 41.8138C57.1246 44.4441 55.6352 49.0076 54.4174 52.2753C59.4339 43.8966 63.7165 27.8272 64.2467 21.5566Z" fill="#4A6732"/>
<path d="M62.5087 28.5933C62.5909 29.3793 60.3359 37.3849 59.9493 38.1976C59.1972 39.7374 57.1722 44.5489 56.4804 47.671C57.5575 43.266 60.7145 37.5831 61.2517 34.1467C61.2708 34.019 62.5242 28.7383 62.5087 28.5933Z" fill="#80A53A"/>
<path d="M3.98249 36.9443C8.94288 41.9298 15.3003 45.7644 27.2789 51.1214C35.258 54.6912 42.3915 56.3644 51.4392 57.3486C43.5102 53.6879 33.1572 49.5586 25.3898 45.737C17.2688 41.7425 6.51858 36.0292 0.533386 33.0151C0.533386 33.0151 3.70099 36.66 3.98249 36.9443Z" fill="#688C39"/>
<path d="M1.7519 34.0267C1.7519 34.0267 4.00749 35.0935 4.57689 35.3651C5.14559 35.6371 5.8649 35.9394 6.3556 36.1684C6.4332 36.2037 6.9801 36.4608 7.1773 36.5116C4.7064 35.231 2.4666 34.0764 0.660706 33.168C0.660706 33.168 3.8269 36.8133 4.1102 37.0962C4.857 37.8476 5.63529 38.5715 6.45939 39.2774C5.80709 38.5006 4.36771 37.1639 3.78461 36.4576C2.48321 34.8758 1.7519 34.0267 1.7519 34.0267Z" fill="#4A6732"/>
<path d="M32.7805 52.0595C29.3652 50.9508 25.2603 49.056 22.836 47.911C19.6691 46.4119 16.7308 44.7215 14.1982 43.2419C10.813 41.2674 9.289 40.4345 6.4703 37.8172C5.9129 37.3089 4.91309 36.6234 4.49829 36C8.32939 38.298 13.8493 40.5682 17.7684 43.0248C21.0622 45.0911 24.1639 46.2592 27.093 47.5582C33.5012 50.2603 41.0584 53.7447 46.0805 55.8071C46.0805 55.8071 36.5883 53.2956 32.7805 52.0595Z" fill="#4A6732"/>
<path d="M32.0618 51.4716C25.3891 48.7915 15.6834 43.8851 10.3643 39.8101C14.4124 42.1099 22.2705 46.6645 26.1585 48.3886C28.6216 49.5046 35.469 52.0461 37.8442 53.2146C37.8442 53.2146 32.3959 51.6046 32.0618 51.4716Z" fill="#80A53A"/>
<path d="M0 40.6108C9.46609 50.7757 35.3741 59.6565 51.4456 57.3533C44.4634 54.8273 29.6922 52.2662 15.5335 46.9474C12.2393 45.7105 0 40.6108 0 40.6108Z" fill="#688C39"/>
<path d="M6.03711 43.1101C2.77531 41.7682 0 40.6108 0 40.6108C0.808899 41.4785 1.74099 42.3394 2.77349 43.1815C2.77349 43.1815 1.7808 42.2562 1.4767 41.9188C1.3547 41.7827 1.02301 41.3436 1.02301 41.3436C1.02301 41.3436 1.36949 41.3761 2.00269 41.5987C3.09989 41.9822 4.89341 42.7003 6.03711 43.1101Z" fill="#4A6732"/>
<path d="M3.09564 42.8853C3.09564 42.8853 12.5123 46.93 16.7238 48.2197C19.4606 49.0582 26.7229 51.3885 29.3088 52.3143C31.2215 52.998 34.9395 54.891 39.4113 55.4452C40.6986 55.606 43.6217 56.2056 45.5958 56.8712C43.1077 56.5023 31.1707 54.4992 28.6057 53.9929C23.4036 53.0048 14.9077 49.8558 10.1522 47.6765C7.85784 46.5969 3.09564 42.8853 3.09564 42.8853Z" fill="#4A6732"/>
<path d="M8.75702 45.9707C11.769 48.264 29.6439 52.9796 32.8514 54.2915C30.892 53.937 27.0334 52.5129 24.7463 51.9594C23.889 51.7529 21.1808 50.9318 17.7557 49.8031C15.4499 49.043 9.00822 46.1622 8.75702 45.9707Z" fill="#80A53A"/>
<path d="M51.4269 57.3725C36.202 56.7347 20.0314 52.6136 4.20929 49.9976C14.1686 58.8242 36.4254 60.3284 51.4269 57.3725Z" fill="#688C39"/>
<path d="M51.4473 57.3628C48.6639 57.3764 46.0149 57.4167 43.3818 57.4619C38.2415 57.5526 33.1667 57.6743 27.3106 57.7106C20.7102 57.7522 13.7368 58.4284 8.59222 57.617C13.8684 61.4589 21.7738 61.6889 27.5466 61.7086C33.6769 61.7316 35.4478 61.408 40.4484 60.3445C43.6929 59.6541 51.4473 57.3628 51.4473 57.3628Z" fill="#688C39"/>
<path d="M10.849 58.6326C10.71 58.5338 10.0319 58.1729 10.0319 58.1729C10.0319 58.1729 13.1004 57.9987 13.825 58.006H13.8268C11.9514 57.9772 10.1836 57.8678 8.59222 57.6172C10.9305 59.3205 13.7865 60.3135 16.7453 60.8933C16.6119 60.853 14.1675 60.117 13.2951 59.8165C12.1497 59.4221 11.4039 59.0256 10.849 58.6326Z" fill="#4A6732"/>
<path d="M6.4763 51.4431C5.9574 51.08 4.9632 50.3205 4.9632 50.3205C4.9632 50.3205 7.5787 50.8296 8.2839 51.013C8.9778 51.193 12.0449 51.399 12.6122 51.4969C9.8044 50.9693 7.00189 50.4599 4.20929 49.9976C6.05299 51.6317 8.3196 53.0147 10.8804 54.1633C10.4613 53.868 9.5007 53.4517 8.8695 53.039C7.1328 51.9019 6.9501 51.7753 6.4763 51.4431Z" fill="#4A6732"/>
<path d="M22.993 54.4747C21.4129 54.2425 19.8582 53.9437 18.2231 53.543C14.8417 52.714 11.4797 52.1925 7.91992 51.7646C8.58452 52.1477 9.11652 52.4998 10.5424 53.1204C11.2878 53.4438 12.6178 53.912 13.3692 54.1063C14.4589 54.3883 15.5444 54.6746 16.5305 54.9855C18.6563 55.654 19.9827 55.8488 22.2776 56.1025C24.0852 56.3022 40.2703 57.8625 42.0098 57.348C40.5327 57.0291 25.1583 54.7935 22.993 54.4747Z" fill="#4A6732"/>
<path d="M38.0231 57.0399C36.1124 57.2393 20.6664 55.4468 17.5944 54.6386C16.7107 54.4047 14.9722 54.0915 14.1929 53.8385C13.5728 53.642 12.0071 53.066 11.6198 52.8398C11.6198 52.8398 22.7288 55.9897 38.0231 57.0399Z" fill="#80A53A"/>
<path d="M13.4574 59.0455C14.6981 59.3101 20.2688 59.254 21.6175 59.1548C24.2164 59.0406 26.1631 58.8197 28.6755 59.0836C30.3879 59.248 30.4197 59.2039 34.6332 58.9897C37.4241 58.8493 42.2247 58.7439 45.7048 58.5205C36.2327 60.9001 19.6127 60.3515 13.4574 59.0455Z" fill="#4A6732"/>
<path d="M20.695 59.4177C21.4238 59.7246 29.737 59.8802 30.6292 59.7451C32.3208 59.47 37.5116 58.9238 40.7017 59.164C36.1721 58.9206 29.8196 60.3004 26.374 59.8196C26.246 59.8019 20.828 59.4731 20.695 59.4177Z" fill="#80A53A"/>
<path d="M14.7637 64.6055C14.7637 64.6055 16.6885 64.0576 17.1951 63.9215C17.4092 63.8633 18.4806 63.6155 19.0401 63.3853C17.199 63.7338 15.2848 64.1402 13.7707 64.549C13.7707 64.549 15.7385 65.3251 19.4126 65.6906C18.7847 65.5083 17.4371 65.2808 17.2036 65.2385C15.6295 64.9513 14.7637 64.6055 14.7637 64.6055Z" fill="#4A6732"/>
<path d="M35.8256 62.1761C34.1528 62.5293 26.9773 63.5626 25.4974 63.8868C23.6298 64.2953 21.4919 64.5331 20.5324 64.6146C21.8232 64.8907 25.5185 64.9825 26.4375 64.9126C28.9228 64.7267 32.5635 63.8893 34.9451 63.426C36.4931 63.1248 37.9561 62.7308 39.4303 62.3084C40.6386 61.9627 47.5125 59.1296 47.7375 59.0513C43.1885 60.7086 38.5025 61.5895 35.8256 62.1761Z" fill="#4A6732"/>
<path d="M26.4509 64.3557C27.988 64.4111 31.2854 63.393 32.8242 63.1849C34.871 62.9066 39.4497 61.8785 41.4673 61.2178C39.9881 62.0246 33.0867 63.1531 31.4477 63.5719C30.159 63.924 27.3999 64.5508 26.4509 64.3557Z" fill="#80A53A"/>
<path d="M31.3796 66.5502C31.9715 66.414 36.1467 64.7995 36.8078 64.6703C37.9899 64.4365 42.9172 62.1757 42.9172 62.1757C42.9172 62.1757 47.6539 59.9634 47.8864 59.7021C47.5241 60.149 41.3459 63.5962 38.6983 64.7486C38.2852 64.9286 36.346 65.6576 35.9791 65.7603C34.865 66.0739 34.4113 66.1875 33.1114 66.5477C32.6002 66.6878 29.519 67.4667 29.022 67.255L31.3796 66.5502Z" fill="#4A6732"/>
<path d="M32.5159 66.417C33.8751 66.4942 41.2154 63.0928 42.3785 62.6729C41.7583 63.0299 39.2331 64.1054 38.469 64.4748C38.184 64.6124 37.6435 64.8082 36.4314 65.2729C36.3216 65.3141 32.6288 66.4233 32.5159 66.417Z" fill="#80A53A"/>
<path d="M39.5739 3.58252C40.8929 7.36672 42.2381 11.7549 43.3472 15.512C44.9157 20.8178 45.7327 25.188 46.5889 29.8461C47.5322 35.0072 48.344 38.6017 48.9274 43.7719C49.4799 47.8645 49.6581 53.1093 51.4428 57.355C57.2579 39.2423 50.2835 17.8605 40.0286 4.11271L39.5739 3.58252Z" fill="#688C39"/>
<path d="M40.9653 6.84992C40.8164 6.21212 40.4809 5.12732 40.4809 5.12732C40.4809 5.12732 41.0429 5.82262 42.0814 7.18652C42.236 7.38902 42.4434 7.69132 42.5933 7.82222C41.7678 6.53562 40.9113 5.29591 40.0286 4.11271L39.5739 3.58252C40.4026 5.95702 41.2404 8.56942 42.0236 11.1139L42.0243 11.115C41.7029 9.64742 41.1709 7.73932 40.9653 6.84992Z" fill="#4A6732"/>
<path d="M49.2668 27.8271C48.4759 24.2246 46.3582 15.2538 42.4639 9.26611C45.9387 17.6523 46.876 27.0119 47.9026 32.6376C48.6639 37.0135 49.7805 44.0383 50.6913 47.8752C51.0413 42.7916 50.4359 32.5903 49.2668 27.8271Z" fill="#4A6732"/>
<path d="M46.9413 21.3467C47.9446 25.4481 50.3114 38.3767 50.0775 42.2939C49.5586 39.5963 49.0594 33.646 47.8712 27.3027C47.0648 23.0058 45.7052 18.4656 44.7245 14.8877L46.9413 21.3467Z" fill="#80A53A"/>
<path d="M33.5456 6.8838C36.9598 16.6561 38.3339 21.7488 40.8831 29.8348C43.5384 38.2538 46.7314 49.3053 51.4121 57.3448C51.2639 48.6103 49.9265 43.2368 47.3301 32.9971C45.9588 27.5978 42.8653 20.0082 39.9291 15.1046C37.2763 10.6733 34.0801 4.4016 31.1552 0L33.5456 6.8838Z" fill="#688C39"/>
<path d="M31.1552 0L33.5456 6.8838C33.9443 8.0222 34.3129 9.09639 34.6604 10.1209C34.2755 8.57009 33.3781 5.7873 33.0225 4.7639C32.585 3.5056 32.2015 2.467 32.1638 2.3651L32.1606 2.35689L31.8421 1.5893C31.8664 1.6528 32.3035 2.1238 33.1678 3.5081C33.3971 3.8753 35.3088 7.0824 35.9858 8.0705C34.3828 5.2243 32.718 2.3516 31.1552 0Z" fill="#4A6732"/>
<path d="M34.2544 6.78662C34.2544 6.78662 38.4496 17.3449 39.7513 22.0516C40.597 25.1095 42.9577 33.2283 43.905 36.1236C44.6052 38.2642 46.4178 43.6595 47.7449 47.1475C48.4586 49.0226 50.1294 52.4713 50.3611 54.6087C49.1991 52.1382 46.2862 37.2944 45.8036 34.4366C44.8666 28.644 42.0867 22.1169 39.8166 16.7794C38.6891 14.2023 34.2544 6.78662 34.2544 6.78662Z" fill="#4A6732"/>
<path d="M36.5382 11.583C39.0655 14.8994 44.7654 36.8369 46.1225 40.4342C45.7881 38.2502 44.7467 34.0077 44.2038 31.4546C44.0009 30.501 43.2777 28.408 42.1157 24.5828C42.0127 24.2389 36.751 11.8624 36.5382 11.583Z" fill="#80A53A"/>
<path d="M49.1109 11.8666C50.8095 19.5173 51.0551 26.4258 51.4304 34.2701C51.9479 42.0376 51.0649 45.6716 51.4392 57.3488C56.1206 42.5823 57.3327 19.3945 48.0709 5.9043C48.4353 9.04549 48.478 9.0218 49.1109 11.8666Z" fill="#688C39"/>
<path d="M48.0709 5.9043C48.4353 9.04549 48.478 9.0218 49.1109 11.8666C49.4443 13.3666 49.7208 14.8384 49.9533 16.2933C49.8179 14.6225 49.6348 13.259 49.5014 12.5094C49.1786 10.6922 48.6837 7.57049 48.6837 7.57049C48.6837 7.57049 50.1632 9.7115 51.4816 13.2259C51.8784 14.2838 52.56 16.403 52.6951 16.7787C52.8285 17.1544 53.2158 18.4791 53.3866 18.9511C53.4571 19.1487 53.7101 19.9389 53.7101 19.9389C52.6267 14.7266 50.8092 9.89179 48.0709 5.9043Z" fill="#4A6732"/>
<path d="M51.3066 18.1151C51.532 19.3812 51.8276 28.8614 52.1222 30.2612C52.6404 32.7603 52.4358 44.2464 52.4358 44.2464C52.4358 44.2464 51.6304 53.6482 51.7363 54.4794C51.931 53.4609 53.7739 40.0035 53.8385 33.8825C53.848 32.9279 53.6667 28.5411 53.5661 27.742C53.2553 25.3075 53.1036 24.3289 52.7318 21.4922C52.5854 20.3795 51.1313 14.6896 50.5298 12.5161L51.3066 18.1151Z" fill="#4A6732"/>
<path d="M52.8327 44.0191C52.5731 41.6548 52.9597 34.4914 52.5438 30.3275C52.3349 28.219 51.9839 21.6072 51.9285 19.5308C52.548 22.3699 53.0236 25.9838 53.0962 27.0996C53.3026 30.2866 53.3686 31.8487 53.2504 34.49C53.1438 36.8552 52.8327 44.0191 52.8327 44.0191Z" fill="#80A53A"/>
<path d="M61.837 50.6621C58.6839 52.945 55.8793 54.53 51.4417 57.3529C54.8707 56.3355 60.2185 54.5807 64.0302 52.0192C69.0284 48.6597 71.344 42.9951 71.344 42.9951C66.7826 46.5963 64.7816 48.5271 61.837 50.6621Z" fill="#688C39"/>
<path d="M70.522 44.6563C71.0755 43.6549 71.344 42.9951 71.344 42.9951C70.5263 43.6418 69.7907 44.2334 69.1162 44.7827L69.137 44.7838C69.6221 44.4713 70.183 44.0479 70.3079 43.9618C70.6332 43.7364 71.0057 43.469 71.0057 43.469C71.0057 43.469 70.3061 44.6782 70.2144 44.8797C70.1386 45.0473 69.6874 45.872 69.2051 46.6041C68.7451 47.3005 68.6954 47.4349 68.6371 47.559H68.64C69.4394 46.4986 70.068 45.4727 70.522 44.6563Z" fill="#4A6732"/>
<path d="M55.3992 55.3663C56.6099 54.7921 59.6473 52.9409 60.5003 52.4498C61.5449 51.8489 66.1345 48.1794 66.1345 48.1794C66.1345 48.1794 69.9992 44.7889 70.1707 44.4844C69.9117 44.9977 66.5039 48.9953 62.8833 51.5827C62.515 51.8451 60.2834 53.1684 59.9482 53.3482C58.9276 53.8937 58.2859 54.1861 57.095 54.8201C56.6265 55.0687 53.6674 56.3568 52.9703 56.5071C52.9703 56.5071 54.7751 55.6618 55.3992 55.3663Z" fill="#4A6732"/>
<path d="M56.7574 54.709C57.3299 54.491 59.5228 53.3071 61.6938 51.859C63.9664 50.3431 66.2259 48.5544 66.9678 47.8447C66.4242 48.3128 63.2185 51.044 62.2413 51.6858C61.8275 51.9574 60.8647 52.581 60.3878 52.8517C59.5013 53.354 56.8625 54.6685 56.7574 54.709Z" fill="#80A53A"/>
<path d="M75.0936 32.3818C70.4115 37.8999 65.577 43.4174 62.5079 46.7398C59.2212 50.2954 56.1409 52.8594 51.4099 57.3666C55.3673 55.3574 62.5795 50.8959 66.7525 46.5228C71.9214 41.1078 75.0936 32.3818 75.0936 32.3818Z" fill="#688C39"/>
<path d="M69.777 38.5737C70.3972 38.0093 71.2555 37.0564 71.514 36.8158C71.948 36.4122 73.4928 34.5468 73.7577 34.2554C74.0234 33.9633 74.3472 33.6376 74.3472 33.6376C74.3472 33.6376 73.5065 35.701 73.2003 36.4087C73.1693 36.481 72.9297 37.1055 72.9495 37.2448C74.3331 34.4758 75.0937 32.3818 75.0937 32.3818C73.3076 34.4854 71.5003 36.5897 69.777 38.5737Z" fill="#4A6732"/>
<path d="M64.0948 45.8251C64.9136 45.0621 65.6876 44.2706 66.4718 43.3898C68.09 41.5649 69.8193 39.9266 71.7003 38.2622C71.4689 38.7466 71.3013 39.1632 70.7281 40.0871C70.4282 40.5718 69.8475 41.3709 69.4923 41.7804C68.9765 42.3776 68.4657 42.9753 68.0205 43.5465C67.062 44.7776 66.3769 45.4183 65.1545 46.478C64.1936 47.312 55.4898 54.6565 54.2826 55.0541C55.0065 54.2804 62.9751 46.8721 64.0948 45.8251Z" fill="#4A6732"/>
<path d="M69.9967 40.3555C69.9967 40.3555 64.849 46.5923 56.4568 53.289L69.9967 40.3555Z" fill="#80A53A"/>
<path d="M74.6774 25.2065C70.7873 29.1865 65.8784 36.9865 62.7588 41.4537C60.6767 44.4361 58.2323 47.7974 56.6342 49.9708C55.0115 52.1781 53.4254 54.3674 51.4456 57.3534C57.32 52.1262 59.78 50.3084 63.7282 45.7854C69.2189 39.4947 74.6774 25.2065 74.6774 25.2065Z" fill="#688C39"/>
<path d="M69.6813 31.3858C69.8883 31.2129 70.1946 30.8326 70.3949 30.6157C71.4808 29.4303 73.4147 26.8487 73.8268 26.4874C73.8268 26.4874 72.4125 30.0812 72.2421 30.435C72.1408 30.6435 71.5192 32.1672 71.3774 32.5111C71.2342 32.8565 71.0807 33.5183 71.0811 33.5211C73.2316 28.9901 74.6773 25.2065 74.6773 25.2065C73.1152 26.8039 71.3912 29.0186 69.6813 31.3858Z" fill="#4A6732"/>
<path d="M69.0375 34.4962C68.6484 35.2525 65.0127 40.3395 64.6056 41.1911C63.8789 42.7094 59.0444 48.8305 59.0444 48.8305C59.0444 48.8305 56.8413 51.5437 56.1742 52.2158C56.9048 51.8793 61.5752 46.9583 64.0577 43.7766C64.4451 43.2781 66.1049 40.9085 66.3716 40.4471C67.1823 39.0484 67.4941 38.4726 68.4325 36.8378C68.8019 36.1961 70.9253 32.2987 70.812 31.5522L69.0375 34.4962Z" fill="#4A6732"/>
<path d="M59.5605 48.6971C60.2855 47.2711 63.3525 43.7433 64.8007 41.3941C65.5338 40.2046 67.9958 36.6003 68.7962 35.4897C67.9859 37.2257 66.7907 39.3107 66.3804 39.9234C65.2152 41.6761 64.6257 42.5219 63.5063 43.859C62.5052 45.0564 59.5605 48.6971 59.5605 48.6971Z" fill="#80A53A"/>
<path d="M58.3416 51.2773C58.5282 51.105 58.668 50.9774 58.668 50.9774C58.668 50.9774 57.3747 51.9901 56.987 52.3574C56.83 52.506 56.1051 53.1082 55.2923 53.7732C55.3307 53.7258 55.3694 53.68 55.4026 53.6369C55.2527 53.7739 55.1028 53.9125 54.9515 54.0518C53.8395 54.9627 52.6937 55.8905 52.6937 55.8905C52.8091 55.7395 53.3636 54.8621 53.9316 53.9672C54.7656 52.6559 55.8467 51.0677 55.8467 51.0677L55.8355 51.062C55.1169 52.0459 54.3913 53.0545 53.6226 54.1545C54.9902 52.0699 56.2599 49.9279 57.4178 47.7339C56.5164 49.1577 55.3438 51.0832 55.1175 51.472C54.9263 51.7959 54.018 53.2979 53.2412 54.4342C52.6799 55.2545 51.9934 56.1968 51.9934 56.1968C51.9934 56.1968 52.4746 54.1925 52.8172 53.2909C52.9682 52.8897 53.6878 50.2902 53.4046 51.1256C52.7085 53.1699 52.0471 55.2047 51.4674 57.2144C51.4473 57.1076 51.4269 57 51.4029 56.8924C51.4018 56.8175 51.401 56.7407 51.3993 56.6667L51.3968 56.5911C51.3915 56.3766 51.387 56.1629 51.3824 55.9505L51.38 55.8626C51.374 55.6482 51.3673 55.4379 51.3623 55.2294L51.3591 55.1617C51.3535 54.9422 51.345 54.7257 51.3376 54.5104V54.5016C51.3129 53.8207 51.2808 53.1561 51.2434 52.501L51.242 52.4971C51.2321 52.278 51.2177 52.0632 51.2043 51.8476L51.2039 51.8452C51.206 52.1218 51.193 52.9811 51.2223 53.9548C51.2424 54.569 51.2304 55.5014 51.217 56.1074C51.1803 55.96 51.1401 55.8118 51.0991 55.6626C51.1341 55.93 51.1757 56.1759 51.2131 56.3897C51.2096 56.5844 51.2057 56.7051 51.2057 56.7051C51.1323 56.5762 50.9704 56.3205 50.8078 56.0446C50.6501 55.7755 49.5124 53.4137 48.8181 52.3006C49.3007 53.3459 49.7985 54.3682 50.3156 55.3553C50.7139 56.0898 51.0752 56.7499 51.2904 57.1326L51.3175 57.1803L51.3105 57.1965C51.3105 57.1965 51.2921 57.1841 51.2575 57.1626C50.7393 56.4536 50.2087 55.7384 49.6722 55.0216C49.9773 55.4964 50.3876 56.1283 50.4603 56.2461C50.5802 56.4345 50.8113 56.7668 50.8113 56.7668C50.8113 56.7668 50.6987 56.6963 50.5492 56.6066C49.8263 55.936 49.1127 55.2837 48.4029 54.6427C48.7056 54.9937 49.2471 55.6097 49.6168 55.9367C49.7776 56.0799 49.9173 56.2045 50.0362 56.3103C49.9315 56.2535 49.844 56.2094 49.7875 56.1907C49.3367 55.8863 48.8188 55.5306 48.2801 55.1511C46.572 53.9471 43.2114 50.8443 40.5289 48.0196C43.6174 51.5996 46.9671 54.7884 50.3767 56.8078C50.2807 56.7721 50.1855 56.7438 50.1117 56.7364C47.8225 55.6792 45.3157 54.526 42.8459 53.4702C43.7522 53.9862 45.1591 54.647 45.4544 54.7891C46.7455 55.41 48.1393 55.9082 48.6368 56.159C49.131 56.4116 49.9823 56.7678 49.9823 56.7678C49.9823 56.7678 49.8309 56.7544 49.5801 56.7311L49.4965 56.7058C49.4478 56.6902 49.4009 56.6764 49.3533 56.661C49.2732 56.6366 49.1927 56.613 49.1116 56.5882C49.0647 56.5738 49.0171 56.559 48.9684 56.5441C48.8862 56.5192 48.8022 56.4948 48.7154 56.469C48.671 56.4553 48.6255 56.4415 48.5803 56.4295C48.4911 56.4037 48.4004 56.3759 48.3097 56.3498C48.266 56.3381 48.2254 56.3244 48.1817 56.3121C48.0864 56.2856 47.9908 56.2592 47.8949 56.2316C47.8554 56.2193 47.8141 56.2076 47.7774 56.1981C47.6761 56.1689 47.5738 56.141 47.4701 56.1099C47.4338 56.1004 47.3996 56.0909 47.3646 56.0803C47.2574 56.0507 47.1498 56.0204 47.0411 55.9907C47.0083 55.9815 46.9762 55.9734 46.9441 55.9643C46.8305 55.9331 46.7148 55.9018 46.5995 55.8697L46.525 55.8496C46.3984 55.815 46.2714 55.7807 46.1444 55.7463L46.1077 55.7359C45.9694 55.6993 45.8283 55.6605 45.6872 55.6228L45.6854 55.622C45.5358 55.5832 45.3859 55.5434 45.2328 55.5021C46.518 55.9107 48.0889 56.4062 48.9765 56.6771C47.3833 56.5312 44.4299 56.2578 44.1455 56.2119C45.9489 56.5231 47.8959 56.8843 49.8828 57.1592C49.6129 57.2169 49.1973 57.3058 48.8209 57.3838C47.1304 57.4011 45.4759 57.4261 43.8319 57.455C43.8824 57.4554 46.8962 57.5405 47.8356 57.5556C47.6881 57.5751 47.4518 57.6145 47.0503 57.7056C47.9785 57.6818 48.8862 57.6304 49.7681 57.5493H49.7819C49.7819 57.5493 49.3621 57.7189 48.9853 57.8989C48.5955 57.9803 48.2226 58.0577 47.8635 58.131C48.1044 58.114 48.3563 58.0954 48.5937 58.0773C48.1517 58.2678 47.6828 58.4467 47.4825 58.5043C48.073 58.3374 48.6325 58.1782 49.1349 58.034C49.5709 57.9991 49.8849 57.9704 49.8849 57.9704L49.8507 58.0011C49.0022 58.3462 48.1531 58.699 47.3068 59.0545C47.359 59.0493 47.3907 59.0436 47.3907 59.0436C47.6303 58.9889 48.5235 58.6866 49.3017 58.417C49.1493 58.5215 48.9655 58.6397 48.7507 58.7628C48.4875 58.9149 47.8084 59.3261 47.1025 59.8127C48.048 59.2987 49.0142 58.7497 50.038 58.1617C50.3576 58.0509 50.5696 57.9754 50.5696 57.9754C50.5058 58.0523 48.3528 59.8007 48.1266 59.9604C47.9855 60.0631 46.9967 60.888 46.2975 61.4728C48.2992 60.0007 50.1138 58.4919 51.4181 57.3725L51.4218 57.3697L51.4473 57.3627L51.4375 57.3616L51.4851 57.3394C53.1347 56.8487 55.2182 56.1904 57.3606 55.3557C57.319 55.3042 56.3505 55.6471 55.2343 56.0281C53.9195 56.4792 52.4267 56.9858 52.3833 56.9993C52.258 57.0409 51.9716 57.1366 51.8283 57.1823C51.8283 57.1823 51.8569 57.1542 51.9162 57.1052C53.9662 56.0319 56.7224 54.4035 59.4656 52.5127C59.2931 52.5483 58.5543 53.0179 57.61 53.5815C56.6639 54.1457 56.1559 54.4924 55.699 54.7465C55.0795 55.0928 53.0214 56.1784 53.0214 56.1784L53.9898 55.1113C55.687 53.6249 57.0712 52.4315 58.3416 51.2773Z" fill="#4A6732"/>
<path d="M50.8917 57.5688C51.3235 58.475 52.3176 59.9024 52.8232 60.6443C53.4952 61.6303 55.2461 63.0569 56.0162 63.7875C55.3625 63.4524 53.6797 61.5301 53.0874 60.8637C52.6147 60.3533 51.1136 58.2285 50.8917 57.5688Z" fill="#688C39"/>
</svg>
