<svg width="140" height="80" viewBox="0 0 140 80" fill="none" xmlns="http://www.w3.org/2000/svg">
<path fill-rule="evenodd" clip-rule="evenodd" d="M83.1415 39.1001C83.2286 36.8538 83.8015 34.9139 84.8627 33.2864C85.9216 31.6522 87.2512 30.4318 88.8538 29.6191C90.46 28.8069 92.1057 28.3975 93.7847 28.3975C95.3095 28.3975 96.6809 28.717 97.9012 29.3502C99.1268 29.9804 99.9947 30.8723 100.531 32.0121V29.0458H105.19V47.2949C105.19 49.1029 104.882 50.7205 104.267 52.1393C103.644 53.5572 102.794 54.7624 101.709 55.7443C100.624 56.7346 99.4116 57.47 98.0682 57.9616C96.7226 58.451 95.309 58.6942 93.8243 58.6942C92.3588 58.6942 90.9324 58.4318 89.5316 57.906C88.132 57.3785 86.8984 56.5932 85.8277 55.5558C84.7522 54.5223 83.9329 53.2499 83.3678 51.7476H89.0699C89.5024 52.2907 90.17 52.7452 91.0671 53.1141C91.9618 53.4819 92.9063 53.6649 93.8938 53.6649C95.6482 53.6649 97.1526 53.1396 98.4237 52.0887C99.6909 51.0423 100.392 49.4098 100.531 47.212C99.6881 48.4043 98.6705 49.3011 97.4659 49.9047C96.2635 50.5063 95.0152 50.8063 93.7174 50.8063C91.9528 50.8063 90.257 50.318 88.6252 49.3401C86.9911 48.3546 85.6659 46.9724 84.6574 45.1813C83.646 43.3814 83.1415 41.3595 83.1415 39.1001ZM94.2153 45.8937C95.4812 45.8937 96.5813 45.5982 97.5218 45.0068C98.4607 44.418 99.1726 43.6405 99.6483 42.673C100.126 41.7023 100.364 40.6989 100.364 39.6404C100.364 38.7856 100.205 37.9763 99.8818 37.2118C99.5581 36.4481 99.1144 35.7768 98.5548 35.1863C97.9866 34.598 97.3357 34.1374 96.5941 33.8069C95.8502 33.4806 95.0624 33.3149 94.2153 33.3149C92.9393 33.3149 91.8385 33.6168 90.9191 34.2189C89.9959 34.82 89.2975 35.6094 88.8275 36.5812C88.3565 37.5546 88.1239 38.5993 88.1239 39.7146C88.1322 40.7545 88.3893 41.7481 88.8839 42.6854C89.3796 43.6153 90.0919 44.3759 91.0192 44.9528C91.9528 45.5314 93.0154 45.8419 94.2153 45.8937ZM27.109 31.1651V22H32.2406V50.198H27.6459V47.1407C27.1726 47.9458 26.5039 48.6377 25.6293 49.2168C24.754 49.7963 23.8559 50.2142 22.9316 50.482C22.0086 50.7507 21.2075 50.8821 20.5215 50.8821C18.7372 50.8821 17.0353 50.3836 15.4111 49.3877C13.7845 48.3917 12.4779 47.0239 11.4871 45.3054C10.4956 43.5813 10 41.7194 10 39.7255C10 37.4393 10.5134 35.4504 11.5343 33.7561C12.5543 32.0575 13.891 30.746 15.5214 29.8192C17.1493 28.8977 18.8487 28.3973 20.6114 28.3222C21.6477 28.3222 22.5528 28.4467 23.32 28.6987C24.0886 28.9421 24.7431 29.2661 25.2866 29.6514C25.8316 30.0408 26.4394 30.5421 27.109 31.1651ZM15.0924 39.4132C15.1059 40.6818 15.3988 41.7957 15.9641 42.7643C16.5375 43.7365 17.2672 44.4919 18.156 45.0272C19.0467 45.5664 19.9995 45.853 21.0188 45.8939C22.0456 45.8939 23.0314 45.6453 23.9785 45.1466C24.9245 44.655 25.7168 43.9153 26.344 42.9238C26.9781 41.9352 27.3312 40.7676 27.4033 39.4132C27.4033 38.2915 27.1112 37.2705 26.5243 36.3494C25.9357 35.4236 25.1543 34.7014 24.1737 34.1618C23.1972 33.6227 22.1986 33.3536 21.1838 33.3536C20.2075 33.3658 19.2421 33.6387 18.3026 34.1732C17.3519 34.7017 16.5826 35.4321 15.9824 36.367C15.3886 37.3 15.0924 38.3183 15.0924 39.4132ZM35.7856 39.3999C35.7856 37.8203 36.1992 36.1904 37.0194 34.4932C37.8461 32.8019 39.0859 31.3584 40.7494 30.1725C42.4144 28.9901 44.4199 28.3975 46.7721 28.3975C48.1546 28.3975 49.4926 28.6569 50.7841 29.171C52.0684 29.6902 53.2297 30.4318 54.2741 31.3978C55.3106 32.3667 56.1411 33.5524 56.7581 34.9493C57.3759 36.3454 57.6839 37.866 57.6839 39.5056C57.6839 40.1745 57.6261 40.9571 57.5042 41.8534H41.1507C41.4469 43.0755 42.1339 44.06 43.21 44.7974C44.2888 45.5421 45.4979 45.9298 46.848 45.9645C47.747 45.9298 48.5955 45.7503 49.3705 45.4325C50.1497 45.1085 50.8166 44.6638 51.3753 44.0921H56.9597C56.4451 45.4107 55.7192 46.5652 54.791 47.5631C53.8593 48.5619 52.7462 49.3532 51.4353 49.9365C50.1232 50.5198 48.6723 50.8319 47.0894 50.8823C45.5183 50.8823 44.0504 50.599 42.6897 50.029C41.3314 49.4592 40.1248 48.6748 39.0845 47.675C38.0356 46.6736 37.2146 45.5407 36.6165 44.2635C36.026 42.9946 35.7251 41.6965 35.7135 40.3664C35.7626 40.1063 35.7856 39.7842 35.7856 39.3999ZM46.8482 33.3147C45.3512 33.3536 44.1107 33.7713 43.1249 34.5733C42.1417 35.3741 41.4587 36.3176 41.075 37.3922H52.6753C52.4474 36.7483 52.0869 36.1127 51.5775 35.4858C51.0727 34.859 50.4049 34.3389 49.5763 33.9296C48.7413 33.5198 47.835 33.3147 46.8482 33.3147ZM61.1137 29.0458H65.7961V31.1675C67.4523 29.2699 69.43 28.3224 71.7189 28.3224C73.1456 28.3224 74.4762 28.7046 75.7086 29.4686C76.955 30.2302 77.9434 31.3294 78.6918 32.7618C79.4412 34.192 79.8164 35.8609 79.8164 37.773V50.198H74.7591V39.1339C74.7591 37.8327 74.5663 36.7549 74.1736 35.9068C73.7849 35.0606 73.2682 34.4359 72.6248 34.0335C71.9819 33.6351 71.2885 33.4295 70.5498 33.4295C69.7815 33.4295 69.0617 33.6165 68.3937 33.99C67.7274 34.357 67.1902 34.8854 66.7847 35.5633C66.3728 36.2489 66.1672 37.0143 66.1672 37.8662V50.198H61.1137V29.0458ZM107.945 39.3999C107.945 37.8203 108.362 36.1904 109.184 34.4932C110.006 32.8019 111.249 31.3584 112.911 30.1725C114.576 28.9901 116.583 28.3975 118.932 28.3975C120.321 28.3975 121.655 28.6569 122.939 29.171C124.232 29.6902 125.393 30.4318 126.433 31.3978C127.474 32.3667 128.3 33.5524 128.917 34.9493C129.54 36.3454 129.848 37.866 129.848 39.5056C129.848 40.1745 129.785 40.9571 129.665 41.8534H113.312C113.607 43.0755 114.295 44.06 115.371 44.7974C116.447 45.5421 117.662 45.9298 119.007 45.9645C119.915 45.9298 120.755 45.7503 121.532 45.4325C122.312 45.1085 122.981 44.6638 123.535 44.0921H129.125C128.605 45.4107 127.881 46.5652 126.954 47.5631C126.021 48.5619 124.903 49.3532 123.594 49.9365C122.284 50.5198 120.832 50.8319 119.25 50.8823C117.683 50.8823 116.212 50.599 114.858 50.029C113.493 49.4592 112.289 48.6748 111.243 47.675C110.197 46.6736 109.373 45.5407 108.782 44.2635C108.186 42.9946 107.887 41.6965 107.873 40.3664C107.923 40.1063 107.945 39.7842 107.945 39.3999ZM119.006 33.3147C117.511 33.3536 116.274 33.7713 115.287 34.5733C114.307 35.3741 113.62 36.3176 113.237 37.3922H124.834C124.612 36.7483 124.246 36.1127 123.742 35.4858C123.234 34.859 122.568 34.3389 121.738 33.9296C120.909 33.5198 120 33.3147 119.006 33.3147ZM127.358 22.0761C127.798 22.0761 128.234 22.1911 128.658 22.4181C129.08 22.6449 129.41 22.9741 129.646 23.3989C129.881 23.8246 130 24.2691 130 24.7286C130 25.1923 129.884 25.6235 129.65 26.0476C129.419 26.4695 129.091 26.7971 128.674 27.0298C128.253 27.2601 127.817 27.378 127.358 27.378C126.899 27.378 126.459 27.2601 126.039 27.0298C125.614 26.7971 125.293 26.4698 125.06 26.0476C124.823 25.6235 124.709 25.1923 124.709 24.7286C124.709 24.2689 124.827 23.8246 125.064 23.3989C125.3 22.9741 125.631 22.6449 126.057 22.4181C126.479 22.1911 126.911 22.0761 127.358 22.0761ZM127.358 22.5149C126.983 22.5149 126.62 22.6102 126.271 22.8027C125.919 22.9955 125.645 23.2627 125.443 23.6214C125.249 23.9763 125.146 24.3476 125.146 24.7288C125.146 25.1144 125.247 25.4788 125.438 25.8289C125.635 26.1812 125.907 26.4505 126.257 26.6469C126.607 26.8465 126.974 26.9445 127.358 26.9445C127.738 26.9445 128.104 26.8465 128.452 26.6469C128.802 26.4505 129.078 26.1814 129.27 25.8289C129.462 25.4788 129.555 25.1144 129.555 24.7288C129.555 24.3476 129.462 23.9763 129.268 23.6214C129.072 23.2627 128.794 22.9955 128.44 22.8027C128.085 22.6102 127.729 22.5149 127.358 22.5149ZM126.195 26.1938H126.657V24.9836H126.921C127.086 24.9836 127.206 25.0136 127.293 25.0828C127.415 25.1729 127.572 25.3939 127.773 25.7434L128.023 26.194H128.586L128.241 25.6409C128.073 25.3675 127.934 25.1867 127.822 25.0723C127.758 25.0117 127.677 24.9625 127.571 24.9183C127.822 24.9 128.021 24.8168 128.165 24.6568C128.32 24.5049 128.388 24.3238 128.388 24.1158C128.388 23.9658 128.345 23.8268 128.254 23.6986C128.165 23.5674 128.047 23.4697 127.9 23.4217C127.75 23.3673 127.507 23.3406 127.173 23.3406H126.195V26.1938ZM126.657 24.5917H127.213C127.48 24.5917 127.661 24.5465 127.758 24.469C127.856 24.3903 127.903 24.2857 127.903 24.1536C127.903 24.068 127.879 23.9948 127.834 23.9254C127.784 23.8641 127.722 23.8113 127.639 23.779C127.552 23.7452 127.401 23.7295 127.178 23.7295H126.657V24.5917Z" fill="black"/>
</svg>