<svg width="402" height="546" viewBox="0 0 402 546" fill="none" xmlns="http://www.w3.org/2000/svg">
<g filter="url(#filter0_d)">
<rect x="28" y="37.3462" width="342" height="467.308" fill="white"/>
<path d="M38.8818 28L49.7636 37.3462H28L38.8818 28Z" fill="white"/>
<path d="M209.882 28L220.764 37.3462H199L209.882 28Z" fill="white"/>
<path d="M124.382 28L135.264 37.3462H113.5L124.382 28Z" fill="white"/>
<path d="M295.382 28L306.264 37.3462H284.5L295.382 28Z" fill="white"/>
<path d="M80.8545 28L91.7364 37.3462H69.9727L80.8545 28Z" fill="white"/>
<path d="M251.855 28L262.736 37.3462H240.973L251.855 28Z" fill="white"/>
<path d="M166.355 28L177.236 37.3462H155.473L166.355 28Z" fill="white"/>
<path d="M337.355 28L348.236 37.3462H326.473L337.355 28Z" fill="white"/>
<path d="M60.6455 28L71.5273 37.3462H49.7636L60.6455 28Z" fill="white"/>
<path d="M231.645 28L242.527 37.3462H220.764L231.645 28Z" fill="white"/>
<path d="M146.145 28L157.027 37.3462H135.264L146.145 28Z" fill="white"/>
<path d="M317.145 28L328.027 37.3462H306.264L317.145 28Z" fill="white"/>
<path d="M102.618 28L113.5 37.3462H91.7364L102.618 28Z" fill="white"/>
<path d="M273.618 28L284.5 37.3462H262.736L273.618 28Z" fill="white"/>
<path d="M188.118 28L199 37.3462H177.236L188.118 28Z" fill="white"/>
<path d="M359.118 28L370 37.3462H348.236L359.118 28Z" fill="white"/>
<path d="M38.8818 514L49.7636 504.654H28L38.8818 514Z" fill="white"/>
<path d="M209.882 514L220.764 504.654H199L209.882 514Z" fill="white"/>
<path d="M124.382 514L135.264 504.654H113.5L124.382 514Z" fill="white"/>
<path d="M295.382 514L306.264 504.654H284.5L295.382 514Z" fill="white"/>
<path d="M80.8545 514L91.7364 504.654H69.9727L80.8545 514Z" fill="white"/>
<path d="M251.855 514L262.736 504.654H240.973L251.855 514Z" fill="white"/>
<path d="M166.355 514L177.236 504.654H155.473L166.355 514Z" fill="white"/>
<path d="M337.355 514L348.236 504.654H326.473L337.355 514Z" fill="white"/>
<path d="M60.6455 514L71.5273 504.654H49.7636L60.6455 514Z" fill="white"/>
<path d="M231.645 514L242.527 504.654H220.764L231.645 514Z" fill="white"/>
<path d="M146.145 514L157.027 504.654H135.264L146.145 514Z" fill="white"/>
<path d="M317.145 514L328.027 504.654H306.264L317.145 514Z" fill="white"/>
<path d="M102.618 514L113.5 504.654H91.7364L102.618 514Z" fill="white"/>
<path d="M273.618 514L284.5 504.654H262.736L273.618 514Z" fill="white"/>
<path d="M188.118 514L199 504.654H177.236L188.118 514Z" fill="white"/>
<path d="M359.118 514L370 504.654H348.236L359.118 514Z" fill="white"/>
<rect x="276.727" y="68.5" width="62.1818" height="62.3077" rx="8" fill="#ED1C23"/>
<path d="M322.159 80.1826C322.159 80.1826 310.271 85.3499 305.202 97.9305C300.134 110.511 307.691 118.727 307.691 118.727H296.264C296.264 118.727 289.813 110.204 293.314 97.4593C296.817 84.7135 305.388 80.1826 305.388 80.1826" fill="white"/>
<path d="M307.216 100.453L308.519 96.4604H321.514L317.183 118.726H309.164L313.035 100.453" fill="white"/>
<path d="M323.195 91.7008C322.598 94.1314 320.598 95.8437 318.728 95.5242C316.858 95.206 315.826 92.9773 316.423 90.5466C317.019 88.1172 319.019 86.4049 320.889 86.7244C322.759 87.0426 323.791 89.2713 323.195 91.7008Z" fill="white"/>
<rect x="59.0909" y="79.4038" width="111.927" height="17.1346" rx="6" fill="#92979B"/>
<rect x="59.0909" y="102.769" width="73.0636" height="17.1346" rx="6" fill="#92979B"/>
<rect x="59.0909" y="174.423" width="73.0636" height="10.9038" rx="5.45192" fill="#E1E1E1"/>
<rect x="208.327" y="174.423" width="57.5182" height="10.9038" rx="5.45192" fill="#E1E1E1"/>
<rect x="281.391" y="174.423" width="57.5182" height="10.9038" rx="5.45192" fill="#E1E1E1"/>
<rect x="320.255" y="224.269" width="18.6545" height="10.9039" rx="5.45193" fill="#E1E1E1"/>
<rect x="59.0909" y="224.269" width="121.255" height="10.9039" rx="5.45193" fill="#E1E1E1"/>
<rect x="320.255" y="244.519" width="18.6545" height="10.9038" rx="5.45191" fill="#E1E1E1"/>
<rect x="59.0909" y="244.519" width="96.3818" height="10.9038" rx="5.45191" fill="#E1E1E1"/>
<rect x="320.255" y="264.769" width="18.6545" height="10.9038" rx="5.45192" fill="#E1E1E1"/>
<rect x="282.945" y="409.635" width="55.9636" height="10.9038" rx="5.45192" fill="#E1E1E1"/>
<rect x="301.6" y="429.885" width="37.3091" height="10.9038" rx="5.45192" fill="#E1E1E1"/>
<rect x="59.0909" y="264.769" width="146.127" height="10.9038" rx="5.45192" fill="#E1E1E1"/>
<rect x="59.0909" y="409.635" width="146.127" height="10.9038" rx="5.45192" fill="#E1E1E1"/>
<rect x="59.0909" y="429.885" width="96.3818" height="10.9038" rx="5.45192" fill="#E1E1E1"/>
</g>
<defs>
<filter id="filter0_d" x="0" y="0" width="402" height="546" filterUnits="userSpaceOnUse" color-interpolation-filters="sRGB">
<feFlood flood-opacity="0" result="BackgroundImageFix"/>
<feColorMatrix in="SourceAlpha" type="matrix" values="0 0 0 0 0 0 0 0 0 0 0 0 0 0 0 0 0 0 127 0"/>
<feOffset dx="2" dy="2"/>
<feGaussianBlur stdDeviation="15"/>
<feColorMatrix type="matrix" values="0 0 0 0 0 0 0 0 0 0 0 0 0 0 0 0 0 0 0.1 0"/>
<feBlend mode="normal" in2="BackgroundImageFix" result="effect1_dropShadow"/>
<feBlend mode="normal" in="SourceGraphic" in2="effect1_dropShadow" result="shape"/>
</filter>
</defs>
</svg>
