<svg width="128" height="28" viewBox="0 0 128 28" fill="none" xmlns="http://www.w3.org/2000/svg">
<path d="M5.07206 19.3998V19.4718C5.26736 20.6376 5.8798 21.6926 6.79526 22.4402C7.71074 23.1879 8.8668 23.5774 10.0481 23.5358C11.9121 23.5358 13.2481 22.9758 14.1761 21.7678H18.6561C18.0268 23.5282 16.8532 25.0425 15.3055 26.0911C13.7578 27.1397 11.9163 27.6682 10.0481 27.5998C4.54406 27.5998 0.664062 23.4638 0.664062 17.8158C0.664062 12.1678 4.54406 8.03984 10.0481 8.03984C15.5521 8.03984 19.3601 12.1758 19.3601 17.8158V19.4158L5.07206 19.3998ZM5.17606 15.7518V15.8238H14.9121V15.7518C14.647 14.6758 14.0179 13.7245 13.1313 13.0595C12.2447 12.3946 11.1553 12.057 10.0481 12.1038C8.93944 12.055 7.84821 12.3918 6.95994 13.057C6.07169 13.722 5.44131 14.6743 5.17606 15.7518Z" fill="#8331A7"/>
<path d="M20.9443 27.112V0.399994H25.1443V27.112H20.9443Z" fill="#8331A7"/>
<path d="M28.04 27.112V0.399994H32.232V27.112H28.04Z" fill="#8331A7"/>
<path d="M59.6081 27.1118H55.7601V23.6478H55.6961C55.1956 24.86 54.3348 25.8891 53.2302 26.5959C52.1255 27.3028 50.8304 27.6532 49.5201 27.5998C45.3601 27.5998 40.9121 24.3998 40.9121 17.8158C40.9121 12.2158 44.7921 8.03984 50.2961 8.03984C55.8001 8.03984 59.6081 11.9998 59.6081 17.9678V27.1118ZM55.4081 17.8158C55.4081 14.5438 53.3681 12.2158 50.2961 12.2158C47.2241 12.2158 45.1441 14.5438 45.1441 17.8158C45.1441 21.0878 47.2241 23.4158 50.2961 23.4158C53.3681 23.4158 55.4081 21.0878 55.4081 17.8158Z" fill="#8331A7"/>
<path d="M79.2963 17.672C79.2963 23.688 75.4803 27.6 69.9763 27.6C64.4723 27.6 60.5923 23.464 60.5923 17.816C60.5923 11.232 65.0403 8.03999 69.2003 8.03999C70.3564 7.99497 71.5037 8.25607 72.5264 8.79695C73.5491 9.33775 74.4108 10.1392 75.0243 11.12H75.0963V0.399994H79.2963V17.672ZM75.0963 17.816C75.0963 14.544 73.0483 12.216 69.9763 12.216C66.9043 12.216 64.8003 14.544 64.8003 17.816C64.8003 21.088 66.8803 23.416 69.9443 23.416C73.0083 23.416 75.0963 21.088 75.0963 17.816Z" fill="#8331A7"/>
<path d="M98.9758 27.1118H95.1278V23.6478H95.0638C94.563 24.86 93.7022 25.8891 92.5982 26.5959C91.4934 27.3028 90.1982 27.6532 88.8878 27.5998C84.7278 27.5998 80.2798 24.3998 80.2798 17.8158C80.2798 12.2158 84.1598 8.03984 89.6638 8.03984C95.1678 8.03984 98.9758 11.9998 98.9758 17.9678V27.1118ZM94.7758 17.8158C94.7758 14.5438 92.7358 12.2158 89.6638 12.2158C86.5918 12.2158 84.5118 14.5438 84.5118 17.8158C84.5118 21.0878 86.5918 23.4158 89.6638 23.4158C92.7358 23.4158 94.7758 21.0878 94.7758 17.8158Z" fill="#8331A7"/>
<path d="M111.92 27.1118V16.5038C111.92 13.4878 110.408 12.2158 108.392 12.2158C106.376 12.2158 104.864 13.4558 104.864 16.5038V27.1118H100.672V16.5038C100.672 10.6718 103.872 8.03985 107.968 8.03985C109.169 7.99619 110.361 8.27697 111.417 8.85273C112.473 9.42849 113.353 10.2779 113.968 11.3118H114.04C114.644 10.2782 115.517 9.42785 116.567 8.85169C117.617 8.27545 118.803 7.99485 120 8.03985C124.128 8.03985 127.304 10.6718 127.304 16.5038V27.1118H123.112V16.5038C123.112 13.4558 121.624 12.2158 119.584 12.2158C117.544 12.2158 116.088 13.4878 116.088 16.5038V27.1118H111.92Z" fill="#8331A7"/>
<path d="M35.0239 27.1122V7.59218H39.4319V27.1122H35.0239Z" fill="#8331A7"/>
<path d="M35.024 2.61584C35.0059 2.31523 35.0494 2.01411 35.152 1.73096C35.2546 1.44783 35.414 1.18866 35.6204 0.969402C35.8269 0.750143 36.076 0.575434 36.3524 0.456015C36.6289 0.336597 36.9269 0.274994 37.228 0.274994C37.5291 0.274994 37.8271 0.336597 38.1036 0.456015C38.38 0.575434 38.6291 0.750143 38.8356 0.969402C39.042 1.18866 39.2015 1.44783 39.304 1.73096C39.4066 2.01411 39.4502 2.31523 39.432 2.61584C39.3982 3.17742 39.1512 3.7049 38.7416 4.09057C38.332 4.47623 37.7906 4.69099 37.228 4.69099C36.6654 4.69099 36.124 4.47623 35.7144 4.09057C35.3048 3.7049 35.0578 3.17742 35.024 2.61584Z" fill="#8331A7"/>
<path d="M124.68 5.72017C124.152 5.72175 123.636 5.56666 123.197 5.27454C122.758 4.98243 122.414 4.56645 122.212 4.07934C122.01 3.59223 121.956 3.05593 122.058 2.53842C122.161 2.02091 122.415 1.5455 122.788 1.17245C123.161 0.799402 123.637 0.545518 124.154 0.442982C124.671 0.340446 125.208 0.393876 125.695 0.596499C126.182 0.799122 126.598 1.14181 126.89 1.58113C127.182 2.02044 127.338 2.5366 127.336 3.06417C127.334 3.76794 127.053 4.44227 126.555 4.93991C126.058 5.43755 125.383 5.71806 124.68 5.72017ZM124.68 0.84817C124.241 0.846586 123.812 0.97521 123.446 1.21774C123.081 1.46027 122.796 1.80581 122.626 2.21059C122.458 2.61536 122.413 3.06118 122.498 3.49156C122.582 3.92195 122.793 4.31755 123.102 4.62827C123.412 4.93899 123.806 5.15083 124.237 5.23699C124.666 5.32315 125.113 5.27973 125.518 5.11224C125.923 4.94475 126.27 4.66073 126.514 4.29614C126.758 3.93155 126.888 3.50279 126.888 3.06417C126.888 2.47783 126.655 1.91539 126.242 1.50004C125.828 1.08469 125.266 0.85029 124.68 0.84817Z" fill="#8331A7"/>
<path d="M125.368 4.65586L124.688 3.57586H124.112V4.65586H123.488V1.45586H124.8C125.6 1.45586 125.968 1.89586 125.968 2.51186C125.983 2.72658 125.926 2.94034 125.806 3.11879C125.685 3.29725 125.509 3.43005 125.304 3.49586L126.104 4.63986L125.368 4.65586ZM124.8 2.99986C125.192 2.99986 125.328 2.79186 125.328 2.51986C125.328 2.24786 125.192 2.04786 124.8 2.04786H124.08V2.99986H124.8Z" fill="#8331A7"/>
</svg>
