<svg width="480" height="480" viewBox="0 0 480 480" fill="none" xmlns="http://www.w3.org/2000/svg">
<path d="M267.139 22.41C322.352 32.6206 356.65 83.8375 387.585 130.613C414.616 171.487 433.054 217.26 428.233 265.999C423.397 314.894 398.071 358.111 361.797 391.324C322.932 426.91 275.758 456.436 223.081 453.841C168.146 451.134 117.035 421.471 83.9246 377.633C51.915 335.253 48.3285 280.678 52.3196 227.753C56.4529 172.943 66.7012 116.644 106.473 78.6269C149.081 37.8979 209.13 11.6823 267.139 22.41Z" fill="#F7EDFB"/>
<path d="M381.445 366.811C392.576 372.332 400.101 383.056 403.771 394.982C407.389 406.739 406.694 419.492 401.011 430.391C395.391 441.169 385.441 449.036 373.822 452.42C362.56 455.699 350.577 453.692 340.263 448.082C330.211 442.613 322.858 433.498 319.088 422.644C315.225 411.52 314.538 399.26 319.622 388.645C324.809 377.813 334.772 370.334 346.048 366.352C357.622 362.264 370.442 361.354 381.445 366.811Z" fill="#FFFCDD"/>
<g clip-path="url(#clip0)">
<path d="M236 358C172.75 358 121 306.25 121 243C121 179.75 172.75 128 236 128C299.25 128 351 179.75 351 243C351 306.25 299.25 358 236 358ZM236 139.5C178.5 139.5 132.5 185.5 132.5 243C132.5 300.5 178.5 346.5 236 346.5C293.5 346.5 339.5 300.5 339.5 243C339.5 185.5 293.5 139.5 236 139.5Z" fill="#986EA9"/>
<path d="M236 317.75C194.6 317.75 161.25 284.4 161.25 243C161.25 201.6 194.6 168.25 236 168.25C277.4 168.25 310.75 201.6 310.75 243C310.75 284.4 277.4 317.75 236 317.75ZM236 179.75C201.5 179.75 172.75 208.5 172.75 243C172.75 277.5 201.5 306.25 236 306.25C270.5 306.25 299.25 277.5 299.25 243C299.25 208.5 270.5 179.75 236 179.75Z" fill="#986EA9"/>
<path d="M236 277.5C216.45 277.5 201.5 262.55 201.5 243C201.5 223.45 216.45 208.5 236 208.5C255.55 208.5 270.5 223.45 270.5 243C270.5 262.55 255.55 277.5 236 277.5ZM236 220C223.35 220 213 230.35 213 243C213 255.65 223.35 266 236 266C248.65 266 259 255.65 259 243C259 230.35 248.65 220 236 220Z" fill="#986EA9"/>
<path d="M236 248.75C234.85 248.75 232.55 248.75 231.4 247.6C229.1 245.3 229.1 241.85 231.4 239.55L317.65 153.3C319.95 151 323.4 151 325.7 153.3C328 155.6 328 159.05 325.7 161.35L239.45 247.6C239.45 248.75 237.15 248.75 236 248.75V248.75Z" fill="#986EA9"/>
<path d="M351 162.5H322.25C318.8 162.5 316.5 160.2 316.5 156.75V128C316.5 126.85 317.65 124.55 317.65 123.4L357.9 83.15C360.2 82 362.5 82 364.8 82C367.1 83.15 368.25 85.45 368.25 87.75V110.75H391.25C393.55 110.75 395.85 111.9 397 114.2C397 116.5 397 118.8 395.85 121.1L355.6 161.35C354.45 161.35 352.15 162.5 351 162.5V162.5ZM328 151H348.7L377.45 122.25H362.5C359.05 122.25 356.75 119.95 356.75 116.5V101.55L328 130.3V151Z" fill="#986EA9"/>
</g>
<defs>
<clipPath id="clip0">
<rect width="276" height="276" fill="white" transform="translate(121 82)"/>
</clipPath>
</defs>
</svg>
