<svg width="480" height="480" viewBox="0 0 480 480" fill="none" xmlns="http://www.w3.org/2000/svg">
<path d="M267.139 22.41C322.352 32.6206 356.65 83.8375 387.585 130.613C414.616 171.487 433.054 217.26 428.233 265.999C423.397 314.894 398.071 358.111 361.797 391.324C322.932 426.91 275.758 456.436 223.081 453.841C168.146 451.134 117.035 421.471 83.9246 377.633C51.915 335.253 48.3285 280.678 52.3196 227.753C56.4529 172.943 66.7012 116.644 106.473 78.6269C149.081 37.8979 209.13 11.6823 267.139 22.41Z" fill="#D3FFE2"/>
<path d="M361.476 355.27H150.254C149.229 355.27 148.245 354.863 147.521 354.138C146.796 353.414 146.389 352.43 146.389 351.405V286.588C146.389 285.563 146.796 284.58 147.521 283.855C148.245 283.13 149.229 282.723 150.254 282.723H195.109V261.957C195.109 260.932 195.516 259.949 196.241 259.224C196.966 258.499 197.949 258.092 198.974 258.092H250.79V233.438C250.79 232.413 251.197 231.43 251.922 230.705C252.647 229.98 253.63 229.573 254.655 229.573H301.215V203.621C301.215 202.596 301.622 201.613 302.347 200.888C303.072 200.163 304.055 199.756 305.08 199.756H361.476C362.501 199.756 363.484 200.163 364.209 200.888C364.934 201.613 365.341 202.596 365.341 203.621V351.405C365.341 352.43 364.934 353.414 364.209 354.138C363.484 354.863 362.501 355.27 361.476 355.27ZM154.118 347.541H357.611V207.486H308.945V233.438C308.945 234.463 308.538 235.446 307.813 236.171C307.088 236.896 306.105 237.303 305.08 237.303H258.52V261.957C258.52 262.982 258.113 263.965 257.388 264.69C256.663 265.415 255.68 265.822 254.655 265.822H202.839V286.588C202.839 287.613 202.432 288.596 201.707 289.321C200.982 290.045 199.999 290.453 198.974 290.453H154.118V347.541Z" fill="#1E7C3E"/>
<path d="M165.323 281.355C162.894 281.349 160.516 280.663 158.458 279.375C156.4 278.087 154.743 276.248 153.677 274.066C152.61 271.885 152.176 269.448 152.424 267.033C152.671 264.617 153.59 262.319 155.077 260.399L179.758 226.447L187.298 164.446L181.257 167.109L173.586 180.578C172.137 183.189 169.715 185.12 166.849 185.953C163.982 186.786 160.902 186.453 158.28 185.025C155.659 183.598 153.707 181.192 152.851 178.332C151.994 175.473 152.303 172.39 153.709 169.757L164.217 149.547C165.354 147.359 167.081 145.533 169.203 144.276L192.095 130.722C194.429 129.348 197.049 128.53 199.751 128.333C202.453 128.136 205.164 128.565 207.674 129.585L229.383 138.475C232.552 139.767 235.271 141.964 237.201 144.79L244.757 155.82L260.054 151.372C262.929 150.561 266.007 150.899 268.638 152.313C271.269 153.727 273.248 156.108 274.159 158.953C275.069 161.798 274.839 164.885 273.517 167.564C272.195 170.243 269.885 172.304 267.073 173.312L246.342 180.532C244.132 181.293 241.759 181.455 239.466 181.002C237.173 180.548 235.04 179.495 233.286 177.95L229.692 174.781L228.482 186.704C234.121 189.647 238.751 194.21 241.774 199.807C244.797 205.403 246.076 211.777 245.445 218.106L242.79 253.277C242.657 255.01 242.181 256.7 241.391 258.249C240.6 259.797 239.509 261.173 238.183 262.297C236.856 263.421 235.32 264.271 233.663 264.797C232.005 265.323 230.26 265.515 228.528 265.361C226.796 265.208 225.112 264.712 223.573 263.903C222.034 263.094 220.671 261.987 219.563 260.648C218.454 259.308 217.623 257.762 217.117 256.098C216.61 254.435 216.439 252.688 216.613 250.958L218.932 219.266C219.025 218.363 218.855 217.452 218.441 216.644C218.027 215.835 217.388 215.164 216.6 214.712C215.813 214.26 214.912 214.045 214.005 214.095C213.098 214.145 212.226 214.456 211.492 214.991C210.981 215.362 210.55 215.832 210.226 216.374C209.901 216.917 209.691 217.519 209.606 218.145L207.608 233.438C207.23 236.227 206.052 238.847 204.219 240.982L175.286 276.767C174.054 278.204 172.526 279.358 170.806 280.15C169.086 280.942 167.216 281.353 165.323 281.355V281.355ZM191.955 154.297C192.503 154.297 193.043 154.413 193.542 154.638C194.041 154.862 194.487 155.19 194.85 155.599C195.213 156.009 195.484 156.491 195.647 157.013C195.81 157.536 195.859 158.087 195.793 158.63L187.291 228.367C187.212 229.021 186.968 229.644 186.579 230.176L161.237 265.03C160.788 265.595 160.458 266.246 160.268 266.943C160.078 267.64 160.032 268.368 160.132 269.084C160.222 269.778 160.45 270.447 160.803 271.051C161.156 271.655 161.627 272.182 162.188 272.601C163.261 273.402 164.597 273.767 165.929 273.624C167.26 273.481 168.488 272.839 169.365 271.828L198.251 236.093L198.336 235.993C199.209 234.987 199.769 233.749 199.948 232.429L201.95 217.136C202.174 215.479 202.73 213.884 203.586 212.447C204.441 211.011 205.577 209.761 206.927 208.774C208.277 207.787 209.812 207.083 211.441 206.703C213.069 206.324 214.758 206.277 216.405 206.566C219.465 207.118 222.21 208.791 224.103 211.259C225.995 213.727 226.9 216.812 226.639 219.911L224.32 251.603C224.186 253.013 224.611 254.419 225.502 255.52C226.394 256.621 227.682 257.328 229.089 257.489C229.805 257.572 230.531 257.511 231.223 257.309C231.916 257.108 232.561 256.77 233.121 256.316C233.681 255.861 234.144 255.299 234.484 254.663C234.823 254.027 235.033 253.33 235.099 252.612L237.754 217.441C238.283 212.357 237.183 207.235 234.613 202.816C232.042 198.397 228.135 194.908 223.454 192.853L222.967 192.652C222.176 192.347 221.508 191.791 221.065 191.069C220.621 190.347 220.427 189.499 220.513 188.656L222.762 166.491C222.834 165.784 223.1 165.11 223.53 164.544C223.96 163.979 224.538 163.542 225.2 163.283C225.861 163.024 226.582 162.953 227.282 163.077C227.982 163.201 228.634 163.516 229.166 163.987L238.399 172.138C239.127 172.777 240.011 173.213 240.961 173.401C241.911 173.589 242.894 173.522 243.81 173.208L264.541 165.989C265.469 165.657 266.231 164.978 266.667 164.094C267.103 163.211 267.178 162.193 266.877 161.255C266.576 160.317 265.922 159.533 265.054 159.068C264.185 158.604 263.17 158.495 262.223 158.765L244.212 163.998C243.433 164.222 242.603 164.195 241.84 163.921C241.077 163.647 240.42 163.14 239.961 162.472L230.824 149.13C229.744 147.552 228.224 146.325 226.453 145.601L204.744 136.712C203.342 136.14 201.826 135.9 200.316 136.011C198.805 136.121 197.341 136.58 196.037 137.35L173.157 150.927C172.276 151.449 171.56 152.206 171.089 153.115L160.58 173.32C160.161 174.153 160.081 175.116 160.359 176.007C160.637 176.897 161.251 177.644 162.07 178.09C162.889 178.536 163.849 178.645 164.748 178.396C165.646 178.146 166.412 177.557 166.884 176.752L175.186 162.178C175.596 161.458 176.228 160.888 176.987 160.555L190.413 154.634C190.899 154.417 191.424 154.302 191.955 154.297V154.297Z" fill="#1E7C3E"/>
<path d="M226.689 134.27C220.458 134.266 214.473 131.837 210.001 127.499C205.529 123.16 202.921 117.251 202.729 111.023C202.538 104.795 204.777 98.7366 208.973 94.1306C213.17 89.5247 218.994 86.7325 225.213 86.3452C231.553 85.9647 237.786 88.115 242.543 92.3242C247.301 96.5334 250.194 102.458 250.588 108.798C250.983 115.137 248.847 121.375 244.648 126.141C240.449 130.908 234.531 133.815 228.192 134.223C227.69 134.254 227.188 134.27 226.689 134.27ZM225.692 94.075C222.483 94.2746 219.405 95.4214 216.848 97.3702C214.291 99.3191 212.369 101.982 211.325 105.024C210.282 108.065 210.164 111.347 210.986 114.455C211.808 117.564 213.533 120.358 215.944 122.486C218.354 124.614 221.341 125.979 224.528 126.409C227.714 126.839 230.956 126.314 233.844 124.901C236.732 123.488 239.137 121.251 240.753 118.472C242.37 115.692 243.125 112.496 242.925 109.287C242.809 107.151 242.268 105.06 241.336 103.135C240.403 101.209 239.097 99.489 237.493 98.0734C235.889 96.6578 234.02 95.5752 231.994 94.8888C229.968 94.2024 227.826 93.9257 225.692 94.075Z" fill="#1E7C3E"/>
<path d="M381.445 366.811C392.576 372.332 400.101 383.056 403.771 394.982C407.389 406.739 406.694 419.492 401.011 430.391C395.391 441.169 385.441 449.036 373.822 452.42C362.56 455.699 350.577 453.692 340.263 448.082C330.211 442.613 322.858 433.498 319.088 422.644C315.225 411.52 314.538 399.26 319.622 388.645C324.809 377.813 334.772 370.334 346.048 366.352C357.622 362.264 370.442 361.354 381.445 366.811Z" fill="#FFFCDD"/>
</svg>
