<svg width="560" height="400" viewBox="0 0 560 400" fill="none" xmlns="http://www.w3.org/2000/svg">
<rect width="560" height="400" rx="6" fill="#EEF4F7"/>
<path d="M0 6C0 2.68629 2.68629 0 6 0H554C557.314 0 560 2.68629 560 6V86H0V6Z" fill="#2F373E"/>
<rect width="48" height="9" rx="4" transform="matrix(1 0 0 -1 482 24)" fill="#4F575E"/>
<rect width="9" height="9" rx="4" transform="matrix(1 0 0 -1 468 24)" fill="#4F575E"/>
<rect width="9" height="9" rx="4" transform="matrix(1 0 0 -1 456 24)" fill="#4F575E"/>
<path d="M30 56C30 52.6863 32.6863 50 36 50H134C137.314 50 140 52.6863 140 56V86H30V56Z" fill="#4F575E"/>
<g clip-path="url(#clip0)">
<path d="M30 141C30 144.314 32.6863 147 36 147H524C527.314 147 530 144.314 530 141V86H30V141Z" fill="white"/>
<rect width="48" height="9" rx="4" transform="matrix(1 0 0 -1 45 110)" fill="#E1E1E1"/>
<rect width="174" height="9" rx="4" transform="matrix(1 0 0 -1 45 134)" fill="#8331A7"/>
<rect width="48" height="9" rx="4" transform="matrix(1 0 0 -1 297 110)" fill="#E1E1E1"/>
<rect width="48" height="9" rx="4" transform="matrix(1 0 0 -1 171 110)" fill="#E1E1E1"/>
<rect width="48" height="9" rx="4" transform="matrix(1 0 0 -1 423 110)" fill="#E1E1E1"/>
<rect width="48" height="9" rx="4" transform="matrix(1 0 0 -1 108 110)" fill="#E1E1E1"/>
<rect width="48" height="9" rx="4" transform="matrix(1 0 0 -1 360 110)" fill="#E1E1E1"/>
<rect width="48" height="9" rx="4" transform="matrix(1 0 0 -1 234 110)" fill="#E1E1E1"/>
<rect width="48" height="9" rx="4" transform="matrix(1 0 0 -1 486 110)" fill="#E1E1E1"/>
</g>
<g clip-path="url(#clip1)">
<path d="M30 163C30 159.686 32.6863 157 36 157H524C527.314 157 530 159.686 530 163V400H30V163Z" fill="white"/>
<g clip-path="url(#clip2)">
<path d="M81.3308 332.726H103.405C107.215 332.726 110.303 329.605 110.303 325.754C110.303 321.904 107.215 318.783 103.405 318.783H81.3308C77.5211 318.783 74.4325 321.904 74.4325 325.754C74.4325 329.605 77.5211 332.726 81.3308 332.726Z" fill="#E1E1E1"/>
<path d="M81.3308 273.235H235.851C239.661 273.235 242.75 270.113 242.75 266.263C242.75 262.413 239.661 259.292 235.851 259.292H81.3308C77.5211 259.292 74.4325 262.413 74.4325 266.263C74.4325 270.113 77.5211 273.235 81.3308 273.235Z" fill="#E1E1E1"/>
<path d="M265.284 273.235H294.716C298.526 273.235 301.614 270.113 301.614 266.263C301.614 262.413 298.526 259.292 294.716 259.292H265.284C261.474 259.292 258.385 262.413 258.385 266.263C258.385 270.113 261.474 273.235 265.284 273.235Z" fill="#E1E1E1"/>
<path d="M390.372 273.235H478.669C482.479 273.235 485.568 270.113 485.568 266.263C485.568 262.413 482.479 259.292 478.669 259.292H390.372C386.562 259.292 383.474 262.413 383.474 266.263C383.474 270.113 386.562 273.235 390.372 273.235Z" fill="#5ED887"/>
<path d="M390.372 318.783C388.56 318.783 386.776 319.526 385.497 320.828C384.209 322.12 383.474 323.923 383.474 325.754C383.474 327.586 384.209 329.389 385.497 330.681C386.776 331.982 388.56 332.726 390.372 332.726C392.184 332.726 393.968 331.982 395.247 330.681C396.534 329.389 397.27 327.586 397.27 325.754C397.27 323.923 396.534 322.12 395.247 320.828C393.968 319.526 392.184 318.783 390.372 318.783Z" fill="#DD2D57"/>
<path d="M395.247 380.319C393.968 379.018 392.184 378.274 390.372 378.274C388.56 378.274 386.776 379.018 385.497 380.319C384.209 381.611 383.474 383.414 383.474 385.246C383.474 387.077 384.209 388.88 385.497 390.172C386.776 391.474 388.56 392.217 390.372 392.217C392.184 392.217 393.968 391.474 395.247 390.172C396.534 388.88 397.27 387.077 397.27 385.246C397.27 383.414 396.534 381.611 395.247 380.319Z" fill="#DD2D57"/>
<path d="M424.679 320.828C423.401 319.526 421.625 318.783 419.804 318.783C417.983 318.783 416.208 319.526 414.929 320.828C413.642 322.12 412.906 323.923 412.906 325.754C412.906 327.586 413.642 329.389 414.929 330.681C416.208 331.982 417.992 332.726 419.804 332.726C421.616 332.726 423.401 331.982 424.679 330.681C425.967 329.389 426.702 327.586 426.702 325.754C426.702 323.923 425.967 322.12 424.679 320.828Z" fill="#DD2D57"/>
<path d="M176.986 213.744H383.014C386.823 213.744 389.912 210.622 389.912 206.772C389.912 202.922 386.823 199.8 383.014 199.8H176.986C173.177 199.8 170.088 202.922 170.088 206.772C170.088 210.622 173.177 213.744 176.986 213.744Z" fill="#E1E1E1"/>
<path d="M81.3308 392.217H103.405C107.215 392.217 110.303 389.096 110.303 385.246C110.303 381.395 107.215 378.274 103.405 378.274H81.3308C77.5211 378.274 74.4325 381.395 74.4325 385.246C74.4325 389.096 77.5211 392.217 81.3308 392.217Z" fill="#E1E1E1"/>
<path d="M243.209 378.274H228.493C224.683 378.274 221.595 381.395 221.595 385.246C221.595 389.096 224.683 392.217 228.493 392.217H243.209C247.019 392.217 250.108 389.096 250.108 385.246C250.108 381.395 247.019 378.274 243.209 378.274Z" fill="#E1E1E1"/>
<path d="M228.493 332.726H243.209C247.019 332.726 250.108 329.605 250.108 325.754C250.108 321.904 247.019 318.783 243.209 318.783H228.493C224.683 318.783 221.595 321.904 221.595 325.754C221.595 329.605 224.683 332.726 228.493 332.726Z" fill="#E1E1E1"/>
<path d="M272.642 332.726H302.074C305.884 332.726 308.973 329.605 308.973 325.754C308.973 321.904 305.884 318.783 302.074 318.783H272.642C268.832 318.783 265.744 321.904 265.744 325.754C265.744 329.605 268.832 332.726 272.642 332.726Z" fill="#E1E1E1"/>
<path d="M324.149 378.274H272.642C268.832 378.274 265.744 381.395 265.744 385.246C265.744 389.096 268.832 392.217 272.642 392.217H324.149C327.958 392.217 331.047 389.096 331.047 385.246C331.047 381.395 327.958 378.274 324.149 378.274Z" fill="#E1E1E1"/>
<path d="M478.669 172H81.3307C61.2982 172 45 188.432 45 208.629V505.371C45 525.568 61.2982 542 81.3307 542H478.669C498.702 542 515 525.568 515 505.371V208.629C515 188.432 498.702 172 478.669 172ZM205.959 468.742V423.303H354.041V468.742H205.959ZM354.041 482.652V528.09H205.959V482.652H354.041ZM501.204 245.258V290.697H367.838V245.258H501.204ZM354.041 304.607V350.045H205.959V304.607H354.041ZM192.162 350.045H58.7965V304.607H192.162V350.045ZM192.162 363.955V409.393H58.7965V363.955H192.162ZM205.959 363.955H354.041V409.393H205.959V363.955ZM367.838 363.955H501.204V409.393H367.838V363.955ZM367.838 350.045V304.607H501.204V350.045H367.838ZM354.041 290.697H58.7965V245.258H354.041V290.697ZM58.7965 423.303H192.162V468.742H58.7965V423.303ZM367.838 423.303H501.204V468.742H367.838V423.303ZM81.3307 185.91H478.669C491.094 185.91 501.204 196.102 501.204 208.629V231.348H58.7965V208.629C58.7965 196.102 68.9056 185.91 81.3307 185.91ZM58.7965 505.371V482.652H192.162V528.09H81.3307C68.9056 528.09 58.7965 517.898 58.7965 505.371ZM478.669 528.09H367.838V482.652H501.204V505.371C501.204 517.898 491.094 528.09 478.669 528.09Z" fill="#E1E1E1"/>
</g>
</g>
<path d="M145 56C145 52.6863 147.686 50 151 50H264C267.314 50 270 52.6863 270 56V86H145V56Z" fill="white"/>
<path d="M275 56C275 52.6863 277.686 50 281 50H337C340.314 50 343 52.6863 343 56V86H275V56Z" fill="#4F575E"/>
<path d="M348 56C348 52.6863 350.686 50 354 50H467C470.314 50 473 52.6863 473 56V86H348V56Z" fill="#4F575E"/>
<defs>
<clipPath id="clip0">
<path d="M30 141C30 144.314 32.6863 147 36 147H524C527.314 147 530 144.314 530 141V86H30V141Z" fill="white"/>
</clipPath>
<clipPath id="clip1">
<path d="M30 163C30 159.686 32.6863 157 36 157H524C527.314 157 530 159.686 530 163V400H30V163Z" fill="white"/>
</clipPath>
<clipPath id="clip2">
<rect width="470" height="475" fill="white" transform="translate(45 118)"/>
</clipPath>
</defs>
</svg>
