<svg width="64" height="64" viewBox="0 0 64 64" fill="none" xmlns="http://www.w3.org/2000/svg">
<path d="M32 32.5C32 30.3783 32.8429 28.3434 34.3431 26.8431C35.8434 25.3429 37.8783 24.5 40 24.5C42.1217 24.5 44.1566 25.3429 45.6569 26.8431C47.1571 28.3434 48 30.3783 48 32.5C48 34.6217 47.1571 36.6566 45.6569 38.1569C44.1566 39.6571 42.1217 40.5 40 40.5C37.8783 40.5 35.8434 39.6571 34.3431 38.1569C32.8429 36.6566 32 34.6217 32 32.5Z" fill="#1ABCFE"/>
<path d="M16 48.5C16 46.3783 16.8429 44.3434 18.3431 42.8431C19.8434 41.3429 21.8783 40.5 24 40.5H32V48.5C32 50.6217 31.1571 52.6566 29.6569 54.1569C28.1566 55.6571 26.1217 56.5 24 56.5C21.8783 56.5 19.8434 55.6571 18.3431 54.1569C16.8429 52.6566 16 50.6217 16 48.5V48.5Z" fill="#0ACF83"/>
<path d="M32 8.5V24.5H40C42.1217 24.5 44.1566 23.6571 45.6569 22.1569C47.1571 20.6566 48 18.6217 48 16.5C48 14.3783 47.1571 12.3434 45.6569 10.8431C44.1566 9.34285 42.1217 8.5 40 8.5H32Z" fill="#FF7262"/>
<path d="M16 16.5C16 18.6217 16.8429 20.6566 18.3431 22.1569C19.8434 23.6571 21.8783 24.5 24 24.5H32V8.5H24C21.8783 8.5 19.8434 9.34285 18.3431 10.8431C16.8429 12.3434 16 14.3783 16 16.5V16.5Z" fill="#F24E1E"/>
<path d="M16 32.5C16 34.6217 16.8429 36.6566 18.3431 38.1569C19.8434 39.6571 21.8783 40.5 24 40.5H32V24.5H24C21.8783 24.5 19.8434 25.3429 18.3431 26.8431C16.8429 28.3434 16 30.3783 16 32.5V32.5Z" fill="#A259FF"/>
</svg>
