<svg width="128" height="128" viewBox="0 0 128 128" fill="none" xmlns="http://www.w3.org/2000/svg">
  <path d="M101.655 76H26.3448C18.4224 76 12 69.6324 12 61.7778V44H103.448L116 56.4444V61.7778C116 69.6324 109.578 76 101.655 76Z" fill="#E9686A"/>
  <path d="M35 44H12V21H20.8462L35 44Z" fill="#B11E48"/>
  <path d="M58.6429 112.214H44.3572V65.7858H80.0715L58.6429 112.214Z" fill="#FDBD40"/>
  <path d="M58.6429 15.7858H44.3572V44.3572H76.5L58.6429 15.7858Z" fill="#FDBD40"/>
  <path d="M30.0714 51.5H44.3571V58.6429H30.0714V51.5Z" fill="#F4F4E6"/>
  <path d="M51.5 51.5H65.7857V58.6429H51.5V51.5Z" fill="#F4F4E6"/>
  <path d="M72.9285 51.5H87.2142V58.6429H72.9285V51.5Z" fill="#F4F4E6"/>
  <path d="M97.9285 58.6429H115.786V56.8571L110.428 51.5H97.9285V58.6429Z" fill="#F4F4E6"/>
  <path d="M24.7142 15.7858H38.9999V19.3572H24.7142V15.7858Z" fill="#AABECE"/>
  <path d="M31.8571 22.9286H38.9999V26.5H31.8571V22.9286Z" fill="#AABECE"/>
  <path d="M24.7142 99.7144H38.9999V103.286H24.7142V99.7144Z" fill="#AABECE"/>
  <path d="M31.8571 106.857H38.9999V110.429H31.8571V106.857Z" fill="#AABECE"/>
  <path d="M44.2 50H29.8C28.8059 50 28 50.7462 28 51.6667V58.3333C28 59.2537 28.8059 60 29.8 60H44.2C45.194 60 46 59.2537 46 58.3333V51.6667C46 50.7462 45.194 50 44.2 50ZM42.4 56.6667H31.6V53.3333H42.4V56.6667Z" fill="black"/>
  <path d="M66.2 50H51.8C50.8059 50 50 50.7462 50 51.6667V58.3333C50 59.2537 50.8059 60 51.8 60H66.2C67.194 60 68 59.2537 68 58.3333V51.6667C68 50.7462 67.194 50 66.2 50ZM64.4 56.6667H53.6V53.3333H64.4V56.6667Z" fill="black"/>
  <path d="M87.2 50H72.8C71.8059 50 71 50.7462 71 51.6667V58.3333C71 59.2537 71.8059 60 72.8 60H87.2C88.194 60 89 59.2537 89 58.3333V51.6667C89 50.7462 88.194 50 87.2 50ZM85.4 56.6667H74.6V53.3333H85.4V56.6667Z" fill="black"/>
  <path d="M117.473 55.5946L104.873 43.0946C104.535 42.7598 104.077 42.5714 103.6 42.5714H77.5972L60.1264 14.8393C59.7974 14.3172 59.2205 14 58.6 14H44.2C43.2059 14 42.4 14.7996 42.4 15.7857V42.5714H36.2062L22.3336 20.2071C22.006 19.6788 21.4253 19.3569 20.8 19.3571H11.8C10.8059 19.3571 10 20.1567 10 21.1429V62.2143C10.0099 71.0862 17.2572 78.2759 26.2 78.2857H42.4V112.214C42.4 113.2 43.2059 114 44.2 114H58.6C59.3022 114 59.9401 113.595 60.2344 112.962L76.3678 78.2857H101.8C110.743 78.2759 117.99 71.0862 118 62.2143V56.8571C118 56.3835 117.81 55.9295 117.473 55.5946ZM113.655 56.8571H100V53.2857H110.055L113.655 56.8571ZM46 17.5714H57.601L73.36 42.5714H46V17.5714ZM13.6 22.9286H19.7938L31.978 42.5714H13.6V22.9286ZM57.448 110.429H46V67.5714H77.3866L57.448 110.429ZM101.8 74.7143H78.0292L81.8344 66.5339C82.2509 65.6384 81.8569 64.5775 80.9542 64.1643C80.7177 64.056 80.4603 64 80.2 64H44.2C43.2059 64 42.4 64.7996 42.4 65.7857V74.7143H26.2C19.2446 74.7065 13.6079 69.1145 13.6 62.2143V46.1429H102.855L106.455 49.7143H98.2C97.2059 49.7143 96.4 50.5138 96.4 51.5V58.6429C96.4 59.629 97.2059 60.4286 98.2 60.4286H114.4V62.2143C114.392 69.1145 108.755 74.7065 101.8 74.7143Z" fill="black"/>
  <path d="M25 16H39V19H25V16Z" fill="black"/>
  <path d="M32 23H39V27H32V23Z" fill="black"/>
  <path d="M25 100H39V103H25V100Z" fill="black"/>
  <path d="M32 107H39V110H32V107Z" fill="black"/>
</svg>
