<svg width="18" height="18" viewBox="0 0 18 18" fill="none" xmlns="http://www.w3.org/2000/svg">
<path d="M0.138176 7.84645C-0.446074 11.526 1.18893 15.9637 6.23043 17.601C6.32043 17.6175 6.40368 17.625 6.48168 17.625C7.06818 17.625 7.47167 17.1885 7.47167 16.65C7.39892 16.2577 7.75892 14.6685 6.78167 14.8822C4.89243 15.2842 4.66593 14.229 4.37793 13.677C5.19243 14.7225 6.41643 14.6962 7.33968 14.2912C7.85193 14.0662 7.58418 13.4932 7.82718 13.284C8.19917 12.9645 8.01018 12.3517 7.52193 12.2985C5.78643 12.1072 4.17918 11.5477 4.17918 8.77195C4.17918 7.14595 5.30793 7.00045 4.99668 6.3202C4.98543 6.29545 4.74693 5.7547 4.96293 4.93345C6.02718 5.12995 6.51693 5.89345 7.02768 5.7562C8.29292 5.4112 9.68568 5.4112 10.9502 5.7562C11.4782 5.89795 11.8554 5.15545 13.0037 4.92895C13.3344 6.16945 12.6489 6.47245 13.0809 6.9367C13.5549 7.4467 13.7957 8.06395 13.7957 8.77195C13.7957 12.945 10.2579 11.7397 9.96992 12.687C9.90392 12.903 9.97367 13.1362 10.1462 13.281C10.6037 13.6657 10.5437 14.6535 10.4949 15.4477C10.4447 16.2712 10.4012 16.9815 10.8564 17.382C11.0169 17.5245 11.3027 17.6767 11.8194 17.5717C16.7949 15.9735 18.4419 11.5552 17.8667 7.88395C16.2947 -2.14205 1.72218 -2.13005 0.138176 7.84645ZM6.34068 16.08L6.34368 16.4587C5.95143 16.323 5.58243 16.1662 5.23743 15.9915C5.55618 16.0732 5.92218 16.1085 6.34068 16.08ZM6.61818 13.305C6.61443 13.3245 6.61068 13.3447 6.60693 13.365C5.96718 13.554 5.47518 13.3657 5.13918 12.801C5.13918 12.8002 5.13918 12.8002 5.13843 12.7995C5.64843 13.0725 6.17418 13.2195 6.61818 13.305ZM9.00018 1.49995C17.8749 1.49995 19.8767 13.7002 11.6019 16.4557C11.5734 16.233 11.5997 15.813 11.6177 15.5167C11.6612 14.8035 11.7122 13.9725 11.4579 13.278C15.2739 12.4837 15.5927 8.29345 14.1234 6.4267C14.3057 5.7127 14.2322 4.03495 13.5767 3.82945C13.4222 3.7807 12.5979 3.60145 10.9989 4.6072C9.69318 4.2952 8.28393 4.29445 6.97818 4.6072C6.18018 4.10695 4.38168 3.2932 4.03668 4.1572C3.63618 5.1637 3.73143 5.97745 3.85068 6.4297C2.54643 8.0827 2.93718 10.8502 4.25118 12.1492C3.50643 11.793 2.48043 11.6715 2.25918 12.3847C2.01693 13.1625 2.94318 13.068 3.51843 14.4877C3.57318 14.6647 3.67443 14.8725 3.82968 15.0787C-1.27857 10.905 1.18593 1.49995 9.00018 1.49995Z" fill="black"/>
</svg>