<svg width="64" height="64" viewBox="0 0 64 64" fill="none" xmlns="http://www.w3.org/2000/svg">
<g clip-path="url(#clip0)">
<path d="M12.38 21.24C11.6067 21.24 10.9133 21.1133 10.3 20.86C9.7 20.6067 9.18667 20.2467 8.76 19.78C8.34667 19.3133 8.02667 18.7467 7.8 18.08C7.58667 17.4133 7.48 16.6667 7.48 15.84C7.48 15.0133 7.58667 14.2667 7.8 13.6C8.02667 12.9333 8.34667 12.3667 8.76 11.9C9.18667 11.4333 9.7 11.0733 10.3 10.82C10.9133 10.5667 11.6 10.44 12.36 10.44C13.4267 10.44 14.28 10.6667 14.92 11.12C15.5733 11.5733 16.06 12.16 16.38 12.88L14.68 13.8C14.4933 13.32 14.2067 12.94 13.82 12.66C13.4467 12.38 12.96 12.24 12.36 12.24C11.5333 12.24 10.8933 12.4933 10.44 13C9.98667 13.4933 9.76 14.1533 9.76 14.98V16.7C9.76 17.5133 9.98667 18.1733 10.44 18.68C10.8933 19.1867 11.5467 19.44 12.4 19.44C13.04 19.44 13.56 19.2933 13.96 19C14.3733 18.7067 14.7 18.3067 14.94 17.8L16.54 18.78C16.2067 19.5 15.7 20.0933 15.02 20.56C14.34 21.0133 13.46 21.24 12.38 21.24ZM23.9922 21.24C23.2322 21.24 22.5455 21.1133 21.9322 20.86C21.3322 20.6067 20.8189 20.2467 20.3922 19.78C19.9789 19.3133 19.6589 18.7467 19.4322 18.08C19.2055 17.4133 19.0922 16.6667 19.0922 15.84C19.0922 15.0133 19.2055 14.2667 19.4322 13.6C19.6589 12.9333 19.9789 12.3667 20.3922 11.9C20.8189 11.4333 21.3322 11.0733 21.9322 10.82C22.5455 10.5667 23.2322 10.44 23.9922 10.44C24.7522 10.44 25.4322 10.5667 26.0322 10.82C26.6455 11.0733 27.1589 11.4333 27.5722 11.9C27.9989 12.3667 28.3255 12.9333 28.5522 13.6C28.7789 14.2667 28.8922 15.0133 28.8922 15.84C28.8922 16.6667 28.7789 17.4133 28.5522 18.08C28.3255 18.7467 27.9989 19.3133 27.5722 19.78C27.1589 20.2467 26.6455 20.6067 26.0322 20.86C25.4322 21.1133 24.7522 21.24 23.9922 21.24ZM23.9922 19.52C24.7922 19.52 25.4255 19.28 25.8922 18.8C26.3722 18.3067 26.6122 17.58 26.6122 16.62V15.06C26.6122 14.1 26.3722 13.38 25.8922 12.9C25.4255 12.4067 24.7922 12.16 23.9922 12.16C23.1922 12.16 22.5522 12.4067 22.0722 12.9C21.6055 13.38 21.3722 14.1 21.3722 15.06V16.62C21.3722 17.58 21.6055 18.3067 22.0722 18.8C22.5522 19.28 23.1922 19.52 23.9922 19.52ZM31.6644 21V10.68H33.8444V12.44H33.9444C34.051 12.1733 34.1844 11.92 34.3444 11.68C34.5177 11.4267 34.7244 11.2133 34.9644 11.04C35.2044 10.8533 35.4844 10.7067 35.8044 10.6C36.1244 10.4933 36.4977 10.44 36.9244 10.44C37.9644 10.44 38.8044 10.78 39.4444 11.46C40.0844 12.14 40.4044 13.1067 40.4044 14.36V21H38.2244V14.68C38.2244 13.04 37.511 12.22 36.0844 12.22C35.8044 12.22 35.531 12.26 35.2644 12.34C34.9977 12.4067 34.7577 12.5133 34.5444 12.66C34.331 12.8067 34.1577 12.9933 34.0244 13.22C33.9044 13.4467 33.8444 13.7067 33.8444 14V21H31.6644ZM12.02 38.24C10.9 38.24 9.93333 38.06 9.12 37.7C8.32 37.34 7.67333 36.86 7.18 36.26L8.52 35.06C8.97333 35.5533 9.48 35.9333 10.04 36.2C10.6133 36.4533 11.2867 36.58 12.06 36.58C12.7667 36.58 13.3333 36.46 13.76 36.22C14.2 35.98 14.42 35.6067 14.42 35.1C14.42 34.8867 14.38 34.7067 14.3 34.56C14.22 34.4133 14.1067 34.2933 13.96 34.2C13.8133 34.1067 13.64 34.0333 13.44 33.98C13.2533 33.9267 13.0533 33.8867 12.84 33.86L11.2 33.6C10.8 33.5467 10.3933 33.46 9.98 33.34C9.56667 33.22 9.19333 33.0533 8.86 32.84C8.54 32.6133 8.27333 32.3267 8.06 31.98C7.86 31.6333 7.76 31.1933 7.76 30.66C7.76 29.6067 8.16 28.8067 8.96 28.26C9.77333 27.7133 10.84 27.44 12.16 27.44C13.12 27.44 13.9467 27.5867 14.64 27.88C15.3467 28.16 15.9333 28.5533 16.4 29.06L15.18 30.34C14.9133 30.0333 14.5333 29.7533 14.04 29.5C13.5467 29.2333 12.8933 29.1 12.08 29.1C10.6267 29.1 9.9 29.56 9.9 30.48C9.9 30.92 10.0533 31.2267 10.36 31.4C10.68 31.56 11.0533 31.6667 11.48 31.72L13.12 31.98C13.5333 32.0467 13.94 32.1333 14.34 32.24C14.7533 32.3467 15.12 32.5133 15.44 32.74C15.7733 32.9533 16.04 33.2333 16.24 33.58C16.4533 33.9267 16.56 34.3667 16.56 34.9C16.56 35.94 16.1533 36.76 15.34 37.36C14.54 37.9467 13.4333 38.24 12.02 38.24ZM23.9922 38.24C23.2322 38.24 22.5455 38.1133 21.9322 37.86C21.3322 37.6067 20.8189 37.2467 20.3922 36.78C19.9789 36.3133 19.6589 35.7467 19.4322 35.08C19.2055 34.4133 19.0922 33.6667 19.0922 32.84C19.0922 32.0133 19.2055 31.2667 19.4322 30.6C19.6589 29.9333 19.9789 29.3667 20.3922 28.9C20.8189 28.4333 21.3322 28.0733 21.9322 27.82C22.5455 27.5667 23.2322 27.44 23.9922 27.44C24.7522 27.44 25.4322 27.5667 26.0322 27.82C26.6455 28.0733 27.1589 28.4333 27.5722 28.9C27.9989 29.3667 28.3255 29.9333 28.5522 30.6C28.7789 31.2667 28.8922 32.0133 28.8922 32.84C28.8922 33.6667 28.7789 34.4133 28.5522 35.08C28.3255 35.7467 27.9989 36.3133 27.5722 36.78C27.1589 37.2467 26.6455 37.6067 26.0322 37.86C25.4322 38.1133 24.7522 38.24 23.9922 38.24ZM23.9922 36.52C24.7922 36.52 25.4255 36.28 25.8922 35.8C26.3722 35.3067 26.6122 34.58 26.6122 33.62V32.06C26.6122 31.1 26.3722 30.38 25.8922 29.9C25.4255 29.4067 24.7922 29.16 23.9922 29.16C23.1922 29.16 22.5522 29.4067 22.0722 29.9C21.6055 30.38 21.3722 31.1 21.3722 32.06V33.62C21.3722 34.58 21.6055 35.3067 22.0722 35.8C22.5522 36.28 23.1922 36.52 23.9922 36.52ZM31.4844 36.24H34.9044V24.96H31.4844V23.2H37.0844V36.24H40.5044V38H31.4844V36.24ZM48.1966 38.24C47.4099 38.24 46.7032 38.1133 46.0766 37.86C45.4499 37.6067 44.9232 37.2467 44.4966 36.78C44.0699 36.3133 43.7432 35.7533 43.5166 35.1C43.2899 34.4333 43.1766 33.6867 43.1766 32.86C43.1766 32.0333 43.2899 31.2867 43.5166 30.62C43.7566 29.9533 44.0832 29.3867 44.4966 28.92C44.9232 28.44 45.4366 28.0733 46.0366 27.82C46.6366 27.5667 47.3032 27.44 48.0366 27.44C48.7566 27.44 49.4099 27.5667 49.9966 27.82C50.5832 28.06 51.0832 28.4067 51.4966 28.86C51.9099 29.3133 52.2232 29.8533 52.4366 30.48C52.6632 31.1067 52.7766 31.8 52.7766 32.56V33.38H45.3766V33.72C45.3766 34.5333 45.6299 35.2 46.1366 35.72C46.6432 36.2267 47.3432 36.48 48.2366 36.48C48.9032 36.48 49.4699 36.34 49.9366 36.06C50.4166 35.7667 50.8032 35.38 51.0966 34.9L52.4566 36.1C52.1099 36.7 51.5766 37.2067 50.8566 37.62C50.1499 38.0333 49.2632 38.24 48.1966 38.24ZM48.0366 29.1C47.6499 29.1 47.2899 29.1667 46.9566 29.3C46.6366 29.4333 46.3566 29.6267 46.1166 29.88C45.8899 30.12 45.7099 30.4067 45.5766 30.74C45.4432 31.0733 45.3766 31.44 45.3766 31.84V31.98H50.5566V31.78C50.5566 30.9667 50.3232 30.32 49.8566 29.84C49.4032 29.3467 48.7966 29.1 48.0366 29.1ZM7.5 53.24H10.92V41.96H7.5V40.2H13.1V53.24H16.52V55H7.5V53.24ZM23.9922 55.24C23.2322 55.24 22.5455 55.1133 21.9322 54.86C21.3322 54.6067 20.8189 54.2467 20.3922 53.78C19.9789 53.3133 19.6589 52.7467 19.4322 52.08C19.2055 51.4133 19.0922 50.6667 19.0922 49.84C19.0922 49.0133 19.2055 48.2667 19.4322 47.6C19.6589 46.9333 19.9789 46.3667 20.3922 45.9C20.8189 45.4333 21.3322 45.0733 21.9322 44.82C22.5455 44.5667 23.2322 44.44 23.9922 44.44C24.7522 44.44 25.4322 44.5667 26.0322 44.82C26.6455 45.0733 27.1589 45.4333 27.5722 45.9C27.9989 46.3667 28.3255 46.9333 28.5522 47.6C28.7789 48.2667 28.8922 49.0133 28.8922 49.84C28.8922 50.6667 28.7789 51.4133 28.5522 52.08C28.3255 52.7467 27.9989 53.3133 27.5722 53.78C27.1589 54.2467 26.6455 54.6067 26.0322 54.86C25.4322 55.1133 24.7522 55.24 23.9922 55.24ZM23.9922 53.52C24.7922 53.52 25.4255 53.28 25.8922 52.8C26.3722 52.3067 26.6122 51.58 26.6122 50.62V49.06C26.6122 48.1 26.3722 47.38 25.8922 46.9C25.4255 46.4067 24.7922 46.16 23.9922 46.16C23.1922 46.16 22.5522 46.4067 22.0722 46.9C21.6055 47.38 21.3722 48.1 21.3722 49.06V50.62C21.3722 51.58 21.6055 52.3067 22.0722 52.8C22.5522 53.28 23.1922 53.52 23.9922 53.52ZM41.3844 56.12C41.3844 57.1867 40.9377 57.9733 40.0444 58.48C39.151 58.9867 37.791 59.24 35.9644 59.24C35.071 59.24 34.3177 59.18 33.7044 59.06C33.1044 58.9533 32.611 58.7933 32.2244 58.58C31.851 58.3667 31.5777 58.1067 31.4044 57.8C31.2444 57.4933 31.1644 57.1467 31.1644 56.76C31.1644 56.2 31.3177 55.76 31.6244 55.44C31.9444 55.1333 32.391 54.9067 32.9644 54.76V54.56C32.6177 54.4267 32.3377 54.24 32.1244 54C31.9244 53.76 31.8244 53.4467 31.8244 53.06C31.8244 52.5533 31.9977 52.1733 32.3444 51.92C32.691 51.6533 33.1377 51.4533 33.6844 51.32V51.22C33.0577 50.9267 32.571 50.5133 32.2244 49.98C31.8777 49.4467 31.7044 48.8067 31.7044 48.06C31.7044 47.5133 31.8044 47.02 32.0044 46.58C32.2044 46.1267 32.4844 45.7467 32.8444 45.44C33.2177 45.12 33.6577 44.8733 34.1644 44.7C34.6844 44.5267 35.2644 44.44 35.9044 44.44C36.6244 44.44 37.271 44.5533 37.8444 44.78V44.44C37.8444 44.04 37.9577 43.7067 38.1844 43.44C38.411 43.1733 38.7577 43.04 39.2244 43.04H41.1044V44.76H38.7044V45.24C39.1577 45.5467 39.5044 45.94 39.7444 46.42C39.9844 46.8867 40.1044 47.4333 40.1044 48.06C40.1044 48.6067 40.0044 49.1067 39.8044 49.56C39.6044 50 39.3177 50.38 38.9444 50.7C38.5844 51.0067 38.1444 51.2467 37.6244 51.42C37.1177 51.58 36.5444 51.66 35.9044 51.66C35.451 51.66 35.0244 51.62 34.6244 51.54C34.3844 51.6067 34.1444 51.72 33.9044 51.88C33.6644 52.04 33.5444 52.26 33.5444 52.54C33.5444 52.86 33.6977 53.06 34.0044 53.14C34.311 53.22 34.691 53.26 35.1444 53.26H37.4644C38.851 53.26 39.851 53.5267 40.4644 54.06C41.0777 54.58 41.3844 55.2667 41.3844 56.12ZM39.3444 56.26C39.3444 55.9133 39.2044 55.6333 38.9244 55.42C38.6444 55.22 38.1377 55.12 37.4044 55.12H33.8244C33.3177 55.36 33.0644 55.7467 33.0644 56.28C33.0644 56.6667 33.2244 57 33.5444 57.28C33.8777 57.56 34.4244 57.7 35.1844 57.7H36.8044C37.631 57.7 38.2577 57.5733 38.6844 57.32C39.1244 57.08 39.3444 56.7267 39.3444 56.26ZM35.9044 50.16C36.611 50.16 37.131 49.9933 37.4644 49.66C37.7977 49.3267 37.9644 48.88 37.9644 48.32V47.78C37.9644 47.22 37.7977 46.7733 37.4644 46.44C37.131 46.1067 36.611 45.94 35.9044 45.94C35.1977 45.94 34.6777 46.1067 34.3444 46.44C34.011 46.7733 33.8444 47.22 33.8444 47.78V48.32C33.8444 48.88 34.011 49.3267 34.3444 49.66C34.6777 49.9933 35.1977 50.16 35.9044 50.16Z" fill="#FFA928"/>
<path d="M59.9688 38.2C59.3288 38.2 58.8754 38.0667 58.6088 37.8C58.3554 37.5333 58.2288 37.2067 58.2288 36.82V36.3C58.2288 35.9133 58.3554 35.5867 58.6088 35.32C58.8754 35.0533 59.3288 34.92 59.9688 34.92C60.6088 34.92 61.0554 35.0533 61.3088 35.32C61.5754 35.5867 61.7088 35.9133 61.7088 36.3V36.82C61.7088 37.2067 61.5754 37.5333 61.3088 37.8C61.0554 38.0667 60.6088 38.2 59.9688 38.2Z" fill="#FF4242"/>
</g>
<defs>
<clipPath id="clip0">
<rect width="64" height="64" fill="white"/>
</clipPath>
</defs>
</svg>