<svg width="64" height="64" viewBox="0 0 64 64" fill="none" xmlns="http://www.w3.org/2000/svg">
<path d="M3.7 25.94V23.86L12.3 19.04V21.16L5.68 24.82V24.98L12.3 28.62V30.76L3.7 25.94ZM15.6922 42.94V40.86L24.2922 36.04V38.16L17.6722 41.82V41.98L24.2922 45.62V47.76L15.6922 42.94Z" fill="#A5ADBD"/>
<path d="M15.6722 31V20.68H17.8522V22.44H17.9522C18.0589 22.1733 18.1922 21.92 18.3522 21.68C18.5255 21.4267 18.7322 21.2133 18.9722 21.04C19.2122 20.8533 19.4922 20.7067 19.8122 20.6C20.1322 20.4933 20.5055 20.44 20.9322 20.44C21.9722 20.44 22.8122 20.78 23.4522 21.46C24.0922 22.14 24.4122 23.1067 24.4122 24.36V31H22.2322V24.68C22.2322 23.04 21.5189 22.22 20.0922 22.22C19.8122 22.22 19.5389 22.26 19.2722 22.34C19.0055 22.4067 18.7655 22.5133 18.5522 22.66C18.3389 22.8067 18.1655 22.9933 18.0322 23.22C17.9122 23.4467 17.8522 23.7067 17.8522 24V31H15.6722ZM35.8244 31C35.1977 31 34.7244 30.84 34.4044 30.52C34.0977 30.2 33.911 29.78 33.8444 29.26H33.7444C33.5444 29.8867 33.1777 30.3733 32.6444 30.72C32.1244 31.0667 31.4577 31.24 30.6444 31.24C29.591 31.24 28.751 30.9667 28.1244 30.42C27.4977 29.86 27.1844 29.0933 27.1844 28.12C27.1844 27.12 27.551 26.36 28.2844 25.84C29.031 25.3067 30.171 25.04 31.7044 25.04H33.6844V24.24C33.6844 22.84 32.9444 22.14 31.4644 22.14C30.7977 22.14 30.2577 22.2733 29.8444 22.54C29.431 22.7933 29.0844 23.1333 28.8044 23.56L27.5044 22.5C27.7977 21.94 28.291 21.46 28.9844 21.06C29.6777 20.6467 30.571 20.44 31.6644 20.44C32.971 20.44 33.9977 20.7533 34.7444 21.38C35.491 22.0067 35.8644 22.9133 35.8644 24.1V29.28H37.1644V31H35.8244ZM31.2644 29.64C31.971 29.64 32.551 29.48 33.0044 29.16C33.4577 28.84 33.6844 28.4267 33.6844 27.92V26.42H31.7444C30.171 26.42 29.3844 26.8933 29.3844 27.84V28.24C29.3844 28.7067 29.551 29.06 29.8844 29.3C30.2177 29.5267 30.6777 29.64 31.2644 29.64ZM42.6366 31L38.9366 20.68H41.1966L42.6166 25.04L43.9566 29.18H44.0766L45.4166 25.04L46.8366 20.68H49.0166L45.3166 31H42.6366ZM34.1244 46.24H34.0244C33.9177 46.5067 33.7777 46.7667 33.6044 47.02C33.4444 47.26 33.2444 47.4733 33.0044 47.66C32.7644 47.8333 32.4844 47.9733 32.1644 48.08C31.8444 48.1867 31.471 48.24 31.0444 48.24C30.0044 48.24 29.1644 47.9 28.5244 47.22C27.8844 46.54 27.5644 45.5733 27.5644 44.32V37.68H29.7444V44C29.7444 45.64 30.4577 46.46 31.8844 46.46C32.1644 46.46 32.4377 46.4267 32.7044 46.36C32.971 46.28 33.211 46.1667 33.4244 46.02C33.6377 45.8733 33.8044 45.6933 33.9244 45.48C34.0577 45.2533 34.1244 44.9867 34.1244 44.68V37.68H36.3044V48H34.1244V46.24ZM39.4766 46.24H42.8966V34.96H39.4766V33.2H45.0766V46.24H48.4966V48H39.4766V46.24Z" fill="#B65159"/>
<path d="M51.6688 28.64L58.2888 24.98V24.82L51.6688 21.18V19.04L60.2688 23.86V25.94L51.6688 30.76V28.64ZM51.6688 45.64L58.2888 41.98V41.82L51.6688 38.18V36.04L60.2688 40.86V42.94L51.6688 47.76V45.64Z" fill="#A5ADBD"/>
</svg>