<svg width="49" height="20" viewBox="0 0 49 20" fill="none" xmlns="http://www.w3.org/2000/svg">
<path d="M10.0852 14.5183C10.0852 14.5183 16.7809 19.9694 26.6633 19.0321C34.4294 18.2969 39.4543 9.74885 41.2937 7.47835C42.9454 5.43956 44.794 2.39345 47.7996 0.907949C49.9809 -0.16955 47.0457 0.0114459 47.0457 0.0114459C47.0457 0.0114459 42.2744 0.436257 39.6212 0.535957C36.9687 0.636557 29.2799 -0.284552 23.833 1.89635C18.0026 4.23175 13.8039 8.77735 10.7354 12.5918C9.22969 14.4633 10.0852 14.5183 10.0852 14.5183Z" fill="#4F6436"/>
<path d="M10.2912 14.1829C10.2912 14.1829 10.958 13.0382 12.5765 11.6193C14.1947 10.1997 15.5155 8.31127 15.5155 8.31127C15.5155 8.31127 17.7899 6.37598 19.11 5.74508C20.6403 5.01418 20.6788 5.42237 19.8656 6.72307C19.0521 8.02347 19.879 8.29007 19.957 8.18467C21.4718 6.13037 24.209 4.03638 25.0963 3.67678C26.725 3.01609 23.047 7.14987 23.4333 7.09417C23.6583 7.06147 26.1158 4.26658 26.9974 3.57528C27.7562 2.98078 30.3689 0.861381 30.153 2.38538C30.0856 2.86298 28.6106 5.05057 28.2723 5.48907C27.8867 5.98797 26.3162 7.53138 26.4407 7.69848C26.5652 7.86468 27.4588 7.21728 27.71 7.01688C27.898 6.86698 30.5202 3.90608 30.8995 3.49868C31.4681 2.88848 33.6303 1.71648 33.5432 2.62768C33.474 3.35438 32.3229 4.29527 31.9444 5.25227C31.6343 6.03697 31.212 7.08318 31.6057 6.92848C32.4196 6.60738 33.3029 4.20489 33.6222 3.86589C34.5955 2.83469 35.6658 2.35597 36.4624 2.10417C37.4643 1.78807 39.5284 1.35868 40.5684 1.20628C42.2995 0.952679 47.4232 0.40938 47.5495 0.68208C47.6843 0.97558 44.4803 2.05337 43.3144 2.71227C42.9031 2.94517 41.9911 3.34707 41.9301 3.69417C41.8246 4.30207 42.6117 3.90048 43.1024 4.29038C43.6813 4.75078 39.5513 5.31768 38.728 5.84298C38.1826 6.19007 39.7069 6.06309 40.725 6.18088C42.0222 6.33188 37.7564 8.13068 36.7259 8.71178C36.5139 8.83098 35.8997 9.02178 35.9258 9.26338C35.9696 9.67338 37.2294 9.84478 37.2413 10.2569C37.2632 10.9974 35.5276 11.7188 34.8375 11.989C34.1429 12.2611 31.8745 12.3527 31.8745 12.3527C31.8745 12.3527 30.2535 12.4861 29.5727 12.6293C29.143 12.7199 30.6511 13.1736 31.1037 13.4911C31.4833 13.7586 33.2183 13.7921 33.2581 14.255C33.2991 14.7297 30.8448 14.9802 30.3759 15.0638C29.6813 15.188 28.2268 15.2057 27.2623 15.1059C26.4855 15.025 23.3507 14.4422 22.9143 14.5132C20.9557 14.8328 28.8435 15.1179 29.0922 16.7409C29.1497 17.117 28.1795 17.4476 27.8236 17.5795C26.1624 18.1941 22.5397 18.757 20.7934 18.4603C19.9351 18.3136 18.384 17.6391 17.5359 17.4397C17.0942 17.3361 16.3019 17.0069 15.8591 16.9089C14.3461 16.5722 10.6313 14.461 10.2912 14.1829Z" fill="#526B32"/>
<path d="M31.5722 10.4134C31.3676 10.3707 31.1108 10.3644 30.8776 10.3644C30.7524 10.3644 30.6222 10.3664 30.4888 10.3687C30.3516 10.3707 30.2123 10.3731 30.0743 10.3731C29.5508 10.3731 28.9916 10.3404 28.72 10.1154L28.7405 10.0451C28.7405 10.0134 28.7271 9.97484 28.7055 9.93984L28.7309 9.90576L28.8452 9.96605C29.3966 10.2586 30.2814 10.2693 30.9933 10.2779C31.1101 10.2792 31.2212 10.2806 31.3242 10.2831C31.3538 10.2838 31.3852 10.2846 31.4191 10.2846C31.6234 10.2846 31.8932 10.2685 32.1783 10.2508C32.3825 10.2384 32.591 10.2262 32.7762 10.2194C32.681 10.2352 32.585 10.2533 32.4887 10.2703C32.1589 10.3298 31.8463 10.3856 31.6699 10.3894L31.5673 10.3919L31.5722 10.4134Z" fill="#607D35"/>
<path d="M15.1303 10.4324C15.651 9.70858 18.1568 7.90759 18.1885 8.01629L18.2633 7.96369C18.2009 7.95059 18.2023 7.92989 18.2665 7.90229C17.5839 7.78479 14.3214 10.0656 12.5765 13.4639C12.627 13.4871 12.634 13.5125 12.5981 13.5405C12.6626 13.5231 12.6891 13.5341 12.6778 13.5726C12.6471 13.5493 14.949 10.7196 15.1303 10.4324C15.1102 10.4645 15.1882 10.3517 15.1303 10.4324Z" fill="#597B36"/>
<path d="M21.0048 7.86172C21.6281 7.15802 24.8419 4.8373 24.8003 4.7516C24.8052 4.793 24.8744 4.69641 24.8804 4.66951C24.8052 4.67721 24.8031 4.65542 24.8751 4.60352C24.1134 4.72672 23.1807 6.0898 22.2123 6.1815C22.3651 7.0387 19.2458 7.95391 18.729 11.9829C18.7858 11.9878 18.8034 12.0125 18.7826 12.0577C18.8355 12.0091 18.8637 12.0066 18.8673 12.0509C18.2397 11.8969 20.7635 8.16762 21.0048 7.86172C20.9762 7.89812 21.0859 7.77082 21.0048 7.86172Z" fill="#597B36"/>
<path d="M25.4187 7.11285C25.9073 6.39745 28.4177 3.78894 28.4519 3.83234C28.466 3.87194 28.5097 3.76005 28.509 3.73715C28.4395 3.75975 28.4325 3.73966 28.4875 3.67676C28.3132 3.74306 26.5028 5.03925 26.4407 5.42555C26.2407 5.60825 22.2038 10.7356 22.8791 10.7684L22.8561 10.799C22.921 10.7859 22.9461 10.7997 22.9316 10.8381C22.9606 10.8241 22.956 10.8114 22.9179 10.7997C23.5426 10.1961 24.9918 7.85835 25.4187 7.11285C25.3979 7.15055 25.4836 7.01865 25.4187 7.11285Z" fill="#597B36"/>
<path d="M29.538 6.61467C29.9536 5.93877 31.6077 4.32796 31.6698 4.44596L31.7245 4.38986C31.667 4.38486 31.6631 4.36506 31.7136 4.33086C31.3294 4.08816 27.8235 7.91085 27.3522 9.69375C27.4118 9.67155 27.4393 9.68035 27.434 9.71775C27.4598 9.70255 27.4531 9.69345 27.4132 9.68845C27.8524 9.21995 28.939 7.01897 29.538 6.61467Z" fill="#597B36"/>
<path d="M19.9422 15.7344C21.4055 16.0537 23.0957 16.5754 24.4708 16.4241C24.4027 16.3839 24.4158 16.3649 24.5089 16.3683C22.0229 15.1051 18.8779 16.1259 15.306 12.866L15.0756 12.6987C15.0481 12.7634 15.0223 12.7763 14.9998 12.7383C14.5031 12.8163 17.3683 14.9809 18.1811 15.1071C18.3162 15.1368 19.89 15.7267 19.9422 15.7344Z" fill="#597B36"/>
<path d="M24.5689 14.0453C25.9733 14.2651 29.4023 14.695 29.9321 13.6286C29.8517 13.6226 29.8549 13.6 29.9427 13.5623C25.2956 15.3259 20.7881 11.8153 19.8632 11.6245C19.8713 11.6957 19.8568 11.7194 19.8173 11.6971C20.924 12.4856 21.9498 13.0817 24.5689 14.0453C24.5177 14.0399 24.6976 14.0925 24.5689 14.0453Z" fill="#597B36"/>
<path d="M30.5615 11.2879C32.0911 11.2868 35.5641 11.3277 36.1459 10.2671C35.175 10.6961 34.666 10.6455 33.5805 10.8594C33.1233 10.9503 29.9339 11.089 25.122 10.3246C25.1114 10.3813 25.0832 10.3979 25.0366 10.3743C25.0846 10.4306 25.0853 10.4593 25.0381 10.46C25.013 10.5326 29.9621 11.3293 30.5615 11.2879C30.5082 11.2918 30.7054 11.2879 30.5615 11.2879Z" fill="#597B36"/>
<path d="M35.293 8.30193C36.1068 8.15833 39.2039 6.53644 38.8938 6.32324C38.2916 6.61744 37.3422 7.55862 34.6661 8.05562C34.7437 8.18942 31.822 7.79673 31.2868 7.87443C31.2903 7.92943 31.2713 7.94843 31.23 7.93123C31.2766 7.97853 31.2801 8.00673 31.241 8.01553C31.2092 8.26033 34.9077 8.40323 35.293 8.30193C35.2545 8.31223 35.3967 8.28363 35.293 8.30193Z" fill="#597B36"/>
<path d="M34.8368 4.8258C34.2501 5.428 33.6836 6.06119 33.7559 6.56699C33.8187 6.48169 33.3566 6.83699 33.5425 6.89469L33.5629 6.89158C33.5753 6.82318 33.4596 6.94979 33.5097 6.94199C33.4913 6.89759 33.4723 6.89629 33.4532 6.93789C32.705 5.44349 36.679 3.45519 36.6487 3.29639C36.6176 3.34519 36.6187 3.37369 36.6529 3.38109C36.6363 3.40329 36.6303 3.39408 36.6353 3.35398C36.2486 3.64748 35.107 4.6184 34.8368 4.8258Z" fill="#597B36"/>
<path d="M39.6381 4.51714C40.5553 4.69464 41.6528 4.62045 42.1972 4.48615C42.3213 4.57395 42.2656 4.59445 42.5111 4.65685C42.442 4.64665 38.0446 4.91334 37.972 4.55914C37.9991 4.51144 38.1734 4.51104 38.1409 4.50234C38.5717 4.43774 39.6152 4.50944 39.6381 4.51714Z" fill="#597B36"/>
<path d="M45.1351 1.54789C44.6352 1.83429 45.3722 1.43389 45.1351 1.54789C45.1478 1.54049 45.1894 1.52169 45.1351 1.54789ZM47.3139 0.825684C37.5423 2.96808 32.5346 8.62249 22.4159 10.6336C15.6891 12.4617 6.6305 14.3834 0 19.0326C0 19.1028 0.00780077 19.2703 0.0508007 19.33C0.164101 19.4887 0.225099 19.5677 0.469199 19.6887C5.86459 15.6677 12.1218 13.7547 18.1868 12.3291C20.2114 11.8579 23.071 10.5409 25.1252 10.5094C26.5321 10.2569 30.0038 8.66798 31.9303 7.78808C32.1328 7.68688 34.6206 6.43769 34.6012 6.44429C34.5091 6.49379 36.806 5.49788 37.0353 5.20148C40.8323 2.81048 45.6008 1.37248 45.4092 1.45998C45.7581 1.16438 46.8387 0.968783 47.3139 0.825684Z" fill="#597B36"/>
<path d="M14.5965 13.975C14.5225 13.9175 14.4498 13.8582 14.3789 13.7965C14.4286 13.7947 14.6226 13.9175 14.6442 13.9471C14.5143 13.7694 15.0146 14.3515 15.082 14.3194C15.2492 14.2396 16.7675 15.4059 17.2618 15.4566C18.4923 16 19.1142 16.2028 19.7259 16.3562C19.8614 16.3496 16.7065 15.3628 16.7467 15.3773C16.0394 15.0179 14.6396 14.3895 14.1845 13.7397C14.2364 13.8142 14.5115 13.9193 14.5965 13.975C14.4307 13.8667 14.5701 13.9323 14.5965 13.975Z" fill="#607D35"/>
<path d="M21.7135 9.85959C21.7583 9.97349 21.9922 9.30778 22.4614 8.83048C23.2371 8.04029 24.0926 7.08739 24.5756 6.86129C24.6669 6.81689 24.7262 6.79359 24.8035 6.75049C23.8714 6.71059 23.822 7.90579 22.5725 8.52539C22.527 8.58459 22.3891 8.82868 22.3079 8.92818C22.1873 8.96458 21.8489 9.491 21.5431 9.9442C21.5332 10.1242 21.5904 10.0962 21.7135 9.85959C21.6419 9.95589 21.7308 9.90329 21.7135 9.85959Z" fill="#607D35"/>
<path d="M15.2411 11.3469C16.0168 10.5574 16.8727 9.60381 17.3549 9.37811C17.4466 9.33361 17.5066 9.3107 17.5828 9.2666C16.601 9.5703 15.1687 11.3451 15.0873 11.445C14.9666 11.4816 14.3694 12.6126 14.4939 12.376C14.5108 12.4201 14.7719 11.8245 15.2411 11.3469Z" fill="#607D35"/>
<path d="M36.5142 7.06197C36.6338 7.02497 36.7594 6.98856 36.8874 6.95156C37.0183 6.91276 37.1523 6.87478 37.2846 6.83338C37.7845 6.67918 38.1846 6.47787 38.5028 6.18707C38.4827 6.17127 38.0209 6.50207 37.3436 6.72017C37.2328 6.75647 36.1614 7.08307 36.0637 7.11627C36.0362 7.12577 36.0058 7.13526 35.973 7.14566C35.7779 7.20626 35.5952 7.36816 35.7649 7.31986C35.7649 7.31986 36.2916 7.13077 36.5142 7.06197Z" fill="#607D35"/>
<path d="M0.433899 19.2137C0.433899 19.2137 0.4607 19.1816 0.5105 19.1209C0.5627 19.0634 0.644902 18.9805 0.755002 18.8845C0.864302 18.7872 1.0054 18.6796 1.1691 18.5582C1.3342 18.4383 1.5244 18.3095 1.7357 18.1755C1.9459 18.0397 2.1781 17.899 2.4275 17.757C2.6758 17.6127 2.9436 17.4721 3.2202 17.3273C3.7758 17.0402 4.3681 16.7344 4.9608 16.4289C5.5534 16.122 6.15669 15.8362 6.72639 15.578C7.01109 15.4492 7.2895 15.331 7.5544 15.2202C7.8179 15.1084 8.0705 15.0093 8.3044 14.9203C8.5383 14.8314 8.7531 14.7521 8.9461 14.6869C9.1384 14.6209 9.307 14.5644 9.4467 14.5228C9.5864 14.4802 9.69679 14.4488 9.77229 14.4289C9.84739 14.4079 9.88769 14.3965 9.88769 14.3965L9.89009 14.4047C9.89009 14.4047 9.8503 14.4176 9.7762 14.4431C9.7021 14.4674 9.5942 14.5042 9.4569 14.5546C9.3197 14.6036 9.1539 14.6647 8.9644 14.738C8.7761 14.8113 8.5623 14.8943 8.3312 14.9892C8.0998 15.0834 7.85069 15.1885 7.58679 15.2993C7.32299 15.4094 7.0478 15.5331 6.7617 15.6577C6.4756 15.7833 6.1814 15.9156 5.8833 16.0521C5.5859 16.1901 5.2832 16.3294 4.9812 16.4694C4.8306 16.541 4.6803 16.6137 4.5304 16.6847C4.3822 16.7595 4.2348 16.8339 4.088 16.9072C3.797 17.0593 3.5126 17.2109 3.242 17.3666C2.9697 17.52 2.7108 17.6756 2.4631 17.8188C2.2183 17.9655 1.9844 18.1018 1.7727 18.2337C1.5596 18.3649 1.3695 18.4908 1.2009 18.6027C1.0336 18.717 0.891103 18.8214 0.777903 18.9117C0.662203 19.0014 0.579305 19.0779 0.523206 19.1326C0.469206 19.1889 0.440305 19.219 0.440305 19.219L0.433899 19.2137Z" fill="#526B32"/>
</svg>
