<svg width="140" height="80" viewBox="0 0 140 80" fill="none" xmlns="http://www.w3.org/2000/svg">
<path d="M68.067 33.3733C69.9313 33.1941 71.0267 33.7815 72.2346 34.2535C71.9151 32.9633 69.023 32.0977 68.067 33.3733ZM79.8104 33.8771C77.4188 36.1372 74.4609 40.9028 75.1389 45.4479C75.5675 48.3161 78.9878 48.8604 81.3258 47.7106C83.5451 46.6184 86.4961 42.2576 86.2519 39.1595C86.1627 38.057 85.457 37.467 85.4934 36.7677C85.5367 35.9227 86.1783 35.2716 86.6312 34.8823C87.1992 34.3939 88.1682 34.2371 88.2712 33.499C88.5137 31.7626 85.961 31.5438 84.8604 31.611C82.564 31.7574 81.1638 32.5963 79.8104 33.8771ZM55.4413 31.8651C51.6044 33.1734 47.8949 38.7633 47.6126 43.5599C47.3849 47.4504 49.7255 49.2411 53.2956 47.9621C56.0561 46.9733 58.9724 42.3214 58.7239 39.1595C58.6183 37.8116 57.936 37.7297 58.0918 36.5187C58.1931 35.7487 58.6754 35.3577 59.2287 34.8823C59.6548 34.5188 60.6488 34.1579 60.7441 33.499C61.0038 31.7368 58.5326 31.555 57.4632 31.611C56.8233 31.648 55.9738 31.6834 55.4413 31.8651ZM64.9117 32.7454C66.7855 31.984 71.212 31.7256 72.7403 33.3733C75.3865 29.7437 80.8573 25.3562 87.3871 26.0789C90.6057 26.4329 92.9021 28.512 92.4388 32.8703C94.4754 33.257 96.5536 31.4879 98.2456 32.3681C99.444 32.9874 99.0387 35.6566 98.2456 36.5187C97.216 37.6367 95.5033 37.4042 93.9533 37.6488C91.1815 44.839 86.2762 53.986 76.1485 53.9998C67.9779 54.0067 67.0548 44.4281 70.0881 37.9003C68.9598 37.5764 67.6141 37.6832 66.4261 37.9003C64.6051 42.1698 63.1452 45.5711 60.1137 48.5917C57.5004 51.1911 53.9138 54.0265 48.624 53.9998C43.1939 53.9688 40.6075 50.0507 41.0482 43.9372C41.4509 38.3284 44.4685 33.3198 48.4985 29.8514C50.8502 27.8247 54.4914 26.1159 58.0918 26.0789C62.2135 26.0341 65.7343 27.8368 64.9117 32.7454Z" fill="black"/>
</svg>