<?xml version="1.0" standalone="no"?>
<!DOCTYPE svg PUBLIC "-//W3C//DTD SVG 20010904//EN"
 "http://www.w3.org/TR/2001/REC-SVG-20010904/DTD/svg10.dtd">
<svg version="1.0" xmlns="http://www.w3.org/2000/svg"
 width="260.000000pt" height="260.000000pt" viewBox="0 0 260.000000 260.000000"
 preserveAspectRatio="xMidYMid meet">
<metadata>
Created by potrace 1.11, written by Peter Selinger 2001-2013
</metadata>
<g transform="translate(0.000000,260.000000) scale(0.100000,-0.100000)"
fill="#000000" stroke="none">
<path d="M1125 2590 c-560 -88 -984 -488 -1102 -1040 -28 -131 -25 -382 5
-520 114 -512 504 -896 1022 -1007 119 -25 382 -25 500 1 270 59 474 169 665
360 194 195 305 398 362 666 28 131 25 382 -5 520 -113 508 -502 894 -1012
1005 -89 19 -350 28 -435 15z m753 -1337 l-3 -928 -115 0 -115 0 -3 383 -2
382 -183 0 -182 -1 -239 -384 -239 -385 -134 0 c-73 0 -133 3 -133 7 0 3 116
186 257 406 174 271 253 402 244 405 -8 3 -50 23 -93 44 -183 92 -270 243
-272 473 -1 288 150 452 469 509 58 10 172 14 413 15 l332 1 -2 -927z"/>
<path d="M1183 1965 c-125 -27 -202 -78 -246 -160 -29 -56 -36 -212 -12 -284
21 -63 90 -142 152 -172 83 -40 149 -51 361 -56 l202 -6 0 347 0 346 -197 -1
c-126 0 -221 -6 -260 -14z"/>
</g>
</svg>
