<svg width="18" height="18" viewBox="0 0 18 18" fill="none" xmlns="http://www.w3.org/2000/svg">
<path d="M3.5625 18H14.4375C16.4018 18 18 16.4018 18 14.4375V3.5625C18 1.59825 16.4018 0 14.4375 0H3.5625C1.59825 0 0 1.59825 0 3.5625V14.4375C0 16.4018 1.59825 18 3.5625 18ZM1.125 3.5625C1.125 2.2185 2.2185 1.125 3.5625 1.125H14.4375C15.7815 1.125 16.875 2.2185 16.875 3.5625V14.4375C16.875 15.7815 15.7815 16.875 14.4375 16.875H3.5625C2.2185 16.875 1.125 15.7815 1.125 14.4375V3.5625Z" fill="black"/>
<path d="M9.00005 13.5976C11.5351 13.5976 13.5976 11.5351 13.5976 9.00005C13.5976 6.46505 11.5351 4.40255 9.00005 4.40255C6.46505 4.40255 4.40255 6.46505 4.40255 9.00005C4.40255 11.5351 6.46505 13.5976 9.00005 13.5976ZM9.00005 5.52755C10.9148 5.52755 12.4726 7.0853 12.4726 9.00005C12.4726 10.9148 10.9148 12.4726 9.00005 12.4726C7.0853 12.4726 5.52755 10.9148 5.52755 9.00005C5.52755 7.0853 7.0853 5.52755 9.00005 5.52755Z" fill="black"/>
<path d="M13.7684 5.5216C14.5079 5.5216 15.0652 4.9666 15.0652 4.23085C15.0652 3.4636 14.4787 2.9401 13.7692 2.9401C13.0297 2.9401 12.4724 3.4951 12.4724 4.23085C12.4724 4.9966 13.0559 5.5216 13.7684 5.5216ZM13.9012 4.1071C14.1382 4.31635 13.5974 4.5706 13.5974 4.2316C13.5974 4.0291 13.8727 4.0816 13.9012 4.1071Z" fill="black"/>
</svg>