<svg width="16" height="16" viewBox="0 0 16 16" fill="none" xmlns="http://www.w3.org/2000/svg">
<path d="M15.375 7.375H0.625C0.279813 7.375 0 7.65481 0 8C0 8.34519 0.279813 8.625 0.625 8.625H15.375C15.7202 8.625 16 8.34519 16 8C16 7.65481 15.7202 7.375 15.375 7.375Z" fill="black"/>
<path d="M15.375 2.375H0.625C0.279813 2.375 0 2.65481 0 3C0 3.34519 0.279813 3.625 0.625 3.625H15.375C15.7202 3.625 16 3.34519 16 3C16 2.65481 15.7202 2.375 15.375 2.375Z" fill="black"/>
<path d="M15.375 12.375H0.625C0.279813 12.375 0 12.6548 0 13C0 13.3452 0.279813 13.625 0.625 13.625H15.375C15.7202 13.625 16 13.3452 16 13C16 12.6548 15.7202 12.375 15.375 12.375Z" fill="black"/>
</svg>
