<svg width="114" height="330" viewBox="0 0 114 330" fill="none" xmlns="http://www.w3.org/2000/svg">
<path d="M3 324C4.65685 324 6 325.343 6 327C6 328.657 4.65685 330 3 330C1.34315 330 0 328.657 0 327C0 325.343 1.34315 324 3 324Z" fill="#E5E5E5"/>
<path d="M3 306C4.65685 306 6 307.343 6 309C6 310.657 4.65685 312 3 312C1.34315 312 0 310.657 0 309C0 307.343 1.34315 306 3 306Z" fill="#E5E5E5"/>
<path d="M3 288C4.65685 288 6 289.343 6 291C6 292.657 4.65685 294 3 294C1.34315 294 0 292.657 0 291C0 289.343 1.34315 288 3 288Z" fill="#E5E5E5"/>
<path d="M3 270C4.65685 270 6 271.343 6 273C6 274.657 4.65685 276 3 276C1.34315 276 0 274.657 0 273C0 271.343 1.34315 270 3 270Z" fill="#E5E5E5"/>
<path d="M3 252C4.65685 252 6 253.343 6 255C6 256.657 4.65685 258 3 258C1.34315 258 0 256.657 0 255C0 253.343 1.34315 252 3 252Z" fill="#E5E5E5"/>
<path d="M3 234C4.65685 234 6 235.343 6 237C6 238.657 4.65685 240 3 240C1.34315 240 0 238.657 0 237C0 235.343 1.34315 234 3 234Z" fill="#E5E5E5"/>
<path d="M3 216C4.65685 216 6 217.343 6 219C6 220.657 4.65685 222 3 222C1.34315 222 0 220.657 0 219C0 217.343 1.34315 216 3 216Z" fill="#E5E5E5"/>
<path d="M3 198C4.65685 198 6 199.343 6 201C6 202.657 4.65685 204 3 204C1.34315 204 0 202.657 0 201C0 199.343 1.34315 198 3 198Z" fill="#E5E5E5"/>
<path d="M21 324C22.6569 324 24 325.343 24 327C24 328.657 22.6569 330 21 330C19.3431 330 18 328.657 18 327C18 325.343 19.3431 324 21 324Z" fill="#E5E5E5"/>
<path d="M21 306C22.6569 306 24 307.343 24 309C24 310.657 22.6569 312 21 312C19.3431 312 18 310.657 18 309C18 307.343 19.3431 306 21 306Z" fill="#E5E5E5"/>
<path d="M21 288C22.6569 288 24 289.343 24 291C24 292.657 22.6569 294 21 294C19.3431 294 18 292.657 18 291C18 289.343 19.3431 288 21 288Z" fill="#E5E5E5"/>
<path d="M21 270C22.6569 270 24 271.343 24 273C24 274.657 22.6569 276 21 276C19.3431 276 18 274.657 18 273C18 271.343 19.3431 270 21 270Z" fill="#E5E5E5"/>
<path d="M21 252C22.6569 252 24 253.343 24 255C24 256.657 22.6569 258 21 258C19.3431 258 18 256.657 18 255C18 253.343 19.3431 252 21 252Z" fill="#E5E5E5"/>
<path d="M21 234C22.6569 234 24 235.343 24 237C24 238.657 22.6569 240 21 240C19.3431 240 18 238.657 18 237C18 235.343 19.3431 234 21 234Z" fill="#E5E5E5"/>
<path d="M21 216C22.6569 216 24 217.343 24 219C24 220.657 22.6569 222 21 222C19.3431 222 18 220.657 18 219C18 217.343 19.3431 216 21 216Z" fill="#E5E5E5"/>
<path d="M21 198C22.6569 198 24 199.343 24 201C24 202.657 22.6569 204 21 204C19.3431 204 18 202.657 18 201C18 199.343 19.3431 198 21 198Z" fill="#E5E5E5"/>
<path d="M39 324C40.6569 324 42 325.343 42 327C42 328.657 40.6569 330 39 330C37.3431 330 36 328.657 36 327C36 325.343 37.3431 324 39 324Z" fill="#E5E5E5"/>
<path d="M39 306C40.6569 306 42 307.343 42 309C42 310.657 40.6569 312 39 312C37.3431 312 36 310.657 36 309C36 307.343 37.3431 306 39 306Z" fill="#E5E5E5"/>
<path d="M39 288C40.6569 288 42 289.343 42 291C42 292.657 40.6569 294 39 294C37.3431 294 36 292.657 36 291C36 289.343 37.3431 288 39 288Z" fill="#E5E5E5"/>
<path d="M39 270C40.6569 270 42 271.343 42 273C42 274.657 40.6569 276 39 276C37.3431 276 36 274.657 36 273C36 271.343 37.3431 270 39 270Z" fill="#E5E5E5"/>
<path d="M39 252C40.6569 252 42 253.343 42 255C42 256.657 40.6569 258 39 258C37.3431 258 36 256.657 36 255C36 253.343 37.3431 252 39 252Z" fill="#E5E5E5"/>
<path d="M39 234C40.6569 234 42 235.343 42 237C42 238.657 40.6569 240 39 240C37.3431 240 36 238.657 36 237C36 235.343 37.3431 234 39 234Z" fill="#E5E5E5"/>
<path d="M39 216C40.6569 216 42 217.343 42 219C42 220.657 40.6569 222 39 222C37.3431 222 36 220.657 36 219C36 217.343 37.3431 216 39 216Z" fill="#E5E5E5"/>
<path d="M39 198C40.6569 198 42 199.343 42 201C42 202.657 40.6569 204 39 204C37.3431 204 36 202.657 36 201C36 199.343 37.3431 198 39 198Z" fill="#E5E5E5"/>
<path d="M57 324C58.6569 324 60 325.343 60 327C60 328.657 58.6569 330 57 330C55.3431 330 54 328.657 54 327C54 325.343 55.3431 324 57 324Z" fill="#E5E5E5"/>
<path d="M57 306C58.6569 306 60 307.343 60 309C60 310.657 58.6569 312 57 312C55.3431 312 54 310.657 54 309C54 307.343 55.3431 306 57 306Z" fill="#E5E5E5"/>
<path d="M57 288C58.6569 288 60 289.343 60 291C60 292.657 58.6569 294 57 294C55.3431 294 54 292.657 54 291C54 289.343 55.3431 288 57 288Z" fill="#E5E5E5"/>
<path d="M57 270C58.6569 270 60 271.343 60 273C60 274.657 58.6569 276 57 276C55.3431 276 54 274.657 54 273C54 271.343 55.3431 270 57 270Z" fill="#E5E5E5"/>
<path d="M57 252C58.6569 252 60 253.343 60 255C60 256.657 58.6569 258 57 258C55.3431 258 54 256.657 54 255C54 253.343 55.3431 252 57 252Z" fill="#E5E5E5"/>
<path d="M57 234C58.6569 234 60 235.343 60 237C60 238.657 58.6569 240 57 240C55.3431 240 54 238.657 54 237C54 235.343 55.3431 234 57 234Z" fill="#E5E5E5"/>
<path d="M57 216C58.6569 216 60 217.343 60 219C60 220.657 58.6569 222 57 222C55.3431 222 54 220.657 54 219C54 217.343 55.3431 216 57 216Z" fill="#E5E5E5"/>
<path d="M57 198C58.6569 198 60 199.343 60 201C60 202.657 58.6569 204 57 204C55.3431 204 54 202.657 54 201C54 199.343 55.3431 198 57 198Z" fill="#E5E5E5"/>
<path d="M75 324C76.6569 324 78 325.343 78 327C78 328.657 76.6569 330 75 330C73.3431 330 72 328.657 72 327C72 325.343 73.3431 324 75 324Z" fill="#E5E5E5"/>
<path d="M75 306C76.6569 306 78 307.343 78 309C78 310.657 76.6569 312 75 312C73.3431 312 72 310.657 72 309C72 307.343 73.3431 306 75 306Z" fill="#E5E5E5"/>
<path d="M75 288C76.6569 288 78 289.343 78 291C78 292.657 76.6569 294 75 294C73.3431 294 72 292.657 72 291C72 289.343 73.3431 288 75 288Z" fill="#E5E5E5"/>
<path d="M75 270C76.6569 270 78 271.343 78 273C78 274.657 76.6569 276 75 276C73.3431 276 72 274.657 72 273C72 271.343 73.3431 270 75 270Z" fill="#E5E5E5"/>
<path d="M75 252C76.6569 252 78 253.343 78 255C78 256.657 76.6569 258 75 258C73.3431 258 72 256.657 72 255C72 253.343 73.3431 252 75 252Z" fill="#E5E5E5"/>
<path d="M75 234C76.6569 234 78 235.343 78 237C78 238.657 76.6569 240 75 240C73.3431 240 72 238.657 72 237C72 235.343 73.3431 234 75 234Z" fill="#E5E5E5"/>
<path d="M75 216C76.6569 216 78 217.343 78 219C78 220.657 76.6569 222 75 222C73.3431 222 72 220.657 72 219C72 217.343 73.3431 216 75 216Z" fill="#E5E5E5"/>
<path d="M75 198C76.6569 198 78 199.343 78 201C78 202.657 76.6569 204 75 204C73.3431 204 72 202.657 72 201C72 199.343 73.3431 198 75 198Z" fill="#E5E5E5"/>
<path d="M93 324C94.6569 324 96 325.343 96 327C96 328.657 94.6569 330 93 330C91.3431 330 90 328.657 90 327C90 325.343 91.3431 324 93 324Z" fill="#E5E5E5"/>
<path d="M93 306C94.6569 306 96 307.343 96 309C96 310.657 94.6569 312 93 312C91.3431 312 90 310.657 90 309C90 307.343 91.3431 306 93 306Z" fill="#E5E5E5"/>
<path d="M93 288C94.6569 288 96 289.343 96 291C96 292.657 94.6569 294 93 294C91.3431 294 90 292.657 90 291C90 289.343 91.3431 288 93 288Z" fill="#E5E5E5"/>
<path d="M93 270C94.6569 270 96 271.343 96 273C96 274.657 94.6569 276 93 276C91.3431 276 90 274.657 90 273C90 271.343 91.3431 270 93 270Z" fill="#E5E5E5"/>
<path d="M93 252C94.6569 252 96 253.343 96 255C96 256.657 94.6569 258 93 258C91.3431 258 90 256.657 90 255C90 253.343 91.3431 252 93 252Z" fill="#E5E5E5"/>
<path d="M93 234C94.6569 234 96 235.343 96 237C96 238.657 94.6569 240 93 240C91.3431 240 90 238.657 90 237C90 235.343 91.3431 234 93 234Z" fill="#E5E5E5"/>
<path d="M93 216C94.6569 216 96 217.343 96 219C96 220.657 94.6569 222 93 222C91.3431 222 90 220.657 90 219C90 217.343 91.3431 216 93 216Z" fill="#E5E5E5"/>
<path d="M93 198C94.6569 198 96 199.343 96 201C96 202.657 94.6569 204 93 204C91.3431 204 90 202.657 90 201C90 199.343 91.3431 198 93 198Z" fill="#E5E5E5"/>
<path d="M3 180C4.65685 180 6 181.343 6 183C6 184.657 4.65685 186 3 186C1.34315 186 0 184.657 0 183C0 181.343 1.34315 180 3 180Z" fill="#E5E5E5"/>
<path d="M3 162C4.65685 162 6 163.343 6 165C6 166.657 4.65685 168 3 168C1.34315 168 0 166.657 0 165C0 163.343 1.34315 162 3 162Z" fill="#E5E5E5"/>
<path d="M3 144C4.65685 144 6 145.343 6 147C6 148.657 4.65685 150 3 150C1.34315 150 0 148.657 0 147C0 145.343 1.34315 144 3 144Z" fill="#E5E5E5"/>
<path d="M21 180C22.6569 180 24 181.343 24 183C24 184.657 22.6569 186 21 186C19.3431 186 18 184.657 18 183C18 181.343 19.3431 180 21 180Z" fill="#E5E5E5"/>
<path d="M21 162C22.6569 162 24 163.343 24 165C24 166.657 22.6569 168 21 168C19.3431 168 18 166.657 18 165C18 163.343 19.3431 162 21 162Z" fill="#E5E5E5"/>
<path d="M21 144C22.6569 144 24 145.343 24 147C24 148.657 22.6569 150 21 150C19.3431 150 18 148.657 18 147C18 145.343 19.3431 144 21 144Z" fill="#E5E5E5"/>
<path d="M39 180C40.6569 180 42 181.343 42 183C42 184.657 40.6569 186 39 186C37.3431 186 36 184.657 36 183C36 181.343 37.3431 180 39 180Z" fill="#E5E5E5"/>
<path d="M39 162C40.6569 162 42 163.343 42 165C42 166.657 40.6569 168 39 168C37.3431 168 36 166.657 36 165C36 163.343 37.3431 162 39 162Z" fill="#E5E5E5"/>
<path d="M39 144C40.6569 144 42 145.343 42 147C42 148.657 40.6569 150 39 150C37.3431 150 36 148.657 36 147C36 145.343 37.3431 144 39 144Z" fill="#E5E5E5"/>
<path d="M57 180C58.6569 180 60 181.343 60 183C60 184.657 58.6569 186 57 186C55.3431 186 54 184.657 54 183C54 181.343 55.3431 180 57 180Z" fill="#E5E5E5"/>
<path d="M57 162C58.6569 162 60 163.343 60 165C60 166.657 58.6569 168 57 168C55.3431 168 54 166.657 54 165C54 163.343 55.3431 162 57 162Z" fill="#E5E5E5"/>
<path d="M57 144C58.6569 144 60 145.343 60 147C60 148.657 58.6569 150 57 150C55.3431 150 54 148.657 54 147C54 145.343 55.3431 144 57 144Z" fill="#E5E5E5"/>
<path d="M75 180C76.6569 180 78 181.343 78 183C78 184.657 76.6569 186 75 186C73.3431 186 72 184.657 72 183C72 181.343 73.3431 180 75 180Z" fill="#E5E5E5"/>
<path d="M75 162C76.6569 162 78 163.343 78 165C78 166.657 76.6569 168 75 168C73.3431 168 72 166.657 72 165C72 163.343 73.3431 162 75 162Z" fill="#E5E5E5"/>
<path d="M75 144C76.6569 144 78 145.343 78 147C78 148.657 76.6569 150 75 150C73.3431 150 72 148.657 72 147C72 145.343 73.3431 144 75 144Z" fill="#E5E5E5"/>
<path d="M93 180C94.6569 180 96 181.343 96 183C96 184.657 94.6569 186 93 186C91.3431 186 90 184.657 90 183C90 181.343 91.3431 180 93 180Z" fill="#E5E5E5"/>
<path d="M93 162C94.6569 162 96 163.343 96 165C96 166.657 94.6569 168 93 168C91.3431 168 90 166.657 90 165C90 163.343 91.3431 162 93 162Z" fill="#E5E5E5"/>
<path d="M93 144C94.6569 144 96 145.343 96 147C96 148.657 94.6569 150 93 150C91.3431 150 90 148.657 90 147C90 145.343 91.3431 144 93 144Z" fill="#E5E5E5"/>
<path d="M3 126C4.65685 126 6 127.343 6 129C6 130.657 4.65685 132 3 132C1.34315 132 0 130.657 0 129C0 127.343 1.34315 126 3 126Z" fill="#E5E5E5"/>
<path d="M3 108C4.65685 108 6 109.343 6 111C6 112.657 4.65685 114 3 114C1.34315 114 0 112.657 0 111C0 109.343 1.34315 108 3 108Z" fill="#E5E5E5"/>
<path d="M3 90C4.65685 90 6 91.3431 6 93C6 94.6569 4.65685 96 3 96C1.34315 96 0 94.6569 0 93C0 91.3431 1.34315 90 3 90Z" fill="#E5E5E5"/>
<path d="M21 126C22.6569 126 24 127.343 24 129C24 130.657 22.6569 132 21 132C19.3431 132 18 130.657 18 129C18 127.343 19.3431 126 21 126Z" fill="#E5E5E5"/>
<path d="M21 108C22.6569 108 24 109.343 24 111C24 112.657 22.6569 114 21 114C19.3431 114 18 112.657 18 111C18 109.343 19.3431 108 21 108Z" fill="#E5E5E5"/>
<path d="M21 90C22.6569 90 24 91.3431 24 93C24 94.6569 22.6569 96 21 96C19.3431 96 18 94.6569 18 93C18 91.3431 19.3431 90 21 90Z" fill="#E5E5E5"/>
<path d="M39 126C40.6569 126 42 127.343 42 129C42 130.657 40.6569 132 39 132C37.3431 132 36 130.657 36 129C36 127.343 37.3431 126 39 126Z" fill="#E5E5E5"/>
<path d="M39 108C40.6569 108 42 109.343 42 111C42 112.657 40.6569 114 39 114C37.3431 114 36 112.657 36 111C36 109.343 37.3431 108 39 108Z" fill="#E5E5E5"/>
<path d="M39 90C40.6569 90 42 91.3431 42 93C42 94.6569 40.6569 96 39 96C37.3431 96 36 94.6569 36 93C36 91.3431 37.3431 90 39 90Z" fill="#E5E5E5"/>
<path d="M57 126C58.6569 126 60 127.343 60 129C60 130.657 58.6569 132 57 132C55.3431 132 54 130.657 54 129C54 127.343 55.3431 126 57 126Z" fill="#E5E5E5"/>
<path d="M57 108C58.6569 108 60 109.343 60 111C60 112.657 58.6569 114 57 114C55.3431 114 54 112.657 54 111C54 109.343 55.3431 108 57 108Z" fill="#E5E5E5"/>
<path d="M57 90C58.6569 90 60 91.3431 60 93C60 94.6569 58.6569 96 57 96C55.3431 96 54 94.6569 54 93C54 91.3431 55.3431 90 57 90Z" fill="#E5E5E5"/>
<path d="M75 126C76.6569 126 78 127.343 78 129C78 130.657 76.6569 132 75 132C73.3431 132 72 130.657 72 129C72 127.343 73.3431 126 75 126Z" fill="#E5E5E5"/>
<path d="M75 108C76.6569 108 78 109.343 78 111C78 112.657 76.6569 114 75 114C73.3431 114 72 112.657 72 111C72 109.343 73.3431 108 75 108Z" fill="#E5E5E5"/>
<path d="M75 90C76.6569 90 78 91.3431 78 93C78 94.6569 76.6569 96 75 96C73.3431 96 72 94.6569 72 93C72 91.3431 73.3431 90 75 90Z" fill="#E5E5E5"/>
<path d="M93 126C94.6569 126 96 127.343 96 129C96 130.657 94.6569 132 93 132C91.3431 132 90 130.657 90 129C90 127.343 91.3431 126 93 126Z" fill="#E5E5E5"/>
<path d="M93 108C94.6569 108 96 109.343 96 111C96 112.657 94.6569 114 93 114C91.3431 114 90 112.657 90 111C90 109.343 91.3431 108 93 108Z" fill="#E5E5E5"/>
<path d="M93 90C94.6569 90 96 91.3431 96 93C96 94.6569 94.6569 96 93 96C91.3431 96 90 94.6569 90 93C90 91.3431 91.3431 90 93 90Z" fill="#E5E5E5"/>
<path d="M3 72C4.65685 72 6 73.3431 6 75C6 76.6569 4.65685 78 3 78C1.34315 78 0 76.6569 0 75C0 73.3431 1.34315 72 3 72Z" fill="#E5E5E5"/>
<path d="M3 54C4.65685 54 6 55.3431 6 57C6 58.6569 4.65685 60 3 60C1.34315 60 0 58.6569 0 57C0 55.3431 1.34315 54 3 54Z" fill="#E5E5E5"/>
<path d="M3 36C4.65685 36 6 37.3431 6 39C6 40.6569 4.65685 42 3 42C1.34315 42 0 40.6569 0 39C0 37.3431 1.34315 36 3 36Z" fill="#E5E5E5"/>
<path d="M21 72C22.6569 72 24 73.3431 24 75C24 76.6569 22.6569 78 21 78C19.3431 78 18 76.6569 18 75C18 73.3431 19.3431 72 21 72Z" fill="#E5E5E5"/>
<path d="M21 54C22.6569 54 24 55.3431 24 57C24 58.6569 22.6569 60 21 60C19.3431 60 18 58.6569 18 57C18 55.3431 19.3431 54 21 54Z" fill="#E5E5E5"/>
<path d="M21 36C22.6569 36 24 37.3431 24 39C24 40.6569 22.6569 42 21 42C19.3431 42 18 40.6569 18 39C18 37.3431 19.3431 36 21 36Z" fill="#E5E5E5"/>
<path d="M39 72C40.6569 72 42 73.3431 42 75C42 76.6569 40.6569 78 39 78C37.3431 78 36 76.6569 36 75C36 73.3431 37.3431 72 39 72Z" fill="#E5E5E5"/>
<path d="M39 54C40.6569 54 42 55.3431 42 57C42 58.6569 40.6569 60 39 60C37.3431 60 36 58.6569 36 57C36 55.3431 37.3431 54 39 54Z" fill="#E5E5E5"/>
<path d="M39 36C40.6569 36 42 37.3431 42 39C42 40.6569 40.6569 42 39 42C37.3431 42 36 40.6569 36 39C36 37.3431 37.3431 36 39 36Z" fill="#E5E5E5"/>
<path d="M57 72C58.6569 72 60 73.3431 60 75C60 76.6569 58.6569 78 57 78C55.3431 78 54 76.6569 54 75C54 73.3431 55.3431 72 57 72Z" fill="#E5E5E5"/>
<path d="M57 54C58.6569 54 60 55.3431 60 57C60 58.6569 58.6569 60 57 60C55.3431 60 54 58.6569 54 57C54 55.3431 55.3431 54 57 54Z" fill="#E5E5E5"/>
<path d="M57 36C58.6569 36 60 37.3431 60 39C60 40.6569 58.6569 42 57 42C55.3431 42 54 40.6569 54 39C54 37.3431 55.3431 36 57 36Z" fill="#E5E5E5"/>
<path d="M75 72C76.6569 72 78 73.3431 78 75C78 76.6569 76.6569 78 75 78C73.3431 78 72 76.6569 72 75C72 73.3431 73.3431 72 75 72Z" fill="#E5E5E5"/>
<path d="M75 54C76.6569 54 78 55.3431 78 57C78 58.6569 76.6569 60 75 60C73.3431 60 72 58.6569 72 57C72 55.3431 73.3431 54 75 54Z" fill="#E5E5E5"/>
<path d="M75 36C76.6569 36 78 37.3431 78 39C78 40.6569 76.6569 42 75 42C73.3431 42 72 40.6569 72 39C72 37.3431 73.3431 36 75 36Z" fill="#E5E5E5"/>
<path d="M93 72C94.6569 72 96 73.3431 96 75C96 76.6569 94.6569 78 93 78C91.3431 78 90 76.6569 90 75C90 73.3431 91.3431 72 93 72Z" fill="#E5E5E5"/>
<path d="M93 54C94.6569 54 96 55.3431 96 57C96 58.6569 94.6569 60 93 60C91.3431 60 90 58.6569 90 57C90 55.3431 91.3431 54 93 54Z" fill="#E5E5E5"/>
<path d="M93 36C94.6569 36 96 37.3431 96 39C96 40.6569 94.6569 42 93 42C91.3431 42 90 40.6569 90 39C90 37.3431 91.3431 36 93 36Z" fill="#E5E5E5"/>
<path d="M111 324C112.657 324 114 325.343 114 327C114 328.657 112.657 330 111 330C109.343 330 108 328.657 108 327C108 325.343 109.343 324 111 324Z" fill="#E5E5E5"/>
<path d="M111 306C112.657 306 114 307.343 114 309C114 310.657 112.657 312 111 312C109.343 312 108 310.657 108 309C108 307.343 109.343 306 111 306Z" fill="#E5E5E5"/>
<path d="M111 288C112.657 288 114 289.343 114 291C114 292.657 112.657 294 111 294C109.343 294 108 292.657 108 291C108 289.343 109.343 288 111 288Z" fill="#E5E5E5"/>
<path d="M111 270C112.657 270 114 271.343 114 273C114 274.657 112.657 276 111 276C109.343 276 108 274.657 108 273C108 271.343 109.343 270 111 270Z" fill="#E5E5E5"/>
<path d="M111 252C112.657 252 114 253.343 114 255C114 256.657 112.657 258 111 258C109.343 258 108 256.657 108 255C108 253.343 109.343 252 111 252Z" fill="#E5E5E5"/>
<path d="M111 234C112.657 234 114 235.343 114 237C114 238.657 112.657 240 111 240C109.343 240 108 238.657 108 237C108 235.343 109.343 234 111 234Z" fill="#E5E5E5"/>
<path d="M111 216C112.657 216 114 217.343 114 219C114 220.657 112.657 222 111 222C109.343 222 108 220.657 108 219C108 217.343 109.343 216 111 216Z" fill="#E5E5E5"/>
<path d="M111 198C112.657 198 114 199.343 114 201C114 202.657 112.657 204 111 204C109.343 204 108 202.657 108 201C108 199.343 109.343 198 111 198Z" fill="#E5E5E5"/>
<path d="M111 180C112.657 180 114 181.343 114 183C114 184.657 112.657 186 111 186C109.343 186 108 184.657 108 183C108 181.343 109.343 180 111 180Z" fill="#E5E5E5"/>
<path d="M111 162C112.657 162 114 163.343 114 165C114 166.657 112.657 168 111 168C109.343 168 108 166.657 108 165C108 163.343 109.343 162 111 162Z" fill="#E5E5E5"/>
<path d="M111 144C112.657 144 114 145.343 114 147C114 148.657 112.657 150 111 150C109.343 150 108 148.657 108 147C108 145.343 109.343 144 111 144Z" fill="#E5E5E5"/>
<path d="M111 126C112.657 126 114 127.343 114 129C114 130.657 112.657 132 111 132C109.343 132 108 130.657 108 129C108 127.343 109.343 126 111 126Z" fill="#E5E5E5"/>
<path d="M111 108C112.657 108 114 109.343 114 111C114 112.657 112.657 114 111 114C109.343 114 108 112.657 108 111C108 109.343 109.343 108 111 108Z" fill="#E5E5E5"/>
<path d="M111 90C112.657 90 114 91.3431 114 93C114 94.6569 112.657 96 111 96C109.343 96 108 94.6569 108 93C108 91.3431 109.343 90 111 90Z" fill="#E5E5E5"/>
<path d="M111 72C112.657 72 114 73.3431 114 75C114 76.6569 112.657 78 111 78C109.343 78 108 76.6569 108 75C108 73.3431 109.343 72 111 72Z" fill="#E5E5E5"/>
<path d="M111 54C112.657 54 114 55.3431 114 57C114 58.6569 112.657 60 111 60C109.343 60 108 58.6569 108 57C108 55.3431 109.343 54 111 54Z" fill="#E5E5E5"/>
<path d="M111 36C112.657 36 114 37.3431 114 39C114 40.6569 112.657 42 111 42C109.343 42 108 40.6569 108 39C108 37.3431 109.343 36 111 36Z" fill="#E5E5E5"/>
<path d="M3 18C4.65685 18 6 19.3431 6 21C6 22.6569 4.65685 24 3 24C1.34315 24 0 22.6569 0 21C0 19.3431 1.34315 18 3 18Z" fill="#E5E5E5"/>
<path d="M3 0C4.65685 0 6 1.34315 6 3C6 4.65685 4.65685 6 3 6C1.34315 6 0 4.65685 0 3C0 1.34315 1.34315 0 3 0Z" fill="#E5E5E5"/>
<path d="M21 18C22.6569 18 24 19.3431 24 21C24 22.6569 22.6569 24 21 24C19.3431 24 18 22.6569 18 21C18 19.3431 19.3431 18 21 18Z" fill="#E5E5E5"/>
<path d="M21 0C22.6569 0 24 1.34315 24 3C24 4.65685 22.6569 6 21 6C19.3431 6 18 4.65685 18 3C18 1.34315 19.3431 0 21 0Z" fill="#E5E5E5"/>
<path d="M39 18C40.6569 18 42 19.3431 42 21C42 22.6569 40.6569 24 39 24C37.3431 24 36 22.6569 36 21C36 19.3431 37.3431 18 39 18Z" fill="#E5E5E5"/>
<path d="M39 0C40.6569 0 42 1.34315 42 3C42 4.65685 40.6569 6 39 6C37.3431 6 36 4.65685 36 3C36 1.34315 37.3431 0 39 0Z" fill="#E5E5E5"/>
<path d="M57 18C58.6569 18 60 19.3431 60 21C60 22.6569 58.6569 24 57 24C55.3431 24 54 22.6569 54 21C54 19.3431 55.3431 18 57 18Z" fill="#E5E5E5"/>
<path d="M57 0C58.6569 0 60 1.34315 60 3C60 4.65685 58.6569 6 57 6C55.3431 6 54 4.65685 54 3C54 1.34315 55.3431 0 57 0Z" fill="#E5E5E5"/>
<path d="M75 18C76.6569 18 78 19.3431 78 21C78 22.6569 76.6569 24 75 24C73.3431 24 72 22.6569 72 21C72 19.3431 73.3431 18 75 18Z" fill="#E5E5E5"/>
<path d="M75 0C76.6569 0 78 1.34315 78 3C78 4.65685 76.6569 6 75 6C73.3431 6 72 4.65685 72 3C72 1.34315 73.3431 0 75 0Z" fill="#E5E5E5"/>
<path d="M93 18C94.6569 18 96 19.3431 96 21C96 22.6569 94.6569 24 93 24C91.3431 24 90 22.6569 90 21C90 19.3431 91.3431 18 93 18Z" fill="#E5E5E5"/>
<path d="M93 0C94.6569 0 96 1.34315 96 3C96 4.65685 94.6569 6 93 6C91.3431 6 90 4.65685 90 3C90 1.34315 91.3431 0 93 0Z" fill="#E5E5E5"/>
<path d="M111 18C112.657 18 114 19.3431 114 21C114 22.6569 112.657 24 111 24C109.343 24 108 22.6569 108 21C108 19.3431 109.343 18 111 18Z" fill="#E5E5E5"/>
<path d="M111 0C112.657 0 114 1.34315 114 3C114 4.65685 112.657 6 111 6C109.343 6 108 4.65685 108 3C108 1.34315 109.343 0 111 0Z" fill="#E5E5E5"/>
</svg>