<svg width="18" height="12" viewBox="0 0 18 12" fill="none" xmlns="http://www.w3.org/2000/svg">
<path d="M0.207695 6.6C0.0692359 6.48 0 6.3 0 6.18C0 6.06 0.0692359 5.88 0.207695 5.76L1.17692 4.92C1.45385 4.68 1.86924 4.68 2.14616 4.92L2.21539 4.98L6.02307 8.52C6.16154 8.64 6.36918 8.64 6.50765 8.52L15.7846 0.18H15.8539C16.1309 -0.06 16.5461 -0.06 16.8231 0.18L17.7924 1.02C18.0692 1.26 18.0692 1.62 17.7924 1.86L6.71543 11.82C6.57695 11.94 6.43848 12 6.23084 12C6.02307 12 5.8846 11.94 5.74613 11.82L0.346153 6.78L0.207695 6.6Z" fill="#0F1115"/>
</svg>
