<svg width="87" height="87" viewBox="0 0 87 87" fill="none" xmlns="http://www.w3.org/2000/svg">
<path d="M43.3404 6.66894C45.1815 6.66894 46.674 5.17604 46.674 3.33447C46.674 1.49289 45.1815 0 43.3404 0C41.4993 0 40.0068 1.49289 40.0068 3.33447C40.0068 5.17604 41.4993 6.66894 43.3404 6.66894Z" fill="#E9002D"/>
<path d="M3.34042 46.6796C5.18151 46.6796 6.67401 45.1867 6.67401 43.3451C6.67401 41.5035 5.18151 40.0106 3.34042 40.0106C1.49933 40.0106 0.00683594 41.5035 0.00683594 43.3451C0.00683594 45.1867 1.49933 46.6796 3.34042 46.6796Z" fill="#E9002D"/>
<path d="M43.3404 46.6796C45.1815 46.6796 46.674 45.1867 46.674 43.3451C46.674 41.5035 45.1815 40.0106 43.3404 40.0106C41.4993 40.0106 40.0068 41.5035 40.0068 43.3451C40.0068 45.1867 41.4993 46.6796 43.3404 46.6796Z" fill="#E9002D"/>
<path d="M13.3404 16.6716C15.1815 16.6716 16.674 15.1787 16.674 13.3371C16.674 11.4956 15.1815 10.0027 13.3404 10.0027C11.4993 10.0027 10.0068 11.4956 10.0068 13.3371C10.0068 15.1787 11.4993 16.6716 13.3404 16.6716Z" fill="#E9002D"/>
<path d="M23.3404 26.6741C25.1815 26.6741 26.674 25.1812 26.674 23.3396C26.674 21.498 25.1815 20.0051 23.3404 20.0051C21.4993 20.0051 20.0068 21.498 20.0068 23.3396C20.0068 25.1812 21.4993 26.6741 23.3404 26.6741Z" fill="#E9002D"/>
<path d="M43.3404 26.6741C45.1815 26.6741 46.674 25.1812 46.674 23.3396C46.674 21.498 45.1815 20.0051 43.3404 20.0051C41.4993 20.0051 40.0068 21.498 40.0068 23.3396C40.0068 25.1812 41.4993 26.6741 43.3404 26.6741Z" fill="#E9002D"/>
<path d="M33.3404 16.6716C35.1815 16.6716 36.674 15.1787 36.674 13.3371C36.674 11.4956 35.1815 10.0027 33.3404 10.0027C31.4993 10.0027 30.0068 11.4956 30.0068 13.3371C30.0068 15.1787 31.4993 16.6716 33.3404 16.6716Z" fill="#E9002D"/>
<path d="M13.3404 36.6769C15.1815 36.6769 16.674 35.184 16.674 33.3424C16.674 31.5008 15.1815 30.0079 13.3404 30.0079C11.4993 30.0079 10.0068 31.5008 10.0068 33.3424C10.0068 35.184 11.4993 36.6769 13.3404 36.6769Z" fill="#E9002D"/>
<path d="M23.3404 46.6796C25.1815 46.6796 26.674 45.1867 26.674 43.3451C26.674 41.5035 25.1815 40.0106 23.3404 40.0106C21.4993 40.0106 20.0068 41.5035 20.0068 43.3451C20.0068 45.1867 21.4993 46.6796 23.3404 46.6796Z" fill="#E9002D"/>
<path d="M33.3404 36.6769C35.1815 36.6769 36.674 35.184 36.674 33.3424C36.674 31.5008 35.1815 30.0079 33.3404 30.0079C31.4993 30.0079 30.0068 31.5008 30.0068 33.3424C30.0068 35.184 31.4993 36.6769 33.3404 36.6769Z" fill="#E9002D"/>
<path d="M53.3404 16.6716C55.1815 16.6716 56.674 15.1787 56.674 13.3371C56.674 11.4956 55.1815 10.0027 53.3404 10.0027C51.4993 10.0027 50.0068 11.4956 50.0068 13.3371C50.0068 15.1787 51.4993 16.6716 53.3404 16.6716Z" fill="#E9002D"/>
<path d="M53.3404 36.6769C55.1815 36.6769 56.674 35.184 56.674 33.3424C56.674 31.5008 55.1815 30.0079 53.3404 30.0079C51.4993 30.0079 50.0068 31.5008 50.0068 33.3424C50.0068 35.184 51.4993 36.6769 53.3404 36.6769Z" fill="#E9002D"/>
<path d="M63.3404 46.6796C65.1815 46.6796 66.674 45.1867 66.674 43.3451C66.674 41.5035 65.1815 40.0106 63.3404 40.0106C61.4993 40.0106 60.0068 41.5035 60.0068 43.3451C60.0068 45.1867 61.4993 46.6796 63.3404 46.6796Z" fill="#E9002D"/>
<path d="M63.3404 26.6741C65.1815 26.6741 66.674 25.1812 66.674 23.3396C66.674 21.498 65.1815 20.0051 63.3404 20.0051C61.4993 20.0051 60.0068 21.498 60.0068 23.3396C60.0068 25.1812 61.4993 26.6741 63.3404 26.6741Z" fill="#E9002D"/>
<path d="M73.3404 16.6716C75.1815 16.6716 76.674 15.1787 76.674 13.3371C76.674 11.4956 75.1815 10.0027 73.3404 10.0027C71.4993 10.0027 70.0068 11.4956 70.0068 13.3371C70.0068 15.1787 71.4993 16.6716 73.3404 16.6716Z" fill="#E9002D"/>
<path d="M73.3404 36.6769C75.1815 36.6769 76.674 35.184 76.674 33.3424C76.674 31.5008 75.1815 30.0079 73.3404 30.0079C71.4993 30.0079 70.0068 31.5008 70.0068 33.3424C70.0068 35.184 71.4993 36.6769 73.3404 36.6769Z" fill="#E9002D"/>
<path d="M83.3409 46.6796C85.182 46.6796 86.6745 45.1867 86.6745 43.3451C86.6745 41.5035 85.182 40.0106 83.3409 40.0106C81.4998 40.0106 80.0073 41.5035 80.0073 43.3451C80.0073 45.1867 81.4998 46.6796 83.3409 46.6796Z" fill="#E9002D"/>
<path d="M43.3404 86.6904C45.1815 86.6904 46.674 85.1975 46.674 83.356C46.674 81.5144 45.1815 80.0215 43.3404 80.0215C41.4993 80.0215 40.0068 81.5144 40.0068 83.356C40.0068 85.1975 41.4993 86.6904 43.3404 86.6904Z" fill="#E9002D"/>
<path d="M13.3404 56.6822C15.1815 56.6822 16.674 55.1893 16.674 53.3478C16.674 51.5062 15.1815 50.0133 13.3404 50.0133C11.4993 50.0133 10.0068 51.5062 10.0068 53.3478C10.0068 55.1893 11.4993 56.6822 13.3404 56.6822Z" fill="#E9002D"/>
<path d="M23.3404 66.685C25.1815 66.685 26.674 65.1922 26.674 63.3506C26.674 61.509 25.1815 60.0161 23.3404 60.0161C21.4993 60.0161 20.0068 61.509 20.0068 63.3506C20.0068 65.1922 21.4993 66.685 23.3404 66.685Z" fill="#E9002D"/>
<path d="M43.3404 66.685C45.1815 66.685 46.674 65.1922 46.674 63.3506C46.674 61.509 45.1815 60.0161 43.3404 60.0161C41.4993 60.0161 40.0068 61.509 40.0068 63.3506C40.0068 65.1922 41.4993 66.685 43.3404 66.685Z" fill="#E9002D"/>
<path d="M33.3404 56.6822C35.1815 56.6822 36.674 55.1893 36.674 53.3478C36.674 51.5062 35.1815 50.0133 33.3404 50.0133C31.4993 50.0133 30.0068 51.5062 30.0068 53.3478C30.0068 55.1893 31.4993 56.6822 33.3404 56.6822Z" fill="#E9002D"/>
<path d="M13.3404 76.6875C15.1815 76.6875 16.674 75.1946 16.674 73.353C16.674 71.5114 15.1815 70.0186 13.3404 70.0186C11.4993 70.0186 10.0068 71.5114 10.0068 73.353C10.0068 75.1946 11.4993 76.6875 13.3404 76.6875Z" fill="#E9002D"/>
<path d="M33.3404 76.6875C35.1815 76.6875 36.674 75.1946 36.674 73.353C36.674 71.5114 35.1815 70.0186 33.3404 70.0186C31.4993 70.0186 30.0068 71.5114 30.0068 73.353C30.0068 75.1946 31.4993 76.6875 33.3404 76.6875Z" fill="#E9002D"/>
<path d="M53.3404 56.6822C55.1815 56.6822 56.674 55.1893 56.674 53.3478C56.674 51.5062 55.1815 50.0133 53.3404 50.0133C51.4993 50.0133 50.0068 51.5062 50.0068 53.3478C50.0068 55.1893 51.4993 56.6822 53.3404 56.6822Z" fill="#E9002D"/>
<path d="M53.3404 76.6875C55.1815 76.6875 56.674 75.1946 56.674 73.353C56.674 71.5114 55.1815 70.0186 53.3404 70.0186C51.4993 70.0186 50.0068 71.5114 50.0068 73.353C50.0068 75.1946 51.4993 76.6875 53.3404 76.6875Z" fill="#E9002D"/>
<path d="M63.3404 66.685C65.1815 66.685 66.674 65.1922 66.674 63.3506C66.674 61.509 65.1815 60.0161 63.3404 60.0161C61.4993 60.0161 60.0068 61.509 60.0068 63.3506C60.0068 65.1922 61.4993 66.685 63.3404 66.685Z" fill="#E9002D"/>
<path d="M73.3404 56.6822C75.1815 56.6822 76.674 55.1893 76.674 53.3478C76.674 51.5062 75.1815 50.0133 73.3404 50.0133C71.4993 50.0133 70.0068 51.5062 70.0068 53.3478C70.0068 55.1893 71.4993 56.6822 73.3404 56.6822Z" fill="#E9002D"/>
<path d="M73.3404 76.6875C75.1815 76.6875 76.674 75.1946 76.674 73.353C76.674 71.5114 75.1815 70.0186 73.3404 70.0186C71.4993 70.0186 70.0068 71.5114 70.0068 73.353C70.0068 75.1946 71.4993 76.6875 73.3404 76.6875Z" fill="#E9002D"/>
</svg>
