<svg width="18" height="18" viewBox="0 0 18 18" fill="none" xmlns="http://www.w3.org/2000/svg">
<path d="M7.61527 0H0.692365C0.309937 0 0 0.309937 0 0.692365V7.61527C0 7.9977 0.309937 8.30764 0.692365 8.30764H7.61527C7.9977 8.30764 8.30764 7.9977 8.30764 7.61527V0.692365C8.30764 0.309937 7.9977 0 7.61527 0Z" fill="#030104"/>
<path d="M17.3077 0H10.3847C10.0023 0 9.69238 0.309937 9.69238 0.692365V7.61527C9.69238 7.9977 10.0023 8.30764 10.3847 8.30764H17.3077C17.6901 8.30764 18 7.9977 18 7.61527V0.692365C18 0.309937 17.6901 0 17.3077 0ZM16.6153 6.92291H11.0771V1.38473H16.6153V6.92291Z" fill="#030104"/>
<path d="M7.61527 9.69238H0.692365C0.309937 9.69238 0 10.0023 0 10.3847V17.3077C0 17.6901 0.309937 18 0.692365 18H7.61527C7.9977 18 8.30764 17.6901 8.30764 17.3077V10.3847C8.30764 10.0016 7.9977 9.69238 7.61527 9.69238ZM3.2695 16.6153C3.38859 16.4111 3.46182 16.1766 3.46182 15.9229C3.46182 15.1581 2.84195 14.5382 2.07709 14.5382C1.82337 14.5382 1.58889 14.6114 1.38473 14.7305V12.9619C1.58889 13.081 1.82337 13.1542 2.07709 13.1542C2.84195 13.1542 3.46182 12.5343 3.46182 11.7695C3.46182 11.5158 3.38859 11.2813 3.2695 11.0771H5.03814C4.91904 11.2813 4.84581 11.5158 4.84581 11.7695C4.84581 12.5343 5.46569 13.1542 6.23054 13.1542C6.48426 13.1542 6.71875 13.081 6.92291 12.9619V14.7305C6.71875 14.6114 6.48426 14.5382 6.23054 14.5382C5.46569 14.5382 4.84581 15.1581 4.84581 15.9229C4.84581 16.1766 4.91904 16.4111 5.03814 16.6153H3.2695Z" fill="#030104"/>
<path d="M17.3077 9.69238H10.3847C10.0023 9.69238 9.69238 10.0023 9.69238 10.3847V13.8458V17.3069C9.69238 17.6893 10.0023 17.9993 10.3847 17.9993H13.8458H17.3069C17.6893 17.9993 17.9993 17.6893 17.9993 17.3069V10.384C18 10.0016 17.6901 9.69238 17.3077 9.69238ZM11.0771 14.1328L14.1328 11.0771H15.6367L11.0771 15.6367C11.0771 15.6367 11.0771 14.1328 11.0771 14.1328ZM11.0771 11.0771H12.1748L11.0771 12.1748V11.0771ZM16.6153 12.0557V13.5588L13.5596 16.6153H12.0557L16.6153 12.0557ZM16.6153 16.6153H15.5168L16.6153 15.5168V16.6153Z" fill="#030104"/>
<path d="M4.1542 15.2305C4.91896 15.2305 5.53893 14.6106 5.53893 13.8458C5.53893 13.081 4.91896 12.4611 4.1542 12.4611C3.38943 12.4611 2.76947 13.081 2.76947 13.8458C2.76947 14.6106 3.38943 15.2305 4.1542 15.2305Z" fill="#030104"/>
</svg>
