<svg width="12" height="11" viewBox="0 0 12 11" fill="none" xmlns="http://www.w3.org/2000/svg">
<path d="M9.2143 5.99985H8.78569C8.72309 5.99985 8.67172 6.0199 8.63176 6.0602C8.59146 6.10026 8.57141 6.1516 8.57141 6.21413V8.35697C8.57141 8.65163 8.46657 8.90381 8.25677 9.11366C8.04696 9.32346 7.79469 9.42828 7.50003 9.42828H1.92853C1.63389 9.42828 1.38164 9.32346 1.17179 9.11366C0.96199 8.90383 0.857101 8.65165 0.857101 8.35697V2.78554C0.857101 2.4909 0.961966 2.23874 1.17179 2.02892C1.38164 1.81907 1.63389 1.7142 1.92853 1.7142H6.64276C6.70536 1.7142 6.75673 1.69406 6.79686 1.65393C6.83699 1.61375 6.85704 1.56245 6.85704 1.4999V1.07127C6.85704 1.00883 6.83699 0.957442 6.79686 0.917335C6.75673 0.877157 6.70536 0.857103 6.64276 0.857103H1.92853C1.39733 0.857103 0.943062 1.04573 0.565772 1.42295C0.188622 1.80014 0 2.25441 0 2.78561V8.35706C0 8.88824 0.188622 9.34257 0.565795 9.71965C0.943085 10.0969 1.39735 10.2856 1.92855 10.2856H7.50003C8.0312 10.2856 8.48552 10.0969 8.86276 9.71965C9.24003 9.34257 9.42865 8.88826 9.42865 8.35706V6.2143C9.42865 6.15169 9.40857 6.10033 9.36828 6.0602C9.3281 6.0199 9.27673 5.99985 9.2143 5.99985Z" fill="#E9002D"/>
<path d="M11.8726 0.127218C11.7878 0.0423824 11.6872 0 11.5712 0H8.1427C8.02665 0 7.92614 0.0423824 7.84138 0.127218C7.75654 0.212006 7.71407 0.312462 7.71407 0.428539C7.71407 0.544615 7.75654 0.645095 7.84138 0.72993L9.0199 1.90848L4.6539 6.27457C4.6092 6.3192 4.58691 6.37057 4.58691 6.4285C4.58691 6.48665 4.60927 6.53799 4.6539 6.58262L5.4173 7.34593C5.46193 7.39056 5.5133 7.41282 5.57133 7.41282C5.62935 7.41282 5.68074 7.39059 5.72535 7.34593L10.0914 2.9799L11.27 4.15845C11.3548 4.24329 11.4552 4.28572 11.5713 4.28572C11.6874 4.28572 11.7879 4.24329 11.8727 4.15845C11.9576 4.07364 11.9999 3.97321 11.9999 3.85713V0.428539C11.9999 0.312392 11.9574 0.212006 11.8726 0.127218Z" fill="#E9002D"/>
</svg>
