<svg width="130" height="18" viewBox="0 0 130 18" fill="none" xmlns="http://www.w3.org/2000/svg">
<path d="M19.9786 16.707H16.123L14.5653 10.0849L9.98927 17.3L5.43276 10.0849L3.85551 16.707H0L3.87498 0.299988L9.98927 10.1244L16.162 0.299988L19.9786 16.707Z" fill="#E9002D"/>
<path d="M22.671 2.79068C24.3067 1.13022 26.2799 0.299988 28.5906 0.299988C30.9013 0.299988 32.8745 1.13022 34.5102 2.79068C36.1459 4.45115 36.9637 6.45425 36.9637 8.79999C36.9637 11.1457 36.1459 13.1488 34.5102 14.8093C32.8745 16.4698 30.9013 17.3 28.5906 17.3C26.2799 17.3 24.3067 16.4698 22.671 14.8093C21.0354 13.1488 20.2175 11.1457 20.2175 8.79999C20.2175 6.45425 21.0354 4.45115 22.671 2.79068ZM31.8425 5.49883C30.9468 4.57634 29.8628 4.1151 28.5906 4.1151C27.3184 4.1151 26.228 4.57634 25.3193 5.49883C24.4235 6.40813 23.9757 7.50851 23.9757 8.79999C23.9757 10.0915 24.4235 11.1984 25.3193 12.1209C26.228 13.0302 27.3184 13.4849 28.5906 13.4849C29.8628 13.4849 30.9468 13.0302 31.8425 12.1209C32.7512 11.1984 33.2055 10.0915 33.2055 8.79999C33.2055 7.50851 32.7512 6.40813 31.8425 5.49883Z" fill="#E9002D"/>
<path d="M42.9986 10.2232C42.5832 10.1178 42.2392 10.019 41.9665 9.92673C41.7069 9.83448 41.3954 9.70929 41.0319 9.55115C40.6814 9.37983 40.3633 9.16898 40.0777 8.91859C39.8051 8.66821 39.565 8.37169 39.3573 8.02906C38.7861 7.15929 38.5005 6.28952 38.5005 5.41975C38.5005 4.00968 38.9873 2.80386 39.9609 1.80231C40.9475 0.800763 42.1418 0.299988 43.5438 0.299988C44.777 0.299988 45.848 0.688748 46.7567 1.46627C47.6784 2.24379 48.2496 3.23216 48.4703 4.43138L44.829 5.20231C44.777 4.87286 44.6278 4.60929 44.3811 4.41162C44.1474 4.21394 43.8683 4.1151 43.5438 4.1151C43.2063 4.1151 42.9077 4.2403 42.6481 4.49069C42.3884 4.74107 42.2586 5.05076 42.2586 5.41975C42.2586 5.63061 42.33 5.8151 42.4728 5.97324C42.5767 6.09185 42.7195 6.19069 42.9012 6.26976C43.083 6.33565 43.4724 6.45425 44.0695 6.62557C44.1215 6.63875 44.3032 6.69146 44.6148 6.78371C44.9393 6.87596 45.1405 6.93526 45.2184 6.96162C45.2963 6.98797 45.4715 7.04727 45.7442 7.13952C46.0168 7.23177 46.205 7.31084 46.3089 7.37673C46.4257 7.44262 46.5945 7.53487 46.8151 7.65348C47.0358 7.77208 47.2046 7.89727 47.3214 8.02906C47.4512 8.14766 47.594 8.29262 47.7498 8.46394C47.9056 8.63526 48.0419 8.81976 48.1587 9.01743C48.7299 9.86084 49.0155 10.8426 49.0155 11.9628C49.0155 13.4256 48.4703 14.6841 47.3798 15.7384C46.2894 16.7794 45.0107 17.3 43.5438 17.3C42.2067 17.3 41.0189 16.8453 39.9804 15.936C38.9419 15.0267 38.3382 13.9198 38.1695 12.6151L41.9276 11.9628C41.9276 12.4108 42.0639 12.7798 42.3365 13.0698C42.6221 13.3465 43.0245 13.4849 43.5438 13.4849C44.0241 13.4849 44.4265 13.3399 44.7511 13.05C45.0886 12.7601 45.2574 12.3977 45.2574 11.9628C45.2574 11.607 45.147 11.317 44.9263 11.093C44.5758 10.7372 43.9332 10.4473 42.9986 10.2232Z" fill="#E9002D"/>
<path d="M59.5912 4.72789H56.7872V16.707H52.9901V4.72789H50.1861V0.893012H59.5912V4.72789Z" fill="#E9002D"/>
<path d="M65.1416 12.8721H71.0222V16.707H61.3445V0.893012H65.1416V12.8721Z" fill="#E9002D"/>
<path d="M76.7417 16.707H72.9446V0.893012H76.7417V16.707Z" fill="#E9002D"/>
<path d="M83.4073 10.2232C82.9919 10.1178 82.6479 10.019 82.3753 9.92673C82.1157 9.83448 81.8041 9.70929 81.4406 9.55115C81.0901 9.37983 80.7721 9.16898 80.4865 8.91859C80.2139 8.66821 79.9737 8.37169 79.766 8.02906C79.1948 7.15929 78.9092 6.28952 78.9092 5.41975C78.9092 4.00968 79.3961 2.80386 80.3697 1.80231C81.3563 0.800763 82.5506 0.299988 83.9526 0.299988C85.1858 0.299988 86.2568 0.688748 87.1655 1.46627C88.0872 2.24379 88.6584 3.23216 88.879 4.43138L85.2377 5.20231C85.1858 4.87286 85.0365 4.60929 84.7899 4.41162C84.5562 4.21394 84.2771 4.1151 83.9526 4.1151C83.615 4.1151 83.3165 4.2403 83.0568 4.49069C82.7972 4.74107 82.6674 5.05076 82.6674 5.41975C82.6674 5.63061 82.7388 5.8151 82.8816 5.97324C82.9854 6.09185 83.1282 6.19069 83.31 6.26976C83.4917 6.33565 83.8812 6.45425 84.4783 6.62557C84.5302 6.63875 84.712 6.69146 85.0235 6.78371C85.3481 6.87596 85.5493 6.93526 85.6272 6.96162C85.7051 6.98797 85.8803 7.04727 86.1529 7.13952C86.4255 7.23177 86.6138 7.31084 86.7176 7.37673C86.8345 7.44262 87.0032 7.53487 87.2239 7.65348C87.4446 7.77208 87.6133 7.89727 87.7302 8.02906C87.86 8.14766 88.0028 8.29262 88.1586 8.46394C88.3144 8.63526 88.4507 8.81976 88.5675 9.01743C89.1387 9.86084 89.4243 10.8426 89.4243 11.9628C89.4243 13.4256 88.8791 14.6841 87.7886 15.7384C86.6982 16.7794 85.4195 17.3 83.9526 17.3C82.6155 17.3 81.4277 16.8453 80.3891 15.936C79.3506 15.0267 78.747 13.9198 78.5782 12.6151L82.3364 11.9628C82.3364 12.4108 82.4727 12.7798 82.7453 13.0698C83.0309 13.3465 83.4333 13.4849 83.9526 13.4849C84.4329 13.4849 84.8353 13.3399 85.1598 13.05C85.4974 12.7601 85.6661 12.3977 85.6661 11.9628C85.6661 11.607 85.5558 11.317 85.3351 11.093C84.9846 10.7372 84.342 10.4473 83.4073 10.2232Z" fill="#E9002D"/>
<path d="M100 4.72789H97.196V16.707H93.3989V4.72789H90.5949V0.893012H100V4.72789Z" fill="#E9002D"/>
<path d="M104.6 0.3H107.21C107.917 0.3 108.51 0.51 108.99 0.93C109.47 1.34333 109.71 1.88667 109.71 2.56C109.71 2.83333 109.65 3.10667 109.53 3.38C109.41 3.64667 109.24 3.86 109.02 4.02C109.287 4.2 109.497 4.47 109.65 4.83C109.803 5.18333 109.88 5.50333 109.88 5.79C109.88 6.48333 109.633 7.07667 109.14 7.57C108.653 8.05667 108.063 8.3 107.37 8.3H104.6V0.3ZM106.54 2.22V3.3H107.23C107.37 3.28667 107.493 3.22667 107.6 3.12C107.707 3.01333 107.76 2.89333 107.76 2.76C107.76 2.60667 107.707 2.48 107.6 2.38C107.493 2.28 107.36 2.22667 107.2 2.22H106.54ZM106.54 6.36H107.37C107.53 6.36 107.663 6.31 107.77 6.21C107.877 6.11 107.93 5.98333 107.93 5.83C107.93 5.67667 107.883 5.54667 107.79 5.44C107.697 5.33333 107.567 5.28 107.4 5.28H106.54V6.36Z" fill="#0A0D13"/>
<path d="M115.621 2.24H112.741V3.33H115.081V5.27H112.741V6.36H115.621V8.3H110.791V0.3H115.621V2.24Z" fill="#0A0D13"/>
<path d="M121.317 2.24H119.877V8.3H117.927V2.24H116.487V0.3H121.317V2.24Z" fill="#0A0D13"/>
<path d="M129.007 8.3H126.877L126.467 7.5H123.427L123.037 8.3H120.887L124.967 0L129.007 8.3ZM124.407 5.55H125.517L124.947 4.43L124.407 5.55Z" fill="#0A0D13"/>
</svg>