<svg width="127" height="127" viewBox="0 0 127 127" fill="none" xmlns="http://www.w3.org/2000/svg">
<path d="M114.15 99.9001C115.15 98.5001 116.05 97.1001 116.95 95.6001L30.35 9.1001C28.95 10.0001 27.45 10.9001 26.05 11.9001L114.15 99.9001Z" fill="#E9002D"/>
<path d="M39.8499 4.3999C38.1499 5.0999 36.55 5.7999 34.95 6.5999L119.45 91.0999C120.25 89.4999 120.95 87.8999 121.65 86.1999L39.8499 4.3999Z" fill="#E9002D"/>
<path d="M56.95 0.3L125.75 69.1C125.95 66.8 126.05 64.6 126.05 62.3L63.75 0C61.45 0 59.15 0.1 56.95 0.3Z" fill="#E9002D"/>
<path d="M119.05 34.2C116.15 28.5 112.35 23.2 107.55 18.5C102.75 13.8 97.55 9.9 91.85 7L119.05 34.2Z" fill="#E9002D"/>
<path d="M22.15 15.1001C20.85 16.2001 19.65 17.3001 18.45 18.5001C-6.15 43.1001 -6.15 83.0001 18.45 107.6C43.05 132.2 82.95 132.2 107.55 107.6C108.75 106.4 109.85 105.2 110.95 103.9L22.15 15.1001Z" fill="#E9002D"/>
<path d="M80.25 2.4001C77.35 1.6001 74.35 1.0001 71.35 0.600098L125.55 54.8001C125.15 51.8001 124.55 48.8001 123.75 45.9001L80.25 2.4001Z" fill="#E9002D"/>
<path d="M50.75 1.19995C48.85 1.59995 46.95 1.99995 45.05 2.59995L123.45 81C124.05 79.1 124.45 77.2 124.85 75.3L50.75 1.19995Z" fill="#E9002D"/>
</svg>