<svg width="28" height="28" viewBox="0 0 28 28" fill="none" xmlns="http://www.w3.org/2000/svg">
<path d="M12.6094 1.34526C13.3848 0.595191 14.6152 0.59519 15.3906 1.34526L16.7583 2.66841C17.2017 3.09733 17.8182 3.29764 18.429 3.21125L20.3133 2.94473C21.3814 2.79365 22.3769 3.51691 22.5633 4.57947L22.8921 6.45385C22.9987 7.06146 23.3797 7.58589 23.9246 7.87502L25.6057 8.76694C26.5586 9.27255 26.9389 10.4428 26.4651 11.412L25.6294 13.1217C25.3584 13.6759 25.3584 14.3241 25.6294 14.8783L26.4651 16.588C26.9389 17.5572 26.5586 18.7274 25.6057 19.2331L23.9246 20.125C23.3797 20.4141 22.9987 20.9385 22.8921 21.5462L22.5633 23.4205C22.3769 24.4831 21.3814 25.2064 20.3133 25.0553L18.429 24.7888C17.8182 24.7024 17.2017 24.9027 16.7583 25.3316L15.3906 26.6547C14.6152 27.4048 13.3848 27.4048 12.6094 26.6547L11.2417 25.3316C10.7983 24.9027 10.1818 24.7024 9.57099 24.7888L7.68674 25.0553C6.6186 25.2064 5.62311 24.4831 5.43672 23.4205L5.10793 21.5462C5.00134 20.9385 4.62032 20.4141 4.07538 20.125L2.39434 19.2331C1.44139 18.7274 1.06115 17.5572 1.53491 16.588L2.37064 14.8783C2.64156 14.3241 2.64156 13.6759 2.37065 13.1217L1.53491 11.412C1.06115 10.4428 1.44139 9.27255 2.39434 8.76694L4.07538 7.87502C4.62032 7.58589 5.00134 7.06146 5.10793 6.45385L5.43672 4.57947C5.62311 3.51692 6.6186 2.79365 7.68674 2.94473L9.57099 3.21125C10.1818 3.29764 10.7983 3.09733 11.2417 2.66841L12.6094 1.34526Z" fill="white"/>
<path d="M14 7L16.0572 11.1684L20.6574 11.8369L17.3287 15.0816L18.1145 19.6631L14 17.5L9.8855 19.6631L10.6713 15.0816L7.3426 11.8369L11.9428 11.1684L14 7Z" fill="#0F1115"/>
</svg>
