<svg width="32" height="32" viewBox="0 0 32 32" fill="none" xmlns="http://www.w3.org/2000/svg">
<g clip-path="url(#clip0)">
<path d="M19.9998 24H10.0005V26.0003H19.9998V24Z" fill="#0A0D13"/>
<path d="M8.00057 2.00008H23.9998V6.00005H25.9995V2.00008C25.9996 0.896598 25.1051 0 23.9998 0H8.00057C6.89603 0 6.00049 0.896598 6.00049 2.00008V6.00005H8.00057V2.00008Z" fill="#0A0D13"/>
<path d="M21.9995 20H10.0005V22.0001H21.9995V20Z" fill="#0A0D13"/>
<path d="M29.9997 8H2.00057C0.896031 8 0.000488281 8.89633 0.000488281 9.99989V22C0.000488281 23.1053 0.896031 23.9997 2.00057 23.9997H6.00054V29.9999C6.00054 31.1054 6.89608 31.9999 8.00062 31.9999H23.9999C25.1052 31.9999 25.9996 31.1054 25.9996 29.9999V23.9997H29.9997C31.105 23.9997 31.9994 23.1053 31.9994 22V9.99989C31.9995 8.89633 31.1051 8 29.9997 8ZM23.9999 29.9999H8.00062V17.9998H23.9999V29.9999ZM27.9994 14C26.8941 14 25.9997 13.1055 25.9997 12C25.9997 10.8965 26.8941 9.99989 27.9994 9.99989C29.1051 9.99989 29.9997 10.8965 29.9997 12C29.9997 13.1054 29.105 14 27.9994 14Z" fill="#0A0D13"/>
</g>
<defs>
<clipPath id="clip0">
<rect width="32" height="32" fill="white"/>
</clipPath>
</defs>
</svg>
