<svg width="16" height="18" viewBox="0 0 16 18" fill="none" xmlns="http://www.w3.org/2000/svg">
<path d="M0 13.3177V13.1048C1.03406 10.5224 3.43523 9.72312 4.50655 9.64626H4.87336C6.15895 10.6111 7.49345 10.7696 8 10.7282V18C7.80204 18 7.31878 17.9894 6.96943 17.9468C2.95895 17.4644 0.652111 14.6597 0 13.3177Z" fill="#0A0D13"/>
<path d="M16 13.3177V13.1048C14.9659 10.5224 12.5648 9.72312 11.4935 9.64626H11.1266C9.84105 10.6111 8.50655 10.7696 8 10.7282V18C8.19796 18 8.68122 17.9894 9.03057 17.9468C13.041 17.4644 15.3479 14.6597 16 13.3177Z" fill="#0A0D13"/>
<path d="M12.6812 4.7533C12.6812 7.37847 10.5854 9.50659 8.00001 9.50659C5.41464 9.50659 3.31879 7.37847 3.31879 4.7533C3.31879 2.12812 5.41464 0 8.00001 0C10.5854 0 12.6812 2.12812 12.6812 4.7533Z" fill="#0A0D13"/>
</svg>