<svg width="396" height="24" viewBox="0 0 396 24" fill="none" xmlns="http://www.w3.org/2000/svg">
<path d="M0 6.30201C3.5 6.30201 5.1 4.90201 6.7 3.80201C8.1 2.70201 9.6 1.50202 12.4 1.50202C15.3 1.50202 16.6 2.70201 18 3.80201C19.6 4.80201 21.3 6.30201 24.7 6.30201C27.1307 6.29851 29.477 5.40978 31.3 3.80201C32.9 2.70201 34.2 1.50202 37.1 1.50202C40 1.50202 41.3 2.70201 42.8 3.80201C44.4 4.80201 45.9 6.30201 49.4 6.30201C52.8 6.30201 54.4 4.90201 56 3.80201C57.6 2.70201 58.8 1.50202 61.7 1.50202C64.4 1.50202 65.8 2.70201 67.2 3.80201C68.8 4.80201 70.6 6.30201 73.9 6.30201C77.4 6.30201 79.1 4.90201 80.6 3.80201C82.2 2.70201 83.4 1.50202 86.3 1.50202C89.2 1.50202 90.6 2.70201 92 3.80201C93.6 4.80201 95.2 6.30201 98.7 6.30201C102.2 6.30201 103.7 4.90201 105.4 3.80201C107.1 2.70201 108.2 1.50202 111.1 1.50202C113.9 1.50202 115.2 2.70201 116.8 3.80201C118.4 4.90201 120 6.30201 123.5 6.30201C127 6.30201 128.5 4.90201 130.1 3.80201C131.6 2.70201 133 1.50202 135.7 1.50202C138.6 1.50202 140 2.70201 141.4 3.80201C143.4 4.80201 144.9 6.30201 148.2 6.30201C151.5 6.30201 153.3 4.90201 154.9 3.80201C156.5 2.70201 157.8 1.50202 160.6 1.50202C163.4 1.50202 164.8 2.70201 166.4 3.80201C167.9 4.80201 169.5 6.30201 173 6.30201C176.5 6.30201 178.1 4.90201 179.7 3.80201C181.1 2.70201 182.6 1.50202 185.3 1.50202C188 1.50202 189.5 2.70201 191 3.80201C192.6 4.80201 194.3 6.30201 197.6 6.30201H198.3C201.8 6.30201 203.4 4.90201 205 3.80201C206.4 2.70201 207.9 1.50202 210.6 1.50202C213.4 1.50202 214.9 2.70201 216.3 3.80201C217.9 4.80201 219.6 6.30201 223 6.30201C226.4 6.30201 228 4.90201 229.6 3.80201C231.2 2.70201 232.5 1.50202 235.4 1.50202C238.2 1.50202 239.4 2.70201 241.1 3.80201C242.7 4.80201 244.2 6.30201 247.7 6.30201C251.2 6.30201 252.8 4.90201 254.4 3.80201C255.8 2.70201 257.3 1.50202 260 1.50202C262.7 1.50202 264.3 2.70201 265.7 3.80201C267.3 4.80201 269 6.30201 272.4 6.30201C275.8 6.30201 277.4 4.90201 279 3.80201C280.6 2.70201 281.9 1.50202 284.8 1.50202C287.6 1.50202 289 2.70201 290.5 3.80201C292.1 4.80201 293.7 6.30201 297.1 6.30201C300.5 6.30201 302.2 4.90201 303.8 3.80201C305.2 2.70201 306.7 1.50202 309.5 1.50202C312.3 1.50202 313.7 2.70201 315.1 3.80201C316.7 4.80201 318.4 6.30201 321.8 6.30201C325.2 6.30201 327 4.90201 328.4 3.80201C330 2.70201 331.3 1.50202 334.2 1.50202C337 1.50202 338.4 2.70201 339.9 3.80201C341.5 4.80201 343.1 6.30201 346.6 6.30201C349.9 6.30201 351.5 4.90201 353.1 3.80201C354.7 2.70201 356.1 1.50202 358.9 1.50202C361.6 1.50202 363.1 2.70201 364.7 3.80201C366.2 4.80201 367.7 6.30201 371 6.30201C374.5 6.30201 376.3 4.90201 377.7 3.80201C379.3 2.70201 380.5 1.50202 383.4 1.50202C386.3 1.50202 388 2.70201 389.3 3.80201C390.9 4.80201 392.5 6.30201 396 6.30201V4.70202C393.1 4.70202 391.7 3.60202 390.2 2.50202C388.6 1.40202 387.1 0.00201841 383.6 0.00201841C380.1 0.00201841 378.5 1.40202 376.9 2.50202C375.5 3.60202 374 4.70202 371.2 4.70202C368.4 4.70202 367 3.60202 365.6 2.50202C364 1.40202 362.3 0.00201841 358.9 0.00201841C356.469 0.00551623 354.123 0.894241 352.3 2.50202C350.7 3.60202 349.4 4.70202 346.5 4.70202C343.6 4.70202 342.3 3.60202 340.8 2.50202C339.2 1.40202 337.7 0.00201841 334.2 0.00201841C330.8 0.00201841 329.2 1.40202 327.6 2.50202C326.1 3.60202 324.8 4.70202 321.9 4.70202C319.2 4.70202 317.8 3.60202 316.4 2.50202C314.8 1.40202 313 0.00201841 309.7 0.00201841C306.2 0.00201841 304.5 1.40202 303 2.50202C301.4 3.60202 300.2 4.70202 297.3 4.70202C294.4 4.70202 293 3.60202 291.6 2.50202C290 1.40202 288.4 0.00201841 284.9 0.00201841C281.4 0.00201841 279.9 1.40202 278.2 2.50202C276.5 3.60202 275.4 4.70202 272.5 4.70202C269.6 4.70202 268.4 3.60202 266.8 2.50202C265.2 1.40202 263.6 0.00201841 260.1 0.00201841C256.6 0.00201841 255.1 1.40202 253.5 2.50202C252 3.60202 250.6 4.70202 247.9 4.70202C245.786 4.74086 243.74 3.95129 242.2 2.50202C240.2 1.40202 238.7 0.00201841 235.4 0.00201841C232.1 0.00201841 230.3 1.40202 228.7 2.50202C227.1 3.60202 225.8 4.70202 223 4.70202C220.2 4.70202 218.8 3.60202 217.2 2.50202C215.6 1.40202 214.1 0.00201841 210.6 0.00201841C207.1 0.00201841 205.5 1.40202 203.9 2.50202C202.374 3.90992 200.376 4.69487 198.3 4.70202C196.195 4.69107 194.167 3.90831 192.6 2.50202C191 1.40202 189.3 0.00201841 185.9 0.00201841H185.3C181.8 0.00201841 180.2 1.40202 178.6 2.50202C177.074 3.90992 175.076 4.69487 173 4.70202C170.889 4.72011 168.851 3.93343 167.3 2.50202C165.7 1.40202 164 0.00201841 160.6 0.00201841C157.2 0.00201841 155.6 1.40202 154 2.50202C152.4 3.60202 151.1 4.70202 148.2 4.70202C145.4 4.70202 144.2 3.60202 142.5 2.50202C140.9 1.40202 139.3 0.00201841 135.9 0.00201841C132.5 0.00201841 130.8 1.40202 129.2 2.50202C127.674 3.90992 125.676 4.69487 123.6 4.70202C121.495 4.69107 119.467 3.90831 117.9 2.50202C116.3 1.40202 114.6 0.00201841 111.2 0.00201841C107.9 0.00201841 106.2 1.40202 104.6 2.50202C103 3.60202 101.7 4.70202 98.8 4.70202C96.6894 4.72011 94.6511 3.93343 93.1 2.50202C91.5 1.40202 89.9 0.00201841 86.5 0.00201841C83.1 0.00201841 81.4 1.40202 79.8 2.50202C78.4 3.60202 76.9 4.70202 74.1 4.70202C71.3 4.70202 69.9 3.60202 68.5 2.50202C66.9 1.40202 65.2 0.00201841 61.8 0.00201841C59.3693 0.00551623 57.023 0.894241 55.2 2.50202C53.6 3.60202 52.3 4.70202 49.4 4.70202C47.2894 4.72011 45.2512 3.93343 43.7 2.50202C42.1 1.40202 40.5 0.00201841 37.1 0.00201841C33.7 0.00201841 32.1 1.40202 30.5 2.50202C28.9 3.60202 27.5 4.70202 24.7 4.70202C22 4.70202 20.5 3.60202 18.9 2.50202C17.4 1.40202 15.9 0.00201841 12.6 0.00201841C10.1298 -0.0483559 7.73343 0.845802 5.9 2.50202C4.3 3.60202 3.1 4.70202 0.200001 4.70202L0 6.30201Z" fill="#FF4742"/>
<path d="M0 12.1021C3.5 12.1021 5.1 10.7021 6.7 9.60207C8.25116 8.17066 10.2894 7.38397 12.4 7.40207C15.3 7.40207 16.6 8.40207 18 9.60207C19.6 10.7021 21.3 12.1021 24.7 12.1021C27.1307 12.0986 29.477 11.2098 31.3 9.60207C32.9 8.50207 34.2 7.40207 37.1 7.40207C40 7.40207 41.3 8.40207 42.8 9.60207C44.4 10.7021 45.9 12.1021 49.4 12.1021C52.8 12.1021 54.4 10.7021 56 9.60207C57.6 8.50207 58.8 7.40207 61.7 7.40207C64.4 7.40207 65.8 8.40207 67.2 9.60207C68.8 10.7021 70.6 12.1021 73.9 12.1021C77.4 12.1021 79.1 10.7021 80.6 9.60207C82.2 8.50207 83.4 7.40207 86.3 7.40207C89.2 7.40207 90.6 8.40207 92 9.60207C93.6 10.7021 95.2 12.1021 98.7 12.1021C102.2 12.1021 103.7 10.7021 105.4 9.60207C107.1 8.50207 108.2 7.40207 111.1 7.40207C113.9 7.40207 115.2 8.40207 116.8 9.60207C118.4 10.8021 120 12.1021 123.5 12.1021C127 12.1021 128.5 10.7021 130.1 9.60207C131.6 8.50207 133 7.40207 135.7 7.40207C138.6 7.40207 140 8.40207 141.4 9.60207C143.4 10.7021 144.9 12.1021 148.2 12.1021C151.5 12.1021 153.3 10.7021 154.9 9.60207C156.5 8.50207 157.8 7.40207 160.6 7.40207C163.4 7.40207 164.8 8.40207 166.4 9.60207C167.9 10.7021 169.5 12.1021 173 12.1021C176.5 12.1021 178.1 10.7021 179.7 9.60207C181.226 8.19416 183.224 7.40922 185.3 7.40207C188 7.40207 189.5 8.40207 191 9.60207C192.6 10.7021 194.3 12.1021 197.6 12.1021H198.3C201.8 12.1021 203.4 10.7021 205 9.60207C206.526 8.19416 208.524 7.40922 210.6 7.40207C213.4 7.40207 214.9 8.40207 216.3 9.60207C217.9 10.7021 219.6 12.1021 223 12.1021C226.4 12.1021 228 10.7021 229.6 9.60207C231.2 8.50207 232.5 7.40207 235.4 7.40207C238.2 7.40207 239.4 8.40207 241.1 9.60207C242.7 10.7021 244.2 12.1021 247.7 12.1021C251.2 12.1021 252.8 10.7021 254.4 9.60207C255.926 8.19416 257.924 7.40922 260 7.40207C262.116 7.35241 264.166 8.1435 265.7 9.60207C267.3 10.7021 269 12.1021 272.4 12.1021C275.8 12.1021 277.4 10.7021 279 9.60207C280.6 8.50207 281.9 7.40207 284.8 7.40207C286.916 7.35241 288.966 8.1435 290.5 9.60207C292.1 10.7021 293.7 12.1021 297.1 12.1021C300.5 12.1021 302.2 10.7021 303.8 9.60207C305.2 8.50207 306.7 7.40207 309.5 7.40207C312.3 7.40207 313.7 8.40207 315.1 9.60207C316.7 10.7021 318.4 12.1021 321.8 12.1021C325.2 12.1021 327 10.7021 328.4 9.60207C330 8.50207 331.3 7.40207 334.2 7.40207C336.316 7.35241 338.366 8.1435 339.9 9.60207C341.5 10.7021 343.1 12.1021 346.6 12.1021C349.9 12.1021 351.5 10.7021 353.1 9.60207C354.7 8.50207 356.1 7.40207 358.9 7.40207C361.6 7.40207 363.1 8.40207 364.7 9.60207C366.2 10.7021 367.7 12.1021 371 12.1021C374.5 12.1021 376.3 10.7021 377.7 9.60207C379.3 8.50207 380.5 7.40207 383.4 7.40207C384.481 7.3506 385.561 7.51903 386.576 7.89718C387.59 8.27532 388.517 8.85533 389.3 9.60207C390.9 10.7021 392.5 12.1021 396 12.1021V10.5021C393.1 10.5021 391.7 9.50207 390.2 8.30207C388.6 7.30207 387.1 5.80207 383.6 5.80207C380.1 5.80207 378.5 7.20207 376.9 8.30207C375.5 9.40207 374 10.5021 371.2 10.5021C368.4 10.5021 367 9.50207 365.6 8.30207C364 7.30207 362.3 5.80207 358.9 5.80207C356.469 5.80557 354.123 6.69429 352.3 8.30207C350.7 9.40207 349.4 10.5021 346.5 10.5021C343.6 10.5021 342.3 9.50207 340.8 8.30207C339.2 7.30207 337.7 5.80207 334.2 5.80207C330.8 5.80207 329.2 7.20207 327.6 8.30207C326.1 9.40207 324.8 10.5021 321.9 10.5021C319.2 10.5021 317.8 9.50207 316.4 8.30207C314.8 7.30207 313 5.80207 309.7 5.80207C306.2 5.80207 304.5 7.20207 303 8.30207C301.4 9.40207 300.2 10.5021 297.3 10.5021C294.4 10.5021 293 9.50207 291.6 8.30207C290 7.30207 288.4 5.80207 284.9 5.80207C281.4 5.80207 279.9 7.20207 278.2 8.30207C276.5 9.40207 275.4 10.5021 272.5 10.5021C269.6 10.5021 268.4 9.50207 266.8 8.30207C265.2 7.30207 263.6 5.80207 260.1 5.80207C256.6 5.80207 255.1 7.20207 253.5 8.30207C252 9.40207 250.6 10.5021 247.9 10.5021C245 10.5021 243.6 9.50207 242.2 8.30207C240.2 7.30207 238.7 5.80207 235.4 5.80207C232.1 5.80207 230.3 7.20207 228.7 8.30207C227.1 9.40207 225.8 10.5021 223 10.5021C220.2 10.5021 218.8 9.50207 217.2 8.30207C215.6 7.10207 214.1 5.80207 210.6 5.80207C207.1 5.80207 205.5 7.20207 203.9 8.30207C202.374 9.70997 200.376 10.4949 198.3 10.5021C196.195 10.4911 194.167 9.70835 192.6 8.30207C191 7.30207 189.3 5.80207 185.9 5.80207H185.3C181.8 5.80207 180.2 7.20207 178.6 8.30207C177.074 9.70997 175.076 10.4949 173 10.5021C170.889 10.5202 168.851 9.73348 167.3 8.30207C165.7 7.30207 164 5.80207 160.6 5.80207C157.2 5.80207 155.6 7.20207 154 8.30207C152.4 9.40207 151.1 10.5021 148.2 10.5021C145.4 10.5021 144.2 9.50207 142.5 8.30207C140.9 7.30207 139.3 5.80207 135.9 5.80207C132.5 5.80207 130.8 7.20207 129.2 8.30207C127.674 9.70997 125.676 10.4949 123.6 10.5021C121.495 10.4911 119.467 9.70835 117.9 8.30207C116.3 7.30207 114.6 5.80207 111.2 5.80207C107.9 5.80207 106.2 7.20207 104.6 8.30207C103 9.40207 101.7 10.5021 98.8 10.5021C96.6894 10.5202 94.6511 9.73348 93.1 8.30207C91.5 7.30207 89.9 5.80207 86.5 5.80207C83.1 5.80207 81.4 7.20207 79.8 8.30207C78.4 9.40207 76.9 10.5021 74.1 10.5021C71.3 10.5021 69.9 9.50207 68.5 8.30207C66.9 7.30207 65.2 5.80207 61.8 5.80207C59.3693 5.80557 57.023 6.69429 55.2 8.30207C53.6 9.40207 52.3 10.5021 49.4 10.5021C47.2894 10.5202 45.2512 9.73348 43.7 8.30207C42.1 7.30207 40.5 5.80207 37.1 5.80207C33.7 5.80207 32.1 7.20207 30.5 8.30207C28.9 9.40207 27.5 10.5021 24.7 10.5021C22 10.5021 20.5 9.50207 18.9 8.30207C17.4 7.30207 15.9 5.80207 12.6 5.80207C10.1298 5.75169 7.73343 6.64585 5.9 8.30207C4.3 9.40207 3.1 10.5021 0.200001 10.5021L0 12.1021Z" fill="#FF4742"/>
<path d="M0 17.9019C3.5 17.9019 5.1 16.5019 6.7 15.4019C8.1 14.4019 9.6 13.2019 12.4 13.2019C15.3 13.2019 16.6 14.3019 18 15.4019C19.6 16.5019 21.3 18.0019 24.7 18.0019C27.1438 17.9709 29.4916 17.046 31.3 15.4019C32.9 14.4019 34.2 13.2019 37.1 13.2019C40 13.2019 41.3 14.3019 42.8 15.4019C44.4 16.5019 45.9 18.0019 49.4 18.0019C52.8 18.0019 54.4 16.5019 56 15.4019C57.6 14.3019 58.8 13.2019 61.7 13.2019C64.4 13.2019 65.8 14.3019 67.2 15.4019C68.8 16.5019 70.6 18.0019 73.9 18.0019C77.4 18.0019 79.1 16.5019 80.6 15.4019C82.2 14.4019 83.4 13.2019 86.3 13.2019C89.2 13.2019 90.6 14.3019 92 15.4019C93.6 16.5019 95.2 18.0019 98.7 18.0019C102.2 18.0019 103.7 16.5019 105.4 15.4019C107.1 14.3019 108.2 13.2019 111.1 13.2019C113.9 13.2019 115.2 14.3019 116.8 15.4019C118.4 16.5019 120 18.0019 123.5 18.0019C127 18.0019 128.5 16.5019 130.1 15.4019C131.6 14.4019 133 13.2019 135.7 13.2019C138.6 13.2019 140 14.3019 141.4 15.4019C143.4 16.5019 144.9 18.0019 148.2 18.0019C151.5 18.0019 153.3 16.5019 154.9 15.4019C156.5 14.4019 157.8 13.2019 160.6 13.2019C163.4 13.2019 164.8 14.3019 166.4 15.4019C167.9 16.5019 169.5 18.0019 173 18.0019C176.5 18.0019 178.1 16.5019 179.7 15.4019C181.1 14.4019 182.6 13.2019 185.3 13.2019C188 13.2019 189.5 14.3019 191 15.4019C192.6 16.5019 194.3 18.0019 197.6 18.0019H198.3C201.8 18.0019 203.4 16.5019 205 15.4019C206.4 14.4019 207.9 13.2019 210.6 13.2019C213.4 13.2019 214.9 14.3019 216.3 15.4019C217.9 16.5019 219.6 18.0019 223 18.0019C226.4 18.0019 228 16.5019 229.6 15.4019C231.2 14.4019 232.5 13.2019 235.4 13.2019C238.2 13.2019 239.4 14.3019 241.1 15.4019C242.7 16.5019 244.2 18.0019 247.7 18.0019C251.2 18.0019 252.8 16.5019 254.4 15.4019C255.8 14.4019 257.3 13.2019 260 13.2019C262.7 13.2019 264.3 14.3019 265.7 15.4019C267.3 16.5019 269 18.0019 272.4 18.0019C275.8 18.0019 277.4 16.5019 279 15.4019C280.6 14.4019 281.9 13.2019 284.8 13.2019C287.6 13.2019 289 14.3019 290.5 15.4019C292.1 16.5019 293.7 18.0019 297.1 18.0019C300.5 18.0019 302.2 16.5019 303.8 15.4019C305.2 14.4019 306.7 13.2019 309.5 13.2019C312.3 13.2019 313.7 14.3019 315.1 15.4019C316.7 16.5019 318.4 18.0019 321.8 18.0019C325.2 18.0019 327 16.5019 328.4 15.4019C330 14.4019 331.3 13.2019 334.2 13.2019C337 13.2019 338.4 14.3019 339.9 15.4019C341.5 16.5019 343.1 18.0019 346.6 18.0019C349.9 18.0019 351.5 16.5019 353.1 15.4019C354.7 14.4019 356.1 13.2019 358.9 13.2019C361.6 13.2019 363.1 14.3019 364.7 15.4019C366.2 16.5019 367.7 18.0019 371 18.0019C374.5 18.0019 376.3 16.5019 377.7 15.4019C379.3 14.4019 380.5 13.2019 383.4 13.2019C386.3 13.2019 388 14.3019 389.3 15.4019C390.9 16.5019 392.5 18.0019 396 18.0019V16.4019C393.1 16.4019 391.7 15.3019 390.2 14.2019C388.6 13.0019 387.1 11.6019 383.6 11.6019C380.1 11.6019 378.5 13.0019 376.9 14.2019C375.5 15.2019 374 16.4019 371.2 16.4019C368.4 16.4019 367 15.3019 365.6 14.2019C364 13.0019 362.3 11.6019 358.9 11.6019C356.456 11.6329 354.108 12.5578 352.3 14.2019C350.7 15.2019 349.4 16.4019 346.5 16.4019C343.6 16.4019 342.3 15.3019 340.8 14.2019C339.2 13.0019 337.7 11.6019 334.2 11.6019C330.8 11.6019 329.2 13.0019 327.6 14.2019C326.1 15.2019 324.8 16.4019 321.9 16.4019C319.2 16.4019 317.8 15.3019 316.4 14.2019C314.8 13.0019 313 11.6019 309.7 11.6019C306.2 11.6019 304.5 13.0019 303 14.2019C301.4 15.2019 300.2 16.4019 297.3 16.4019C294.4 16.4019 293 15.3019 291.6 14.2019C290 13.0019 288.4 11.6019 284.9 11.6019C281.4 11.6019 279.9 13.0019 278.2 14.2019C276.5 15.4019 275.4 16.4019 272.5 16.4019C269.6 16.4019 268.4 15.3019 266.8 14.2019C265.2 13.0019 263.6 11.6019 260.1 11.6019C256.6 11.6019 255.1 13.0019 253.5 14.2019C252 15.2019 250.6 16.4019 247.9 16.4019C245.786 16.4408 243.74 15.6512 242.2 14.2019C240.2 13.0019 238.7 11.6019 235.4 11.6019C232.1 11.6019 230.3 13.0019 228.7 14.2019C227.1 15.2019 225.8 16.4019 223 16.4019C220.2 16.4019 218.8 15.3019 217.2 14.2019C215.6 13.1019 214.1 11.6019 210.6 11.6019C207.1 11.6019 205.5 13.0019 203.9 14.2019C202.5 15.2019 201 16.4019 198.3 16.4019C196.195 16.391 194.167 15.6082 192.6 14.2019C191 13.0019 189.3 11.6019 185.9 11.6019H185.3C181.8 11.6019 180.2 13.0019 178.6 14.2019C177.2 15.2019 175.7 16.4019 173 16.4019C170.889 16.42 168.851 15.6333 167.3 14.2019C165.7 13.0019 164 11.6019 160.6 11.6019C157.2 11.6019 155.6 13.0019 154 14.2019C152.4 15.2019 151.1 16.4019 148.2 16.4019C145.4 16.4019 144.2 15.3019 142.5 14.2019C140.9 13.0019 139.3 11.6019 135.9 11.6019C132.5 11.6019 130.8 13.0019 129.2 14.2019C127.8 15.2019 126.3 16.4019 123.6 16.4019C121.495 16.391 119.467 15.6082 117.9 14.2019C116.3 13.0019 114.6 11.6019 111.2 11.6019C107.9 11.6019 106.2 13.0019 104.6 14.2019C103 15.2019 101.7 16.4019 98.8 16.4019C96.6894 16.42 94.6511 15.6333 93.1 14.2019C91.5 13.0019 89.9 11.6019 86.5 11.6019C83.1 11.6019 81.4 13.0019 79.8 14.2019C78.4 15.2019 76.9 16.4019 74.1 16.4019C71.3 16.4019 69.9 15.3019 68.5 14.2019C66.9 13.0019 65.2 11.6019 61.8 11.6019C59.3562 11.6329 57.0084 12.5578 55.2 14.2019C53.6 15.2019 52.3 16.4019 49.4 16.4019C47.2894 16.42 45.2512 15.6333 43.7 14.2019C42.1 13.0019 40.5 11.6019 37.1 11.6019C33.7 11.6019 32.1 13.0019 30.5 14.2019C28.9 15.2019 27.5 16.4019 24.7 16.4019C22 16.4019 20.5 15.3019 18.9 14.2019C17.4 13.0019 15.9 11.6019 12.6 11.6019C11.3666 11.5692 10.139 11.7822 8.9887 12.2286C7.83843 12.6749 6.78847 13.3458 5.9 14.2019C4.3 15.2019 3.1 16.4019 0.200001 16.4019L0 18.0019V17.9019Z" fill="#FF4742"/>
<path d="M0 23.902C3.5 23.902 5.1 22.402 6.7 21.302C8.1 20.202 9.6 19.002 12.4 19.002C15.3 19.002 16.6 20.202 18 21.302C19.6 22.302 21.3 23.802 24.7 23.802C27.1307 23.7985 29.477 22.9098 31.3 21.302C32.9 20.202 34.2 19.002 37.1 19.002C40 19.002 41.3 20.202 42.8 21.302C44.4 22.302 45.9 23.802 49.4 23.802C52.8 23.802 54.4 22.402 56 21.302C57.6 20.202 58.8 19.002 61.7 19.002C64.4 19.002 65.8 20.202 67.2 21.302C68.8 22.302 70.6 23.802 73.9 23.802C77.4 23.802 79.1 22.402 80.6 21.302C82.2 20.202 83.4 19.002 86.3 19.002C89.2 19.002 90.6 20.202 92 21.302C93.6 22.302 95.2 23.802 98.7 23.802C102.2 23.802 103.7 22.402 105.4 21.302C107.1 20.202 108.2 19.002 111.1 19.002C113.9 19.002 115.2 20.202 116.8 21.302C118.4 22.402 120 23.802 123.5 23.802C127 23.802 128.5 22.402 130.1 21.302C131.6 20.202 133 19.002 135.7 19.002C138.6 19.002 140 20.202 141.4 21.302C143.4 22.302 144.9 23.802 148.2 23.802C151.5 23.802 153.3 22.402 154.9 21.302C156.5 20.202 157.8 19.002 160.6 19.002C163.4 19.002 164.8 20.202 166.4 21.302C167.9 22.302 169.5 23.802 173 23.802C176.5 23.802 178.1 22.402 179.7 21.302C181.1 20.202 182.6 19.002 185.3 19.002C188 19.002 189.5 20.202 191 21.302C192.6 22.302 194.3 23.802 197.6 23.802H198.3C201.8 23.802 203.4 22.402 205 21.302C206.4 20.202 207.9 19.002 210.6 19.002C213.4 19.002 214.9 20.202 216.3 21.302C217.9 22.302 219.6 23.802 223 23.802C226.4 23.802 228 22.402 229.6 21.302C231.2 20.202 232.5 19.002 235.4 19.002C238.2 19.002 239.4 20.202 241.1 21.302C242.7 22.302 244.2 23.802 247.7 23.802C251.2 23.802 252.8 22.402 254.4 21.302C255.8 20.202 257.3 19.002 260 19.002C262.7 19.002 264.3 20.202 265.7 21.302C267.3 22.302 269 23.802 272.4 23.802C275.8 23.802 277.4 22.402 279 21.302C280.6 20.202 281.9 19.002 284.8 19.002C287.6 19.002 289 20.202 290.5 21.302C292.1 22.302 293.7 23.802 297.1 23.802C300.5 23.802 302.2 22.402 303.8 21.302C305.2 20.202 306.7 19.002 309.5 19.002C312.3 19.002 313.7 20.202 315.1 21.302C316.7 22.302 318.4 23.802 321.8 23.802C325.2 23.802 327 22.402 328.4 21.302C330 20.202 331.3 19.002 334.2 19.002C337 19.002 338.4 20.202 339.9 21.302C341.5 22.302 343.1 23.802 346.6 23.802C349.9 23.802 351.5 22.402 353.1 21.302C354.7 20.202 356.1 19.002 358.9 19.002C361.6 19.002 363.1 20.202 364.7 21.302C366.2 22.302 367.7 23.802 371 23.802C374.5 23.802 376.3 22.402 377.7 21.302C379.3 20.202 380.5 19.002 383.4 19.002C386.3 19.002 388 20.202 389.3 21.302C390.9 22.302 392.5 23.802 396 23.802V22.202C393.1 22.202 391.7 21.102 390.2 20.002C388.6 18.902 387.1 17.502 383.6 17.502C380.1 17.502 378.5 18.902 376.9 20.002C375.5 21.102 374 22.202 371.2 22.202C368.4 22.202 367 21.102 365.6 20.002C364 18.902 362.3 17.502 358.9 17.502C356.469 17.5055 354.123 18.3942 352.3 20.002C350.7 21.102 349.4 22.202 346.5 22.202C343.6 22.202 342.3 21.102 340.8 20.002C339.2 18.902 337.7 17.502 334.2 17.502C330.8 17.502 329.2 18.902 327.6 20.002C326.1 21.102 324.8 22.202 321.9 22.202C319.2 22.202 317.8 21.102 316.4 20.002C314.8 18.902 313 17.502 309.7 17.502C306.2 17.502 304.5 18.902 303 20.002C301.4 21.102 300.2 22.202 297.3 22.202C294.4 22.202 293 21.102 291.6 20.002C290 18.902 288.4 17.502 284.9 17.502C281.4 17.502 279.9 18.902 278.2 20.002C276.5 21.102 275.4 22.202 272.5 22.202C269.6 22.202 268.4 21.102 266.8 20.002C265.2 18.902 263.6 17.502 260.1 17.502C256.6 17.502 255.1 18.902 253.5 20.002C252 21.102 250.6 22.202 247.9 22.202C245.786 22.2409 243.74 21.4513 242.2 20.002C240.2 18.902 238.7 17.502 235.4 17.502C232.1 17.502 230.3 18.902 228.7 20.002C227.1 21.102 225.8 22.202 223 22.202C220.2 22.202 218.8 21.102 217.2 20.002C215.6 18.902 214.1 17.502 210.6 17.502C207.1 17.502 205.5 18.902 203.9 20.002C202.374 21.4099 200.376 22.1949 198.3 22.202C196.195 22.1911 194.167 21.4083 192.6 20.002C191 18.902 189.3 17.502 185.9 17.502H185.3C181.8 17.502 180.2 18.902 178.6 20.002C177.074 21.4099 175.076 22.1949 173 22.202C170.889 22.2201 168.851 21.4334 167.3 20.002C165.7 18.902 164 17.502 160.6 17.502C157.2 17.502 155.6 18.902 154 20.002C152.4 21.102 151.1 22.202 148.2 22.202C145.4 22.202 144.2 21.102 142.5 20.002C140.9 18.902 139.3 17.502 135.9 17.502C132.5 17.502 130.8 18.902 129.2 20.002C127.674 21.4099 125.676 22.1949 123.6 22.202C121.495 22.1911 119.467 21.4083 117.9 20.002C116.3 18.902 114.6 17.502 111.2 17.502C107.9 17.502 106.2 18.902 104.6 20.002C103 21.102 101.7 22.202 98.8 22.202C96.6894 22.2201 94.6511 21.4334 93.1 20.002C91.5 18.902 89.9 17.502 86.5 17.502C83.1 17.502 81.4 18.902 79.8 20.002C78.4 21.102 76.9 22.202 74.1 22.202C71.3 22.202 69.9 21.102 68.5 20.002C66.9 18.902 65.2 17.502 61.8 17.502C59.3693 17.5055 57.023 18.3942 55.2 20.002C53.6 21.102 52.3 22.202 49.4 22.202C47.2894 22.2201 45.2512 21.4334 43.7 20.002C42.1 18.902 40.5 17.502 37.1 17.502C33.7 17.502 32.1 18.902 30.5 20.002C28.9 21.102 27.5 22.202 24.7 22.202C22 22.202 20.5 21.102 18.9 20.002C17.4 18.902 15.9 17.502 12.6 17.502C10.1298 17.4516 7.73343 18.3458 5.9 20.002C4.3 21.102 3.1 22.202 0.200001 22.202L0 23.802V23.902Z" fill="#FF4742"/>
</svg>
