<svg width="792" height="23" viewBox="0 0 792 23" fill="none" xmlns="http://www.w3.org/2000/svg">
<path d="M396 12.0138C399.5 12.0138 401.1 10.5769 402.7 9.44786C404.1 8.31886 405.6 7.08724 408.4 7.08724C411.3 7.08724 412.6 8.31886 414 9.44786C415.6 10.4742 417.3 12.0138 420.7 12.0138C423.131 12.0102 425.477 11.098 427.3 9.44786C428.9 8.31886 430.2 7.08724 433.1 7.08724C436 7.08724 437.3 8.31886 438.8 9.44786C440.4 10.4742 441.9 12.0138 445.4 12.0138C448.8 12.0138 450.4 10.5769 452 9.44786C453.6 8.31886 454.8 7.08724 457.7 7.08724C460.4 7.08724 461.8 8.31886 463.2 9.44786C464.8 10.4742 466.6 12.0138 469.9 12.0138C473.4 12.0138 475.1 10.5769 476.6 9.44786C478.2 8.31886 479.4 7.08724 482.3 7.08724C485.2 7.08724 486.6 8.31886 488 9.44786C489.6 10.4742 491.2 12.0138 494.7 12.0138C498.2 12.0138 499.7 10.5769 501.4 9.44786C503.1 8.31886 504.2 7.08724 507.1 7.08724C509.9 7.08724 511.2 8.31886 512.8 9.44786C514.4 10.5769 516 12.0138 519.5 12.0138C523 12.0138 524.5 10.5769 526.1 9.44786C527.6 8.31886 529 7.08724 531.7 7.08724C534.6 7.08724 536 8.31886 537.4 9.44786C539.4 10.4742 540.9 12.0138 544.2 12.0138C547.5 12.0138 549.3 10.5769 550.9 9.44786C552.5 8.31886 553.8 7.08724 556.6 7.08724C559.4 7.08724 560.8 8.31886 562.4 9.44786C563.9 10.4742 565.5 12.0138 569 12.0138C572.5 12.0138 574.1 10.5769 575.7 9.44786C577.1 8.31886 578.6 7.08724 581.3 7.08724C584 7.08724 585.5 8.31886 587 9.44786C588.6 10.4742 590.3 12.0138 593.6 12.0138H594.3C597.8 12.0138 599.4 10.5769 601 9.44786C602.4 8.31886 603.9 7.08724 606.6 7.08724C609.4 7.08724 610.9 8.31886 612.3 9.44786C613.9 10.4742 615.6 12.0138 619 12.0138C622.4 12.0138 624 10.5769 625.6 9.44786C627.2 8.31886 628.5 7.08724 631.4 7.08724C634.2 7.08724 635.4 8.31886 637.1 9.44786C638.7 10.4742 640.2 12.0138 643.7 12.0138C647.2 12.0138 648.8 10.5769 650.4 9.44786C651.8 8.31886 653.3 7.08724 656 7.08724C658.7 7.08724 660.3 8.31886 661.7 9.44786C663.3 10.4742 665 12.0138 668.4 12.0138C671.8 12.0138 673.4 10.5769 675 9.44786C676.6 8.31886 677.9 7.08724 680.8 7.08724C683.6 7.08724 685 8.31886 686.5 9.44786C688.1 10.4742 689.7 12.0138 693.1 12.0138C696.5 12.0138 698.2 10.5769 699.8 9.44786C701.2 8.31886 702.7 7.08724 705.5 7.08724C708.3 7.08724 709.7 8.31886 711.1 9.44786C712.7 10.4742 714.4 12.0138 717.8 12.0138C721.2 12.0138 723 10.5769 724.4 9.44786C726 8.31886 727.3 7.08724 730.2 7.08724C733 7.08724 734.4 8.31886 735.9 9.44786C737.5 10.4742 739.1 12.0138 742.6 12.0138C745.9 12.0138 747.5 10.5769 749.1 9.44786C750.7 8.31886 752.1 7.08724 754.9 7.08724C757.6 7.08724 759.1 8.31886 760.7 9.44786C762.2 10.4742 763.7 12.0138 767 12.0138C770.5 12.0138 772.3 10.5769 773.7 9.44786C775.3 8.31886 776.5 7.08724 779.4 7.08724C782.3 7.08724 784 8.31886 785.3 9.44786C786.9 10.4742 788.5 12.0138 792 12.0138V10.3716C789.1 10.3716 787.7 9.2426 786.2 8.1136C784.6 6.9846 783.1 5.5477 779.6 5.5477C776.1 5.5477 774.5 6.9846 772.9 8.1136C771.5 9.2426 770 10.3716 767.2 10.3716C764.4 10.3716 763 9.2426 761.6 8.1136C760 6.9846 758.3 5.5477 754.9 5.5477C752.469 5.55129 750.123 6.46344 748.3 8.1136C746.7 9.2426 745.4 10.3716 742.5 10.3716C739.6 10.3716 738.3 9.2426 736.8 8.1136C735.2 6.9846 733.7 5.5477 730.2 5.5477C726.8 5.5477 725.2 6.9846 723.6 8.1136C722.1 9.2426 720.8 10.3716 717.9 10.3716C715.2 10.3716 713.8 9.2426 712.4 8.1136C710.8 6.9846 709 5.5477 705.7 5.5477C702.2 5.5477 700.5 6.9846 699 8.1136C697.4 9.2426 696.2 10.3716 693.3 10.3716C690.4 10.3716 689 9.2426 687.6 8.1136C686 6.9846 684.4 5.5477 680.9 5.5477C677.4 5.5477 675.9 6.9846 674.2 8.1136C672.5 9.2426 671.4 10.3716 668.5 10.3716C665.6 10.3716 664.4 9.2426 662.8 8.1136C661.2 6.9846 659.6 5.5477 656.1 5.5477C652.6 5.5477 651.1 6.9846 649.5 8.1136C648 9.2426 646.6 10.3716 643.9 10.3716C641.786 10.4115 639.74 9.60108 638.2 8.1136C636.2 6.9846 634.7 5.5477 631.4 5.5477C628.1 5.5477 626.3 6.9846 624.7 8.1136C623.1 9.2426 621.8 10.3716 619 10.3716C616.2 10.3716 614.8 9.2426 613.2 8.1136C611.6 6.9846 610.1 5.5477 606.6 5.5477C603.1 5.5477 601.5 6.9846 599.9 8.1136C598.374 9.55862 596.376 10.3643 594.3 10.3716C592.195 10.3604 590.167 9.55696 588.6 8.1136C587 6.9846 585.3 5.5477 581.9 5.5477H581.3C577.8 5.5477 576.2 6.9846 574.6 8.1136C573.074 9.55862 571.076 10.3643 569 10.3716C566.889 10.3902 564.851 9.58275 563.3 8.1136C561.7 6.9846 560 5.5477 556.6 5.5477C553.2 5.5477 551.6 6.9846 550 8.1136C548.4 9.2426 547.1 10.3716 544.2 10.3716C541.4 10.3716 540.2 9.2426 538.5 8.1136C536.9 6.9846 535.3 5.5477 531.9 5.5477C528.5 5.5477 526.8 6.9846 525.2 8.1136C523.674 9.55862 521.676 10.3643 519.6 10.3716C517.495 10.3604 515.467 9.55696 513.9 8.1136C512.3 6.9846 510.6 5.5477 507.2 5.5477C503.9 5.5477 502.2 6.9846 500.6 8.1136C499 9.2426 497.7 10.3716 494.8 10.3716C492.689 10.3902 490.651 9.58275 489.1 8.1136C487.5 6.9846 485.9 5.5477 482.5 5.5477C479.1 5.5477 477.4 6.9846 475.8 8.1136C474.4 9.2426 472.9 10.3716 470.1 10.3716C467.3 10.3716 465.9 9.2426 464.5 8.1136C462.9 6.9846 461.2 5.5477 457.8 5.5477C455.369 5.55129 453.023 6.46344 451.2 8.1136C449.6 9.2426 448.3 10.3716 445.4 10.3716C443.289 10.3902 441.251 9.58275 439.7 8.1136C438.1 6.9846 436.5 5.5477 433.1 5.5477C429.7 5.5477 428.1 6.9846 426.5 8.1136C424.9 9.2426 423.5 10.3716 420.7 10.3716C418 10.3716 416.5 9.2426 414.9 8.1136C413.4 6.9846 411.9 5.5477 408.6 5.5477C406.13 5.496 403.733 6.41373 401.9 8.1136C400.3 9.2426 399.1 10.3716 396.2 10.3716L396 12.0138Z" fill="#E5E5E5"/>
<path d="M396 17.4556C399.5 17.4556 401.1 16.0187 402.7 14.8897C404.251 13.4206 406.289 12.6131 408.4 12.6317C411.3 12.6317 412.6 13.6581 414 14.8897C415.6 16.0187 417.3 17.4556 420.7 17.4556C423.131 17.452 425.477 16.5399 427.3 14.8897C428.9 13.7607 430.2 12.6317 433.1 12.6317C436 12.6317 437.3 13.6581 438.8 14.8897C440.4 16.0187 441.9 17.4556 445.4 17.4556C448.8 17.4556 450.4 16.0187 452 14.8897C453.6 13.7607 454.8 12.6317 457.7 12.6317C460.4 12.6317 461.8 13.6581 463.2 14.8897C464.8 16.0187 466.6 17.4556 469.9 17.4556C473.4 17.4556 475.1 16.0187 476.6 14.8897C478.2 13.7607 479.4 12.6317 482.3 12.6317C485.2 12.6317 486.6 13.6581 488 14.8897C489.6 16.0187 491.2 17.4556 494.7 17.4556C498.2 17.4556 499.7 16.0187 501.4 14.8897C503.1 13.7607 504.2 12.6317 507.1 12.6317C509.9 12.6317 511.2 13.6581 512.8 14.8897C514.4 16.1213 516 17.4556 519.5 17.4556C523 17.4556 524.5 16.0187 526.1 14.8897C527.6 13.7607 529 12.6317 531.7 12.6317C534.6 12.6317 536 13.6581 537.4 14.8897C539.4 16.0187 540.9 17.4556 544.2 17.4556C547.5 17.4556 549.3 16.0187 550.9 14.8897C552.5 13.7607 553.8 12.6317 556.6 12.6317C559.4 12.6317 560.8 13.6581 562.4 14.8897C563.9 16.0187 565.5 17.4556 569 17.4556C572.5 17.4556 574.1 16.0187 575.7 14.8897C577.226 13.4447 579.224 12.639 581.3 12.6317C584 12.6317 585.5 13.6581 587 14.8897C588.6 16.0187 590.3 17.4556 593.6 17.4556H594.3C597.8 17.4556 599.4 16.0187 601 14.8897C602.526 13.4447 604.524 12.639 606.6 12.6317C609.4 12.6317 610.9 13.6581 612.3 14.8897C613.9 16.0187 615.6 17.4556 619 17.4556C622.4 17.4556 624 16.0187 625.6 14.8897C627.2 13.7607 628.5 12.6317 631.4 12.6317C634.2 12.6317 635.4 13.6581 637.1 14.8897C638.7 16.0187 640.2 17.4556 643.7 17.4556C647.2 17.4556 648.8 16.0187 650.4 14.8897C651.926 13.4447 653.924 12.639 656 12.6317C658.116 12.5807 660.166 13.3927 661.7 14.8897C663.3 16.0187 665 17.4556 668.4 17.4556C671.8 17.4556 673.4 16.0187 675 14.8897C676.6 13.7607 677.9 12.6317 680.8 12.6317C682.916 12.5807 684.966 13.3927 686.5 14.8897C688.1 16.0187 689.7 17.4556 693.1 17.4556C696.5 17.4556 698.2 16.0187 699.8 14.8897C701.2 13.7607 702.7 12.6317 705.5 12.6317C708.3 12.6317 709.7 13.6581 711.1 14.8897C712.7 16.0187 714.4 17.4556 717.8 17.4556C721.2 17.4556 723 16.0187 724.4 14.8897C726 13.7607 727.3 12.6317 730.2 12.6317C732.316 12.5807 734.366 13.3927 735.9 14.8897C737.5 16.0187 739.1 17.4556 742.6 17.4556C745.9 17.4556 747.5 16.0187 749.1 14.8897C750.7 13.7607 752.1 12.6317 754.9 12.6317C757.6 12.6317 759.1 13.6581 760.7 14.8897C762.2 16.0187 763.7 17.4556 767 17.4556C770.5 17.4556 772.3 16.0187 773.7 14.8897C775.3 13.7607 776.5 12.6317 779.4 12.6317C780.481 12.5789 781.561 12.7517 782.576 13.1399C783.59 13.528 784.517 14.1233 785.3 14.8897C786.9 16.0187 788.5 17.4556 792 17.4556V15.8134C789.1 15.8134 787.7 14.7871 786.2 13.5554C784.6 12.5291 783.1 10.9895 779.6 10.9895C776.1 10.9895 774.5 12.4264 772.9 13.5554C771.5 14.6844 770 15.8134 767.2 15.8134C764.4 15.8134 763 14.7871 761.6 13.5554C760 12.5291 758.3 10.9895 754.9 10.9895C752.469 10.9931 750.123 11.9053 748.3 13.5554C746.7 14.6844 745.4 15.8134 742.5 15.8134C739.6 15.8134 738.3 14.7871 736.8 13.5554C735.2 12.5291 733.7 10.9895 730.2 10.9895C726.8 10.9895 725.2 12.4264 723.6 13.5554C722.1 14.6844 720.8 15.8134 717.9 15.8134C715.2 15.8134 713.8 14.7871 712.4 13.5554C710.8 12.5291 709 10.9895 705.7 10.9895C702.2 10.9895 700.5 12.4264 699 13.5554C697.4 14.6844 696.2 15.8134 693.3 15.8134C690.4 15.8134 689 14.7871 687.6 13.5554C686 12.5291 684.4 10.9895 680.9 10.9895C677.4 10.9895 675.9 12.4264 674.2 13.5554C672.5 14.6844 671.4 15.8134 668.5 15.8134C665.6 15.8134 664.4 14.7871 662.8 13.5554C661.2 12.5291 659.6 10.9895 656.1 10.9895C652.6 10.9895 651.1 12.4264 649.5 13.5554C648 14.6844 646.6 15.8134 643.9 15.8134C641 15.8134 639.6 14.7871 638.2 13.5554C636.2 12.5291 634.7 10.9895 631.4 10.9895C628.1 10.9895 626.3 12.4264 624.7 13.5554C623.1 14.6844 621.8 15.8134 619 15.8134C616.2 15.8134 614.8 14.7871 613.2 13.5554C611.6 12.3238 610.1 10.9895 606.6 10.9895C603.1 10.9895 601.5 12.4264 599.9 13.5554C598.374 15.0004 596.376 15.8061 594.3 15.8134C592.195 15.8022 590.167 14.9988 588.6 13.5554C587 12.5291 585.3 10.9895 581.9 10.9895H581.3C577.8 10.9895 576.2 12.4264 574.6 13.5554C573.074 15.0004 571.076 15.8061 569 15.8134C566.889 15.832 564.851 15.0246 563.3 13.5554C561.7 12.5291 560 10.9895 556.6 10.9895C553.2 10.9895 551.6 12.4264 550 13.5554C548.4 14.6844 547.1 15.8134 544.2 15.8134C541.4 15.8134 540.2 14.7871 538.5 13.5554C536.9 12.5291 535.3 10.9895 531.9 10.9895C528.5 10.9895 526.8 12.4264 525.2 13.5554C523.674 15.0004 521.676 15.8061 519.6 15.8134C517.495 15.8022 515.467 14.9988 513.9 13.5554C512.3 12.5291 510.6 10.9895 507.2 10.9895C503.9 10.9895 502.2 12.4264 500.6 13.5554C499 14.6844 497.7 15.8134 494.8 15.8134C492.689 15.832 490.651 15.0246 489.1 13.5554C487.5 12.5291 485.9 10.9895 482.5 10.9895C479.1 10.9895 477.4 12.4264 475.8 13.5554C474.4 14.6844 472.9 15.8134 470.1 15.8134C467.3 15.8134 465.9 14.7871 464.5 13.5554C462.9 12.5291 461.2 10.9895 457.8 10.9895C455.369 10.9931 453.023 11.9053 451.2 13.5554C449.6 14.6844 448.3 15.8134 445.4 15.8134C443.289 15.832 441.251 15.0246 439.7 13.5554C438.1 12.5291 436.5 10.9895 433.1 10.9895C429.7 10.9895 428.1 12.4264 426.5 13.5554C424.9 14.6844 423.5 15.8134 420.7 15.8134C418 15.8134 416.5 14.7871 414.9 13.5554C413.4 12.5291 411.9 10.9895 408.6 10.9895C406.13 10.9378 403.733 11.8556 401.9 13.5554C400.3 14.6844 399.1 15.8134 396.2 15.8134L396 17.4556Z" fill="#E5E5E5"/>
<path d="M396 6.46943C399.5 6.46943 401.1 5.03253 402.7 3.90353C404.1 2.87717 405.6 1.64554 408.4 1.64554C411.3 1.64554 412.6 2.77454 414 3.90353C415.6 5.03253 417.3 6.57208 420.7 6.57208C423.144 6.54023 425.492 5.59094 427.3 3.90353C428.9 2.87717 430.2 1.64554 433.1 1.64554C436 1.64554 437.3 2.77454 438.8 3.90353C440.4 5.03253 441.9 6.57208 445.4 6.57208C448.8 6.57208 450.4 5.03253 452 3.90353C453.6 2.77454 454.8 1.64554 457.7 1.64554C460.4 1.64554 461.8 2.77454 463.2 3.90353C464.8 5.03253 466.6 6.57208 469.9 6.57208C473.4 6.57208 475.1 5.03253 476.6 3.90353C478.2 2.87717 479.4 1.64554 482.3 1.64554C485.2 1.64554 486.6 2.77454 488 3.90353C489.6 5.03253 491.2 6.57208 494.7 6.57208C498.2 6.57208 499.7 5.03253 501.4 3.90353C503.1 2.77454 504.2 1.64554 507.1 1.64554C509.9 1.64554 511.2 2.77454 512.8 3.90353C514.4 5.03253 516 6.57208 519.5 6.57208C523 6.57208 524.5 5.03253 526.1 3.90353C527.6 2.87717 529 1.64554 531.7 1.64554C534.6 1.64554 536 2.77454 537.4 3.90353C539.4 5.03253 540.9 6.57208 544.2 6.57208C547.5 6.57208 549.3 5.03253 550.9 3.90353C552.5 2.87717 553.8 1.64554 556.6 1.64554C559.4 1.64554 560.8 2.77454 562.4 3.90353C563.9 5.03253 565.5 6.57208 569 6.57208C572.5 6.57208 574.1 5.03253 575.7 3.90353C577.1 2.87717 578.6 1.64554 581.3 1.64554C584 1.64554 585.5 2.77454 587 3.90353C588.6 5.03253 590.3 6.57208 593.6 6.57208H594.3C597.8 6.57208 599.4 5.03253 601 3.90353C602.4 2.87717 603.9 1.64554 606.6 1.64554C609.4 1.64554 610.9 2.77454 612.3 3.90353C613.9 5.03253 615.6 6.57208 619 6.57208C622.4 6.57208 624 5.03253 625.6 3.90353C627.2 2.87717 628.5 1.64554 631.4 1.64554C634.2 1.64554 635.4 2.77454 637.1 3.90353C638.7 5.03253 640.2 6.57208 643.7 6.57208C647.2 6.57208 648.8 5.03253 650.4 3.90353C651.8 2.87717 653.3 1.64554 656 1.64554C658.7 1.64554 660.3 2.77454 661.7 3.90353C663.3 5.03253 665 6.57208 668.4 6.57208C671.8 6.57208 673.4 5.03253 675 3.90353C676.6 2.87717 677.9 1.64554 680.8 1.64554C683.6 1.64554 685 2.77454 686.5 3.90353C688.1 5.03253 689.7 6.57208 693.1 6.57208C696.5 6.57208 698.2 5.03253 699.8 3.90353C701.2 2.87717 702.7 1.64554 705.5 1.64554C708.3 1.64554 709.7 2.77454 711.1 3.90353C712.7 5.03253 714.4 6.57208 717.8 6.57208C721.2 6.57208 723 5.03253 724.4 3.90353C726 2.87717 727.3 1.64554 730.2 1.64554C733 1.64554 734.4 2.77454 735.9 3.90353C737.5 5.03253 739.1 6.57208 742.6 6.57208C745.9 6.57208 747.5 5.03253 749.1 3.90353C750.7 2.87717 752.1 1.64554 754.9 1.64554C757.6 1.64554 759.1 2.77454 760.7 3.90353C762.2 5.03253 763.7 6.57208 767 6.57208C770.5 6.57208 772.3 5.03253 773.7 3.90353C775.3 2.87717 776.5 1.64554 779.4 1.64554C782.3 1.64554 784 2.77454 785.3 3.90353C786.9 5.03253 788.5 6.57208 792 6.57208V4.92989C789.1 4.92989 787.7 3.8009 786.2 2.6719C784.6 1.44027 783.1 0.00336158 779.6 0.00336158C776.1 0.00336158 774.5 1.44027 772.9 2.6719C771.5 3.69826 770 4.92989 767.2 4.92989C764.4 4.92989 763 3.8009 761.6 2.6719C760 1.44027 758.3 0.00336158 754.9 0.00336158C752.456 0.0352073 750.108 0.984499 748.3 2.6719C746.7 3.69826 745.4 4.92989 742.5 4.92989C739.6 4.92989 738.3 3.8009 736.8 2.6719C735.2 1.44027 733.7 0.00336158 730.2 0.00336158C726.8 0.00336158 725.2 1.44027 723.6 2.6719C722.1 3.69826 720.8 4.92989 717.9 4.92989C715.2 4.92989 713.8 3.8009 712.4 2.6719C710.8 1.44027 709 0.00336158 705.7 0.00336158C702.2 0.00336158 700.5 1.44027 699 2.6719C697.4 3.69826 696.2 4.92989 693.3 4.92989C690.4 4.92989 689 3.8009 687.6 2.6719C686 1.44027 684.4 0.00336158 680.9 0.00336158C677.4 0.00336158 675.9 1.44027 674.2 2.6719C672.5 3.90354 671.4 4.92989 668.5 4.92989C665.6 4.92989 664.4 3.8009 662.8 2.6719C661.2 1.44027 659.6 0.00336158 656.1 0.00336158C652.6 0.00336158 651.1 1.44027 649.5 2.6719C648 3.69826 646.6 4.92989 643.9 4.92989C641.786 4.96976 639.74 4.15938 638.2 2.6719C636.2 1.44027 634.7 0.00336158 631.4 0.00336158C628.1 0.00336158 626.3 1.44027 624.7 2.6719C623.1 3.69826 621.8 4.92989 619 4.92989C616.2 4.92989 614.8 3.8009 613.2 2.6719C611.6 1.54291 610.1 0.00336158 606.6 0.00336158C603.1 0.00336158 601.5 1.44027 599.9 2.6719C598.5 3.69826 597 4.92989 594.3 4.92989C592.195 4.91867 590.167 4.11526 588.6 2.6719C587 1.44027 585.3 0.00336158 581.9 0.00336158H581.3C577.8 0.00336158 576.2 1.44027 574.6 2.6719C573.2 3.69826 571.7 4.92989 569 4.92989C566.889 4.94847 564.851 4.14105 563.3 2.6719C561.7 1.44027 560 0.00336158 556.6 0.00336158C553.2 0.00336158 551.6 1.44027 550 2.6719C548.4 3.69826 547.1 4.92989 544.2 4.92989C541.4 4.92989 540.2 3.8009 538.5 2.6719C536.9 1.44027 535.3 0.00336158 531.9 0.00336158C528.5 0.00336158 526.8 1.44027 525.2 2.6719C523.8 3.69826 522.3 4.92989 519.6 4.92989C517.495 4.91867 515.467 4.11526 513.9 2.6719C512.3 1.44027 510.6 0.00336158 507.2 0.00336158C503.9 0.00336158 502.2 1.44027 500.6 2.6719C499 3.69826 497.7 4.92989 494.8 4.92989C492.689 4.94847 490.651 4.14105 489.1 2.6719C487.5 1.44027 485.9 0.00336158 482.5 0.00336158C479.1 0.00336158 477.4 1.44027 475.8 2.6719C474.4 3.69826 472.9 4.92989 470.1 4.92989C467.3 4.92989 465.9 3.8009 464.5 2.6719C462.9 1.44027 461.2 0.00336158 457.8 0.00336158C455.356 0.0352073 453.008 0.984499 451.2 2.6719C449.6 3.69826 448.3 4.92989 445.4 4.92989C443.289 4.94847 441.251 4.14105 439.7 2.6719C438.1 1.44027 436.5 0.00336158 433.1 0.00336158C429.7 0.00336158 428.1 1.44027 426.5 2.6719C424.9 3.69826 423.5 4.92989 420.7 4.92989C418 4.92989 416.5 3.8009 414.9 2.6719C413.4 1.44027 411.9 0.00336158 408.6 0.00336158C407.367 -0.0302441 406.139 0.188401 404.989 0.646544C403.838 1.10469 402.789 1.79317 401.9 2.6719C400.3 3.69826 399.1 4.92989 396.2 4.92989L396 6.57208V6.46943Z" fill="#E5E5E5"/>
<path d="M396 23C399.5 23 401.1 21.4604 402.7 20.3314C404.1 19.2025 405.6 17.9708 408.4 17.9708C411.3 17.9708 412.6 19.2025 414 20.3314C415.6 21.3578 417.3 22.8973 420.7 22.8973C423.131 22.8938 425.477 21.9816 427.3 20.3314C428.9 19.2025 430.2 17.9708 433.1 17.9708C436 17.9708 437.3 19.2025 438.8 20.3314C440.4 21.3578 441.9 22.8973 445.4 22.8973C448.8 22.8973 450.4 21.4604 452 20.3314C453.6 19.2025 454.8 17.9708 457.7 17.9708C460.4 17.9708 461.8 19.2025 463.2 20.3314C464.8 21.3578 466.6 22.8973 469.9 22.8973C473.4 22.8973 475.1 21.4604 476.6 20.3314C478.2 19.2025 479.4 17.9708 482.3 17.9708C485.2 17.9708 486.6 19.2025 488 20.3314C489.6 21.3578 491.2 22.8973 494.7 22.8973C498.2 22.8973 499.7 21.4604 501.4 20.3314C503.1 19.2025 504.2 17.9708 507.1 17.9708C509.9 17.9708 511.2 19.2025 512.8 20.3314C514.4 21.4604 516 22.8973 519.5 22.8973C523 22.8973 524.5 21.4604 526.1 20.3314C527.6 19.2025 529 17.9708 531.7 17.9708C534.6 17.9708 536 19.2025 537.4 20.3314C539.4 21.3578 540.9 22.8973 544.2 22.8973C547.5 22.8973 549.3 21.4604 550.9 20.3314C552.5 19.2025 553.8 17.9708 556.6 17.9708C559.4 17.9708 560.8 19.2025 562.4 20.3314C563.9 21.3578 565.5 22.8973 569 22.8973C572.5 22.8973 574.1 21.4604 575.7 20.3314C577.1 19.2025 578.6 17.9708 581.3 17.9708C584 17.9708 585.5 19.2025 587 20.3314C588.6 21.3578 590.3 22.8973 593.6 22.8973H594.3C597.8 22.8973 599.4 21.4604 601 20.3314C602.4 19.2025 603.9 17.9708 606.6 17.9708C609.4 17.9708 610.9 19.2025 612.3 20.3314C613.9 21.3578 615.6 22.8973 619 22.8973C622.4 22.8973 624 21.4604 625.6 20.3314C627.2 19.2025 628.5 17.9708 631.4 17.9708C634.2 17.9708 635.4 19.2025 637.1 20.3314C638.7 21.3578 640.2 22.8973 643.7 22.8973C647.2 22.8973 648.8 21.4604 650.4 20.3314C651.8 19.2025 653.3 17.9708 656 17.9708C658.7 17.9708 660.3 19.2025 661.7 20.3314C663.3 21.3578 665 22.8973 668.4 22.8973C671.8 22.8973 673.4 21.4604 675 20.3314C676.6 19.2025 677.9 17.9708 680.8 17.9708C683.6 17.9708 685 19.2025 686.5 20.3314C688.1 21.3578 689.7 22.8973 693.1 22.8973C696.5 22.8973 698.2 21.4604 699.8 20.3314C701.2 19.2025 702.7 17.9708 705.5 17.9708C708.3 17.9708 709.7 19.2025 711.1 20.3314C712.7 21.3578 714.4 22.8973 717.8 22.8973C721.2 22.8973 723 21.4604 724.4 20.3314C726 19.2025 727.3 17.9708 730.2 17.9708C733 17.9708 734.4 19.2025 735.9 20.3314C737.5 21.3578 739.1 22.8973 742.6 22.8973C745.9 22.8973 747.5 21.4604 749.1 20.3314C750.7 19.2025 752.1 17.9708 754.9 17.9708C757.6 17.9708 759.1 19.2025 760.7 20.3314C762.2 21.3578 763.7 22.8973 767 22.8973C770.5 22.8973 772.3 21.4604 773.7 20.3314C775.3 19.2025 776.5 17.9708 779.4 17.9708C782.3 17.9708 784 19.2025 785.3 20.3314C786.9 21.3578 788.5 22.8973 792 22.8973V21.2552C789.1 21.2552 787.7 20.1262 786.2 18.9972C784.6 17.8682 783.1 16.4313 779.6 16.4313C776.1 16.4313 774.5 17.8682 772.9 18.9972C771.5 20.1262 770 21.2552 767.2 21.2552C764.4 21.2552 763 20.1262 761.6 18.9972C760 17.8682 758.3 16.4313 754.9 16.4313C752.469 16.4349 750.123 17.347 748.3 18.9972C746.7 20.1262 745.4 21.2552 742.5 21.2552C739.6 21.2552 738.3 20.1262 736.8 18.9972C735.2 17.8682 733.7 16.4313 730.2 16.4313C726.8 16.4313 725.2 17.8682 723.6 18.9972C722.1 20.1262 720.8 21.2552 717.9 21.2552C715.2 21.2552 713.8 20.1262 712.4 18.9972C710.8 17.8682 709 16.4313 705.7 16.4313C702.2 16.4313 700.5 17.8682 699 18.9972C697.4 20.1262 696.2 21.2552 693.3 21.2552C690.4 21.2552 689 20.1262 687.6 18.9972C686 17.8682 684.4 16.4313 680.9 16.4313C677.4 16.4313 675.9 17.8682 674.2 18.9972C672.5 20.1262 671.4 21.2552 668.5 21.2552C665.6 21.2552 664.4 20.1262 662.8 18.9972C661.2 17.8682 659.6 16.4313 656.1 16.4313C652.6 16.4313 651.1 17.8682 649.5 18.9972C648 20.1262 646.6 21.2552 643.9 21.2552C641.786 21.295 639.74 20.4847 638.2 18.9972C636.2 17.8682 634.7 16.4313 631.4 16.4313C628.1 16.4313 626.3 17.8682 624.7 18.9972C623.1 20.1262 621.8 21.2552 619 21.2552C616.2 21.2552 614.8 20.1262 613.2 18.9972C611.6 17.8682 610.1 16.4313 606.6 16.4313C603.1 16.4313 601.5 17.8682 599.9 18.9972C598.374 20.4422 596.376 21.2479 594.3 21.2552C592.195 21.244 590.167 20.4405 588.6 18.9972C587 17.8682 585.3 16.4313 581.9 16.4313H581.3C577.8 16.4313 576.2 17.8682 574.6 18.9972C573.074 20.4422 571.076 21.2479 569 21.2552C566.889 21.2738 564.851 20.4663 563.3 18.9972C561.7 17.8682 560 16.4313 556.6 16.4313C553.2 16.4313 551.6 17.8682 550 18.9972C548.4 20.1262 547.1 21.2552 544.2 21.2552C541.4 21.2552 540.2 20.1262 538.5 18.9972C536.9 17.8682 535.3 16.4313 531.9 16.4313C528.5 16.4313 526.8 17.8682 525.2 18.9972C523.674 20.4422 521.676 21.2479 519.6 21.2552C517.495 21.244 515.467 20.4405 513.9 18.9972C512.3 17.8682 510.6 16.4313 507.2 16.4313C503.9 16.4313 502.2 17.8682 500.6 18.9972C499 20.1262 497.7 21.2552 494.8 21.2552C492.689 21.2738 490.651 20.4663 489.1 18.9972C487.5 17.8682 485.9 16.4313 482.5 16.4313C479.1 16.4313 477.4 17.8682 475.8 18.9972C474.4 20.1262 472.9 21.2552 470.1 21.2552C467.3 21.2552 465.9 20.1262 464.5 18.9972C462.9 17.8682 461.2 16.4313 457.8 16.4313C455.369 16.4349 453.023 17.347 451.2 18.9972C449.6 20.1262 448.3 21.2552 445.4 21.2552C443.289 21.2738 441.251 20.4663 439.7 18.9972C438.1 17.8682 436.5 16.4313 433.1 16.4313C429.7 16.4313 428.1 17.8682 426.5 18.9972C424.9 20.1262 423.5 21.2552 420.7 21.2552C418 21.2552 416.5 20.1262 414.9 18.9972C413.4 17.8682 411.9 16.4313 408.6 16.4313C406.13 16.3796 403.733 17.2973 401.9 18.9972C400.3 20.1262 399.1 21.2552 396.2 21.2552L396 22.8973V23Z" fill="#E5E5E5"/>
<path d="M0 12.0138C3.5 12.0138 5.1 10.5769 6.7 9.44786C8.1 8.31886 9.6 7.08724 12.4 7.08724C15.3 7.08724 16.6 8.31886 18 9.44786C19.6 10.4742 21.3 12.0138 24.7 12.0138C27.1307 12.0102 29.477 11.098 31.3 9.44786C32.9 8.31886 34.2 7.08724 37.1 7.08724C40 7.08724 41.3 8.31886 42.8 9.44786C44.4 10.4742 45.9 12.0138 49.4 12.0138C52.8 12.0138 54.4 10.5769 56 9.44786C57.6 8.31886 58.8 7.08724 61.7 7.08724C64.4 7.08724 65.8 8.31886 67.2 9.44786C68.8 10.4742 70.6 12.0138 73.9 12.0138C77.4 12.0138 79.1 10.5769 80.6 9.44786C82.2 8.31886 83.4 7.08724 86.3 7.08724C89.2 7.08724 90.6 8.31886 92 9.44786C93.6 10.4742 95.2 12.0138 98.7 12.0138C102.2 12.0138 103.7 10.5769 105.4 9.44786C107.1 8.31886 108.2 7.08724 111.1 7.08724C113.9 7.08724 115.2 8.31886 116.8 9.44786C118.4 10.5769 120 12.0138 123.5 12.0138C127 12.0138 128.5 10.5769 130.1 9.44786C131.6 8.31886 133 7.08724 135.7 7.08724C138.6 7.08724 140 8.31886 141.4 9.44786C143.4 10.4742 144.9 12.0138 148.2 12.0138C151.5 12.0138 153.3 10.5769 154.9 9.44786C156.5 8.31886 157.8 7.08724 160.6 7.08724C163.4 7.08724 164.8 8.31886 166.4 9.44786C167.9 10.4742 169.5 12.0138 173 12.0138C176.5 12.0138 178.1 10.5769 179.7 9.44786C181.1 8.31886 182.6 7.08724 185.3 7.08724C188 7.08724 189.5 8.31886 191 9.44786C192.6 10.4742 194.3 12.0138 197.6 12.0138H198.3C201.8 12.0138 203.4 10.5769 205 9.44786C206.4 8.31886 207.9 7.08724 210.6 7.08724C213.4 7.08724 214.9 8.31886 216.3 9.44786C217.9 10.4742 219.6 12.0138 223 12.0138C226.4 12.0138 228 10.5769 229.6 9.44786C231.2 8.31886 232.5 7.08724 235.4 7.08724C238.2 7.08724 239.4 8.31886 241.1 9.44786C242.7 10.4742 244.2 12.0138 247.7 12.0138C251.2 12.0138 252.8 10.5769 254.4 9.44786C255.8 8.31886 257.3 7.08724 260 7.08724C262.7 7.08724 264.3 8.31886 265.7 9.44786C267.3 10.4742 269 12.0138 272.4 12.0138C275.8 12.0138 277.4 10.5769 279 9.44786C280.6 8.31886 281.9 7.08724 284.8 7.08724C287.6 7.08724 289 8.31886 290.5 9.44786C292.1 10.4742 293.7 12.0138 297.1 12.0138C300.5 12.0138 302.2 10.5769 303.8 9.44786C305.2 8.31886 306.7 7.08724 309.5 7.08724C312.3 7.08724 313.7 8.31886 315.1 9.44786C316.7 10.4742 318.4 12.0138 321.8 12.0138C325.2 12.0138 327 10.5769 328.4 9.44786C330 8.31886 331.3 7.08724 334.2 7.08724C337 7.08724 338.4 8.31886 339.9 9.44786C341.5 10.4742 343.1 12.0138 346.6 12.0138C349.9 12.0138 351.5 10.5769 353.1 9.44786C354.7 8.31886 356.1 7.08724 358.9 7.08724C361.6 7.08724 363.1 8.31886 364.7 9.44786C366.2 10.4742 367.7 12.0138 371 12.0138C374.5 12.0138 376.3 10.5769 377.7 9.44786C379.3 8.31886 380.5 7.08724 383.4 7.08724C386.3 7.08724 388 8.31886 389.3 9.44786C390.9 10.4742 392.5 12.0138 396 12.0138V10.3716C393.1 10.3716 391.7 9.2426 390.2 8.1136C388.6 6.9846 387.1 5.5477 383.6 5.5477C380.1 5.5477 378.5 6.9846 376.9 8.1136C375.5 9.2426 374 10.3716 371.2 10.3716C368.4 10.3716 367 9.2426 365.6 8.1136C364 6.9846 362.3 5.5477 358.9 5.5477C356.469 5.55129 354.123 6.46344 352.3 8.1136C350.7 9.2426 349.4 10.3716 346.5 10.3716C343.6 10.3716 342.3 9.2426 340.8 8.1136C339.2 6.9846 337.7 5.5477 334.2 5.5477C330.8 5.5477 329.2 6.9846 327.6 8.1136C326.1 9.2426 324.8 10.3716 321.9 10.3716C319.2 10.3716 317.8 9.2426 316.4 8.1136C314.8 6.9846 313 5.5477 309.7 5.5477C306.2 5.5477 304.5 6.9846 303 8.1136C301.4 9.2426 300.2 10.3716 297.3 10.3716C294.4 10.3716 293 9.2426 291.6 8.1136C290 6.9846 288.4 5.5477 284.9 5.5477C281.4 5.5477 279.9 6.9846 278.2 8.1136C276.5 9.2426 275.4 10.3716 272.5 10.3716C269.6 10.3716 268.4 9.2426 266.8 8.1136C265.2 6.9846 263.6 5.5477 260.1 5.5477C256.6 5.5477 255.1 6.9846 253.5 8.1136C252 9.2426 250.6 10.3716 247.9 10.3716C245.786 10.4115 243.74 9.60108 242.2 8.1136C240.2 6.9846 238.7 5.5477 235.4 5.5477C232.1 5.5477 230.3 6.9846 228.7 8.1136C227.1 9.2426 225.8 10.3716 223 10.3716C220.2 10.3716 218.8 9.2426 217.2 8.1136C215.6 6.9846 214.1 5.5477 210.6 5.5477C207.1 5.5477 205.5 6.9846 203.9 8.1136C202.374 9.55862 200.376 10.3643 198.3 10.3716C196.195 10.3604 194.167 9.55696 192.6 8.1136C191 6.9846 189.3 5.5477 185.9 5.5477H185.3C181.8 5.5477 180.2 6.9846 178.6 8.1136C177.074 9.55862 175.076 10.3643 173 10.3716C170.889 10.3902 168.851 9.58275 167.3 8.1136C165.7 6.9846 164 5.5477 160.6 5.5477C157.2 5.5477 155.6 6.9846 154 8.1136C152.4 9.2426 151.1 10.3716 148.2 10.3716C145.4 10.3716 144.2 9.2426 142.5 8.1136C140.9 6.9846 139.3 5.5477 135.9 5.5477C132.5 5.5477 130.8 6.9846 129.2 8.1136C127.674 9.55862 125.676 10.3643 123.6 10.3716C121.495 10.3604 119.467 9.55696 117.9 8.1136C116.3 6.9846 114.6 5.5477 111.2 5.5477C107.9 5.5477 106.2 6.9846 104.6 8.1136C103 9.2426 101.7 10.3716 98.8 10.3716C96.6894 10.3902 94.6511 9.58275 93.1 8.1136C91.5 6.9846 89.9 5.5477 86.5 5.5477C83.1 5.5477 81.4 6.9846 79.8 8.1136C78.4 9.2426 76.9 10.3716 74.1 10.3716C71.3 10.3716 69.9 9.2426 68.5 8.1136C66.9 6.9846 65.2 5.5477 61.8 5.5477C59.3693 5.55129 57.023 6.46344 55.2 8.1136C53.6 9.2426 52.3 10.3716 49.4 10.3716C47.2894 10.3902 45.2512 9.58275 43.7 8.1136C42.1 6.9846 40.5 5.5477 37.1 5.5477C33.7 5.5477 32.1 6.9846 30.5 8.1136C28.9 9.2426 27.5 10.3716 24.7 10.3716C22 10.3716 20.5 9.2426 18.9 8.1136C17.4 6.9846 15.9 5.5477 12.6 5.5477C10.1298 5.496 7.73343 6.41373 5.9 8.1136C4.3 9.2426 3.1 10.3716 0.200001 10.3716L0 12.0138Z" fill="#E5E5E5"/>
<path d="M0 17.4556C3.5 17.4556 5.1 16.0187 6.7 14.8897C8.25116 13.4206 10.2894 12.6131 12.4 12.6317C15.3 12.6317 16.6 13.6581 18 14.8897C19.6 16.0187 21.3 17.4556 24.7 17.4556C27.1307 17.452 29.477 16.5399 31.3 14.8897C32.9 13.7607 34.2 12.6317 37.1 12.6317C40 12.6317 41.3 13.6581 42.8 14.8897C44.4 16.0187 45.9 17.4556 49.4 17.4556C52.8 17.4556 54.4 16.0187 56 14.8897C57.6 13.7607 58.8 12.6317 61.7 12.6317C64.4 12.6317 65.8 13.6581 67.2 14.8897C68.8 16.0187 70.6 17.4556 73.9 17.4556C77.4 17.4556 79.1 16.0187 80.6 14.8897C82.2 13.7607 83.4 12.6317 86.3 12.6317C89.2 12.6317 90.6 13.6581 92 14.8897C93.6 16.0187 95.2 17.4556 98.7 17.4556C102.2 17.4556 103.7 16.0187 105.4 14.8897C107.1 13.7607 108.2 12.6317 111.1 12.6317C113.9 12.6317 115.2 13.6581 116.8 14.8897C118.4 16.1213 120 17.4556 123.5 17.4556C127 17.4556 128.5 16.0187 130.1 14.8897C131.6 13.7607 133 12.6317 135.7 12.6317C138.6 12.6317 140 13.6581 141.4 14.8897C143.4 16.0187 144.9 17.4556 148.2 17.4556C151.5 17.4556 153.3 16.0187 154.9 14.8897C156.5 13.7607 157.8 12.6317 160.6 12.6317C163.4 12.6317 164.8 13.6581 166.4 14.8897C167.9 16.0187 169.5 17.4556 173 17.4556C176.5 17.4556 178.1 16.0187 179.7 14.8897C181.226 13.4447 183.224 12.639 185.3 12.6317C188 12.6317 189.5 13.6581 191 14.8897C192.6 16.0187 194.3 17.4556 197.6 17.4556H198.3C201.8 17.4556 203.4 16.0187 205 14.8897C206.526 13.4447 208.524 12.639 210.6 12.6317C213.4 12.6317 214.9 13.6581 216.3 14.8897C217.9 16.0187 219.6 17.4556 223 17.4556C226.4 17.4556 228 16.0187 229.6 14.8897C231.2 13.7607 232.5 12.6317 235.4 12.6317C238.2 12.6317 239.4 13.6581 241.1 14.8897C242.7 16.0187 244.2 17.4556 247.7 17.4556C251.2 17.4556 252.8 16.0187 254.4 14.8897C255.926 13.4447 257.924 12.639 260 12.6317C262.116 12.5807 264.166 13.3927 265.7 14.8897C267.3 16.0187 269 17.4556 272.4 17.4556C275.8 17.4556 277.4 16.0187 279 14.8897C280.6 13.7607 281.9 12.6317 284.8 12.6317C286.916 12.5807 288.966 13.3927 290.5 14.8897C292.1 16.0187 293.7 17.4556 297.1 17.4556C300.5 17.4556 302.2 16.0187 303.8 14.8897C305.2 13.7607 306.7 12.6317 309.5 12.6317C312.3 12.6317 313.7 13.6581 315.1 14.8897C316.7 16.0187 318.4 17.4556 321.8 17.4556C325.2 17.4556 327 16.0187 328.4 14.8897C330 13.7607 331.3 12.6317 334.2 12.6317C336.316 12.5807 338.366 13.3927 339.9 14.8897C341.5 16.0187 343.1 17.4556 346.6 17.4556C349.9 17.4556 351.5 16.0187 353.1 14.8897C354.7 13.7607 356.1 12.6317 358.9 12.6317C361.6 12.6317 363.1 13.6581 364.7 14.8897C366.2 16.0187 367.7 17.4556 371 17.4556C374.5 17.4556 376.3 16.0187 377.7 14.8897C379.3 13.7607 380.5 12.6317 383.4 12.6317C384.481 12.5789 385.561 12.7517 386.576 13.1399C387.59 13.528 388.517 14.1233 389.3 14.8897C390.9 16.0187 392.5 17.4556 396 17.4556V15.8134C393.1 15.8134 391.7 14.7871 390.2 13.5554C388.6 12.5291 387.1 10.9895 383.6 10.9895C380.1 10.9895 378.5 12.4264 376.9 13.5554C375.5 14.6844 374 15.8134 371.2 15.8134C368.4 15.8134 367 14.7871 365.6 13.5554C364 12.5291 362.3 10.9895 358.9 10.9895C356.469 10.9931 354.123 11.9053 352.3 13.5554C350.7 14.6844 349.4 15.8134 346.5 15.8134C343.6 15.8134 342.3 14.7871 340.8 13.5554C339.2 12.5291 337.7 10.9895 334.2 10.9895C330.8 10.9895 329.2 12.4264 327.6 13.5554C326.1 14.6844 324.8 15.8134 321.9 15.8134C319.2 15.8134 317.8 14.7871 316.4 13.5554C314.8 12.5291 313 10.9895 309.7 10.9895C306.2 10.9895 304.5 12.4264 303 13.5554C301.4 14.6844 300.2 15.8134 297.3 15.8134C294.4 15.8134 293 14.7871 291.6 13.5554C290 12.5291 288.4 10.9895 284.9 10.9895C281.4 10.9895 279.9 12.4264 278.2 13.5554C276.5 14.6844 275.4 15.8134 272.5 15.8134C269.6 15.8134 268.4 14.7871 266.8 13.5554C265.2 12.5291 263.6 10.9895 260.1 10.9895C256.6 10.9895 255.1 12.4264 253.5 13.5554C252 14.6844 250.6 15.8134 247.9 15.8134C245 15.8134 243.6 14.7871 242.2 13.5554C240.2 12.5291 238.7 10.9895 235.4 10.9895C232.1 10.9895 230.3 12.4264 228.7 13.5554C227.1 14.6844 225.8 15.8134 223 15.8134C220.2 15.8134 218.8 14.7871 217.2 13.5554C215.6 12.3238 214.1 10.9895 210.6 10.9895C207.1 10.9895 205.5 12.4264 203.9 13.5554C202.374 15.0004 200.376 15.8061 198.3 15.8134C196.195 15.8022 194.167 14.9988 192.6 13.5554C191 12.5291 189.3 10.9895 185.9 10.9895H185.3C181.8 10.9895 180.2 12.4264 178.6 13.5554C177.074 15.0004 175.076 15.8061 173 15.8134C170.889 15.832 168.851 15.0246 167.3 13.5554C165.7 12.5291 164 10.9895 160.6 10.9895C157.2 10.9895 155.6 12.4264 154 13.5554C152.4 14.6844 151.1 15.8134 148.2 15.8134C145.4 15.8134 144.2 14.7871 142.5 13.5554C140.9 12.5291 139.3 10.9895 135.9 10.9895C132.5 10.9895 130.8 12.4264 129.2 13.5554C127.674 15.0004 125.676 15.8061 123.6 15.8134C121.495 15.8022 119.467 14.9988 117.9 13.5554C116.3 12.5291 114.6 10.9895 111.2 10.9895C107.9 10.9895 106.2 12.4264 104.6 13.5554C103 14.6844 101.7 15.8134 98.8 15.8134C96.6894 15.832 94.6511 15.0246 93.1 13.5554C91.5 12.5291 89.9 10.9895 86.5 10.9895C83.1 10.9895 81.4 12.4264 79.8 13.5554C78.4 14.6844 76.9 15.8134 74.1 15.8134C71.3 15.8134 69.9 14.7871 68.5 13.5554C66.9 12.5291 65.2 10.9895 61.8 10.9895C59.3693 10.9931 57.023 11.9053 55.2 13.5554C53.6 14.6844 52.3 15.8134 49.4 15.8134C47.2894 15.832 45.2512 15.0246 43.7 13.5554C42.1 12.5291 40.5 10.9895 37.1 10.9895C33.7 10.9895 32.1 12.4264 30.5 13.5554C28.9 14.6844 27.5 15.8134 24.7 15.8134C22 15.8134 20.5 14.7871 18.9 13.5554C17.4 12.5291 15.9 10.9895 12.6 10.9895C10.1298 10.9378 7.73343 11.8556 5.9 13.5554C4.3 14.6844 3.1 15.8134 0.200001 15.8134L0 17.4556Z" fill="#E5E5E5"/>
<path d="M7.24792e-05 6.46943C3.50007 6.46943 5.10007 5.03253 6.70007 3.90353C8.10007 2.87717 9.60007 1.64554 12.4001 1.64554C15.3001 1.64554 16.6001 2.77454 18.0001 3.90353C19.6001 5.03253 21.3001 6.57208 24.7001 6.57208C27.1439 6.54023 29.4917 5.59094 31.3001 3.90353C32.9001 2.87717 34.2001 1.64554 37.1001 1.64554C40.0001 1.64554 41.3001 2.77454 42.8001 3.90353C44.4001 5.03253 45.9001 6.57208 49.4001 6.57208C52.8001 6.57208 54.4001 5.03253 56.0001 3.90353C57.6001 2.77454 58.8001 1.64554 61.7001 1.64554C64.4001 1.64554 65.8001 2.77454 67.2001 3.90353C68.8001 5.03253 70.6001 6.57208 73.9001 6.57208C77.4001 6.57208 79.1001 5.03253 80.6001 3.90353C82.2001 2.87717 83.4001 1.64554 86.3001 1.64554C89.2001 1.64554 90.6001 2.77454 92.0001 3.90353C93.6001 5.03253 95.2001 6.57208 98.7001 6.57208C102.2 6.57208 103.7 5.03253 105.4 3.90353C107.1 2.77454 108.2 1.64554 111.1 1.64554C113.9 1.64554 115.2 2.77454 116.8 3.90353C118.4 5.03253 120 6.57208 123.5 6.57208C127 6.57208 128.5 5.03253 130.1 3.90353C131.6 2.87717 133 1.64554 135.7 1.64554C138.6 1.64554 140 2.77454 141.4 3.90353C143.4 5.03253 144.9 6.57208 148.2 6.57208C151.5 6.57208 153.3 5.03253 154.9 3.90353C156.5 2.87717 157.8 1.64554 160.6 1.64554C163.4 1.64554 164.8 2.77454 166.4 3.90353C167.9 5.03253 169.5 6.57208 173 6.57208C176.5 6.57208 178.1 5.03253 179.7 3.90353C181.1 2.87717 182.6 1.64554 185.3 1.64554C188 1.64554 189.5 2.77454 191 3.90353C192.6 5.03253 194.3 6.57208 197.6 6.57208H198.3C201.8 6.57208 203.4 5.03253 205 3.90353C206.4 2.87717 207.9 1.64554 210.6 1.64554C213.4 1.64554 214.9 2.77454 216.3 3.90353C217.9 5.03253 219.6 6.57208 223 6.57208C226.4 6.57208 228 5.03253 229.6 3.90353C231.2 2.87717 232.5 1.64554 235.4 1.64554C238.2 1.64554 239.4 2.77454 241.1 3.90353C242.7 5.03253 244.2 6.57208 247.7 6.57208C251.2 6.57208 252.8 5.03253 254.4 3.90353C255.8 2.87717 257.3 1.64554 260 1.64554C262.7 1.64554 264.3 2.77454 265.7 3.90353C267.3 5.03253 269 6.57208 272.4 6.57208C275.8 6.57208 277.4 5.03253 279 3.90353C280.6 2.87717 281.9 1.64554 284.8 1.64554C287.6 1.64554 289 2.77454 290.5 3.90353C292.1 5.03253 293.7 6.57208 297.1 6.57208C300.5 6.57208 302.2 5.03253 303.8 3.90353C305.2 2.87717 306.7 1.64554 309.5 1.64554C312.3 1.64554 313.7 2.77454 315.1 3.90353C316.7 5.03253 318.4 6.57208 321.8 6.57208C325.2 6.57208 327 5.03253 328.4 3.90353C330 2.87717 331.3 1.64554 334.2 1.64554C337 1.64554 338.4 2.77454 339.9 3.90353C341.5 5.03253 343.1 6.57208 346.6 6.57208C349.9 6.57208 351.5 5.03253 353.1 3.90353C354.7 2.87717 356.1 1.64554 358.9 1.64554C361.6 1.64554 363.1 2.77454 364.7 3.90353C366.2 5.03253 367.7 6.57208 371 6.57208C374.5 6.57208 376.3 5.03253 377.7 3.90353C379.3 2.87717 380.5 1.64554 383.4 1.64554C386.3 1.64554 388 2.77454 389.3 3.90353C390.9 5.03253 392.5 6.57208 396 6.57208V4.92989C393.1 4.92989 391.7 3.8009 390.2 2.6719C388.6 1.44027 387.1 0.00336158 383.6 0.00336158C380.1 0.00336158 378.5 1.44027 376.9 2.6719C375.5 3.69826 374 4.92989 371.2 4.92989C368.4 4.92989 367 3.8009 365.6 2.6719C364 1.44027 362.3 0.00336158 358.9 0.00336158C356.456 0.0352073 354.108 0.984499 352.3 2.6719C350.7 3.69826 349.4 4.92989 346.5 4.92989C343.6 4.92989 342.3 3.8009 340.8 2.6719C339.2 1.44027 337.7 0.00336158 334.2 0.00336158C330.8 0.00336158 329.2 1.44027 327.6 2.6719C326.1 3.69826 324.8 4.92989 321.9 4.92989C319.2 4.92989 317.8 3.8009 316.4 2.6719C314.8 1.44027 313 0.00336158 309.7 0.00336158C306.2 0.00336158 304.5 1.44027 303 2.6719C301.4 3.69826 300.2 4.92989 297.3 4.92989C294.4 4.92989 293 3.8009 291.6 2.6719C290 1.44027 288.4 0.00336158 284.9 0.00336158C281.4 0.00336158 279.9 1.44027 278.2 2.6719C276.5 3.90354 275.4 4.92989 272.5 4.92989C269.6 4.92989 268.4 3.8009 266.8 2.6719C265.2 1.44027 263.6 0.00336158 260.1 0.00336158C256.6 0.00336158 255.1 1.44027 253.5 2.6719C252 3.69826 250.6 4.92989 247.9 4.92989C245.786 4.96976 243.74 4.15938 242.2 2.6719C240.2 1.44027 238.7 0.00336158 235.4 0.00336158C232.1 0.00336158 230.3 1.44027 228.7 2.6719C227.1 3.69826 225.8 4.92989 223 4.92989C220.2 4.92989 218.8 3.8009 217.2 2.6719C215.6 1.54291 214.1 0.00336158 210.6 0.00336158C207.1 0.00336158 205.5 1.44027 203.9 2.6719C202.5 3.69826 201 4.92989 198.3 4.92989C196.195 4.91867 194.167 4.11526 192.6 2.6719C191 1.44027 189.3 0.00336158 185.9 0.00336158H185.3C181.8 0.00336158 180.2 1.44027 178.6 2.6719C177.2 3.69826 175.7 4.92989 173 4.92989C170.889 4.94847 168.851 4.14105 167.3 2.6719C165.7 1.44027 164 0.00336158 160.6 0.00336158C157.2 0.00336158 155.6 1.44027 154 2.6719C152.4 3.69826 151.1 4.92989 148.2 4.92989C145.4 4.92989 144.2 3.8009 142.5 2.6719C140.9 1.44027 139.3 0.00336158 135.9 0.00336158C132.5 0.00336158 130.8 1.44027 129.2 2.6719C127.8 3.69826 126.3 4.92989 123.6 4.92989C121.495 4.91867 119.467 4.11526 117.9 2.6719C116.3 1.44027 114.6 0.00336158 111.2 0.00336158C107.9 0.00336158 106.2 1.44027 104.6 2.6719C103 3.69826 101.7 4.92989 98.8001 4.92989C96.6895 4.94847 94.6512 4.14105 93.1001 2.6719C91.5001 1.44027 89.9001 0.00336158 86.5001 0.00336158C83.1001 0.00336158 81.4001 1.44027 79.8001 2.6719C78.4001 3.69826 76.9001 4.92989 74.1001 4.92989C71.3001 4.92989 69.9001 3.8009 68.5001 2.6719C66.9001 1.44027 65.2001 0.00336158 61.8001 0.00336158C59.3563 0.0352073 57.0084 0.984499 55.2001 2.6719C53.6001 3.69826 52.3001 4.92989 49.4001 4.92989C47.2895 4.94847 45.2512 4.14105 43.7001 2.6719C42.1001 1.44027 40.5001 0.00336158 37.1001 0.00336158C33.7001 0.00336158 32.1001 1.44027 30.5001 2.6719C28.9001 3.69826 27.5001 4.92989 24.7001 4.92989C22.0001 4.92989 20.5001 3.8009 18.9001 2.6719C17.4001 1.44027 15.9001 0.00336158 12.6001 0.00336158C11.3667 -0.0302441 10.1391 0.188401 8.98878 0.646544C7.8385 1.10469 6.78854 1.79317 5.90007 2.6719C4.30007 3.69826 3.10007 4.92989 0.200073 4.92989L7.24792e-05 6.57208V6.46943Z" fill="#E5E5E5"/>
<path d="M0 23C3.5 23 5.1 21.4604 6.7 20.3314C8.1 19.2025 9.6 17.9708 12.4 17.9708C15.3 17.9708 16.6 19.2025 18 20.3314C19.6 21.3578 21.3 22.8973 24.7 22.8973C27.1307 22.8938 29.477 21.9816 31.3 20.3314C32.9 19.2025 34.2 17.9708 37.1 17.9708C40 17.9708 41.3 19.2025 42.8 20.3314C44.4 21.3578 45.9 22.8973 49.4 22.8973C52.8 22.8973 54.4 21.4604 56 20.3314C57.6 19.2025 58.8 17.9708 61.7 17.9708C64.4 17.9708 65.8 19.2025 67.2 20.3314C68.8 21.3578 70.6 22.8973 73.9 22.8973C77.4 22.8973 79.1 21.4604 80.6 20.3314C82.2 19.2025 83.4 17.9708 86.3 17.9708C89.2 17.9708 90.6 19.2025 92 20.3314C93.6 21.3578 95.2 22.8973 98.7 22.8973C102.2 22.8973 103.7 21.4604 105.4 20.3314C107.1 19.2025 108.2 17.9708 111.1 17.9708C113.9 17.9708 115.2 19.2025 116.8 20.3314C118.4 21.4604 120 22.8973 123.5 22.8973C127 22.8973 128.5 21.4604 130.1 20.3314C131.6 19.2025 133 17.9708 135.7 17.9708C138.6 17.9708 140 19.2025 141.4 20.3314C143.4 21.3578 144.9 22.8973 148.2 22.8973C151.5 22.8973 153.3 21.4604 154.9 20.3314C156.5 19.2025 157.8 17.9708 160.6 17.9708C163.4 17.9708 164.8 19.2025 166.4 20.3314C167.9 21.3578 169.5 22.8973 173 22.8973C176.5 22.8973 178.1 21.4604 179.7 20.3314C181.1 19.2025 182.6 17.9708 185.3 17.9708C188 17.9708 189.5 19.2025 191 20.3314C192.6 21.3578 194.3 22.8973 197.6 22.8973H198.3C201.8 22.8973 203.4 21.4604 205 20.3314C206.4 19.2025 207.9 17.9708 210.6 17.9708C213.4 17.9708 214.9 19.2025 216.3 20.3314C217.9 21.3578 219.6 22.8973 223 22.8973C226.4 22.8973 228 21.4604 229.6 20.3314C231.2 19.2025 232.5 17.9708 235.4 17.9708C238.2 17.9708 239.4 19.2025 241.1 20.3314C242.7 21.3578 244.2 22.8973 247.7 22.8973C251.2 22.8973 252.8 21.4604 254.4 20.3314C255.8 19.2025 257.3 17.9708 260 17.9708C262.7 17.9708 264.3 19.2025 265.7 20.3314C267.3 21.3578 269 22.8973 272.4 22.8973C275.8 22.8973 277.4 21.4604 279 20.3314C280.6 19.2025 281.9 17.9708 284.8 17.9708C287.6 17.9708 289 19.2025 290.5 20.3314C292.1 21.3578 293.7 22.8973 297.1 22.8973C300.5 22.8973 302.2 21.4604 303.8 20.3314C305.2 19.2025 306.7 17.9708 309.5 17.9708C312.3 17.9708 313.7 19.2025 315.1 20.3314C316.7 21.3578 318.4 22.8973 321.8 22.8973C325.2 22.8973 327 21.4604 328.4 20.3314C330 19.2025 331.3 17.9708 334.2 17.9708C337 17.9708 338.4 19.2025 339.9 20.3314C341.5 21.3578 343.1 22.8973 346.6 22.8973C349.9 22.8973 351.5 21.4604 353.1 20.3314C354.7 19.2025 356.1 17.9708 358.9 17.9708C361.6 17.9708 363.1 19.2025 364.7 20.3314C366.2 21.3578 367.7 22.8973 371 22.8973C374.5 22.8973 376.3 21.4604 377.7 20.3314C379.3 19.2025 380.5 17.9708 383.4 17.9708C386.3 17.9708 388 19.2025 389.3 20.3314C390.9 21.3578 392.5 22.8973 396 22.8973V21.2552C393.1 21.2552 391.7 20.1262 390.2 18.9972C388.6 17.8682 387.1 16.4313 383.6 16.4313C380.1 16.4313 378.5 17.8682 376.9 18.9972C375.5 20.1262 374 21.2552 371.2 21.2552C368.4 21.2552 367 20.1262 365.6 18.9972C364 17.8682 362.3 16.4313 358.9 16.4313C356.469 16.4349 354.123 17.347 352.3 18.9972C350.7 20.1262 349.4 21.2552 346.5 21.2552C343.6 21.2552 342.3 20.1262 340.8 18.9972C339.2 17.8682 337.7 16.4313 334.2 16.4313C330.8 16.4313 329.2 17.8682 327.6 18.9972C326.1 20.1262 324.8 21.2552 321.9 21.2552C319.2 21.2552 317.8 20.1262 316.4 18.9972C314.8 17.8682 313 16.4313 309.7 16.4313C306.2 16.4313 304.5 17.8682 303 18.9972C301.4 20.1262 300.2 21.2552 297.3 21.2552C294.4 21.2552 293 20.1262 291.6 18.9972C290 17.8682 288.4 16.4313 284.9 16.4313C281.4 16.4313 279.9 17.8682 278.2 18.9972C276.5 20.1262 275.4 21.2552 272.5 21.2552C269.6 21.2552 268.4 20.1262 266.8 18.9972C265.2 17.8682 263.6 16.4313 260.1 16.4313C256.6 16.4313 255.1 17.8682 253.5 18.9972C252 20.1262 250.6 21.2552 247.9 21.2552C245.786 21.295 243.74 20.4847 242.2 18.9972C240.2 17.8682 238.7 16.4313 235.4 16.4313C232.1 16.4313 230.3 17.8682 228.7 18.9972C227.1 20.1262 225.8 21.2552 223 21.2552C220.2 21.2552 218.8 20.1262 217.2 18.9972C215.6 17.8682 214.1 16.4313 210.6 16.4313C207.1 16.4313 205.5 17.8682 203.9 18.9972C202.374 20.4422 200.376 21.2479 198.3 21.2552C196.195 21.244 194.167 20.4405 192.6 18.9972C191 17.8682 189.3 16.4313 185.9 16.4313H185.3C181.8 16.4313 180.2 17.8682 178.6 18.9972C177.074 20.4422 175.076 21.2479 173 21.2552C170.889 21.2738 168.851 20.4663 167.3 18.9972C165.7 17.8682 164 16.4313 160.6 16.4313C157.2 16.4313 155.6 17.8682 154 18.9972C152.4 20.1262 151.1 21.2552 148.2 21.2552C145.4 21.2552 144.2 20.1262 142.5 18.9972C140.9 17.8682 139.3 16.4313 135.9 16.4313C132.5 16.4313 130.8 17.8682 129.2 18.9972C127.674 20.4422 125.676 21.2479 123.6 21.2552C121.495 21.244 119.467 20.4405 117.9 18.9972C116.3 17.8682 114.6 16.4313 111.2 16.4313C107.9 16.4313 106.2 17.8682 104.6 18.9972C103 20.1262 101.7 21.2552 98.8 21.2552C96.6894 21.2738 94.6511 20.4663 93.1 18.9972C91.5 17.8682 89.9 16.4313 86.5 16.4313C83.1 16.4313 81.4 17.8682 79.8 18.9972C78.4 20.1262 76.9 21.2552 74.1 21.2552C71.3 21.2552 69.9 20.1262 68.5 18.9972C66.9 17.8682 65.2 16.4313 61.8 16.4313C59.3693 16.4349 57.023 17.347 55.2 18.9972C53.6 20.1262 52.3 21.2552 49.4 21.2552C47.2894 21.2738 45.2512 20.4663 43.7 18.9972C42.1 17.8682 40.5 16.4313 37.1 16.4313C33.7 16.4313 32.1 17.8682 30.5 18.9972C28.9 20.1262 27.5 21.2552 24.7 21.2552C22 21.2552 20.5 20.1262 18.9 18.9972C17.4 17.8682 15.9 16.4313 12.6 16.4313C10.1298 16.3796 7.73343 17.2973 5.9 18.9972C4.3 20.1262 3.1 21.2552 0.200001 21.2552L0 22.8973V23Z" fill="#E5E5E5"/>
</svg>
