<svg width="64" height="64" viewBox="0 0 64 64" fill="none" xmlns="http://www.w3.org/2000/svg">
<path d="M31.9289 6C17.6086 6 6 17.6086 6 31.9289C6 46.2492 17.6086 57.8578 31.9289 57.8578C46.2492 57.8578 57.8578 46.2492 57.8578 31.9289C57.8578 17.6086 46.2492 6 31.9289 6ZM31.5379 11.1492C33.3965 11.1492 34.8996 12.6523 34.8996 14.4957C34.8996 16.3543 33.3965 17.8574 31.5379 17.8574C29.6945 17.8574 28.1914 16.3543 28.1914 14.4957C28.1863 12.6523 29.6894 11.1492 31.5379 11.1492ZM46.0664 21.9809L36.093 23.2402L36.098 33.2238L40.9324 49.357C41.1863 50.3777 40.577 51.3934 39.5664 51.6473C38.5609 51.9012 37.5301 51.3426 37.2762 50.327L32.325 35.641H30.8016L26.2465 50.6316C25.8656 51.6117 24.7738 52.0586 23.7988 51.6777C22.8289 51.302 22.2398 50.2 22.6207 49.2199L26.8051 33.3863V23.2402L17.6137 21.991C16.6691 21.9148 16.0293 21.0871 16.1055 20.1426C16.1766 19.193 17.0348 18.4871 17.9742 18.5633L29.141 19.523H34.0363L45.9242 18.543C46.8687 18.5074 47.6711 19.2387 47.7016 20.1934C47.7422 21.1328 47.0109 21.9402 46.0664 21.9809Z" fill="#00AA72"/>
</svg>