<svg width="18" height="18" viewBox="0 0 18 18" fill="none" xmlns="http://www.w3.org/2000/svg">
<g clip-path="url(#clip0)">
<path d="M0.311613 8.39709L4.71336 10.5908C4.88361 10.6748 5.08461 10.6688 5.24736 10.5736L9.16536 8.29584L6.79386 10.3973C6.67311 10.5046 6.60411 10.6576 6.60411 10.8188V15.9376C6.60411 16.4776 7.29336 16.7048 7.61661 16.2758L9.51936 13.7461L14.2249 16.4258C14.5549 16.6156 14.9779 16.4251 15.0544 16.0478L17.9891 1.42284C18.0769 0.983344 17.6396 0.624844 17.2331 0.788344L0.358113 7.36959C-0.0948873 7.54659 -0.124137 8.18034 0.311613 8.39709ZM16.6841 2.21034L14.1049 15.0631L9.64611 12.5236C9.40311 12.3848 9.09036 12.4463 8.91786 12.6743L7.72911 14.2546V11.0716L14.1424 5.38959C14.6501 4.94034 14.0666 4.14159 13.4869 4.48209L4.94436 9.44859L1.95036 7.95684L16.6841 2.21034Z" fill="black"/>
</g>
<defs>
<clipPath id="clip0">
<rect width="18" height="18" fill="white"/>
</clipPath>
</defs>
</svg>