<svg width="64" height="64" viewBox="0 0 64 64" fill="none" xmlns="http://www.w3.org/2000/svg">
<path d="M52.9292 35.266C50.9013 35.2775 49.1453 35.7705 47.6725 36.5043C47.1287 35.4151 46.5849 34.4634 46.4942 33.7525C46.3923 32.927 46.2677 32.4225 46.3923 31.4364C46.5169 30.4504 47.0834 29.0516 47.0834 28.9369C47.072 28.8337 46.9587 28.3292 45.7918 28.3177C44.6249 28.3063 43.6166 28.5471 43.5034 28.8566C43.3901 29.1662 43.1635 29.8771 43.0162 30.6109C42.8123 31.6887 40.6824 35.5068 39.4702 37.5133C39.0737 36.7337 38.7338 36.0457 38.6658 35.4954C38.5639 34.6698 38.4392 34.1653 38.5639 33.1793C38.6885 32.1932 39.2549 30.7944 39.2549 30.6797C39.2436 30.5765 39.1303 30.072 37.9634 30.0605C36.7965 30.0491 35.7882 30.2899 35.6749 30.5994C35.5616 30.909 35.437 31.6428 35.1878 32.3537C34.9499 33.0646 32.1176 39.4396 31.3812 41.1021C31.0073 41.9506 30.6788 42.6271 30.4409 43.0857C30.203 43.5444 30.4296 43.1201 30.4069 43.166C30.203 43.5558 30.0897 43.7737 30.0897 43.7737V43.7852C29.9311 44.0718 29.7611 44.347 29.6818 44.347C29.6252 44.347 29.5119 43.5788 29.7045 42.5239C30.1237 40.311 31.1433 36.8598 31.132 36.7337C31.132 36.6763 31.3246 36.0686 30.4749 35.7591C29.6479 35.4495 29.3533 35.9655 29.2853 35.9655C29.2173 35.9655 29.1607 36.1489 29.1607 36.1489C29.1607 36.1489 30.0784 32.262 27.4047 32.262C25.728 32.262 23.4168 34.108 22.2726 35.7935C21.5475 36.1948 20.0068 37.0432 18.3754 37.949C17.7523 38.293 17.1065 38.6599 16.4948 38.9924L16.3701 38.8548C13.13 35.3578 7.1369 32.8811 7.38614 28.1802C7.47677 26.4717 8.06589 21.9657 18.8965 16.5079C27.7672 12.0363 34.8706 13.2631 36.1054 15.992C37.8615 19.8904 32.3102 27.1368 23.0883 28.1802C19.5763 28.5815 17.7296 27.2056 17.2651 26.6896C16.778 26.1507 16.71 26.1278 16.5287 26.231C16.2342 26.3915 16.4154 26.873 16.5287 27.1597C16.8006 27.882 17.9335 29.1662 19.8595 29.8083C21.5475 30.3701 25.6713 30.6797 30.6561 28.7305C36.2414 26.5405 40.6031 20.4636 39.3229 15.3843C38.0201 10.2132 29.5459 8.51625 21.5362 11.3942C16.7666 13.1141 11.6006 15.7971 7.88462 19.3171C3.46627 23.4906 2.76386 27.1368 3.05842 28.6503C4.08937 34.0507 11.442 37.5707 14.3875 40.1734C14.2403 40.2537 14.1043 40.3339 13.9797 40.4027C12.5069 41.1365 6.89899 44.1062 5.49418 47.2478C3.9081 50.8022 5.74342 53.3591 6.96696 53.7031C10.7509 54.7694 14.6254 52.8546 16.7213 49.7015C18.8059 46.5484 18.5566 42.4551 17.5937 40.5862L17.5597 40.5174L18.7153 39.8294C19.463 39.3823 20.1994 38.9695 20.8451 38.6141C20.4826 39.6116 20.222 40.7926 20.0861 42.5124C19.9275 44.5304 20.7432 47.1446 21.8194 48.1766C22.2953 48.6237 22.8617 48.6352 23.2129 48.6352C24.4591 48.6352 25.0256 47.5918 25.6487 46.342C26.4191 44.8171 27.0988 43.0513 27.0988 43.0513C27.0988 43.0513 26.2491 47.8326 28.5716 47.8326C29.4213 47.8326 30.271 46.7204 30.6561 46.1471V46.1586C30.6561 46.1586 30.6788 46.1242 30.7241 46.0439C30.8148 45.9063 30.8601 45.8261 30.8601 45.8261V45.8031C31.1999 45.2069 31.959 43.8425 33.0919 41.5837C34.5534 38.6714 35.9582 35.0253 35.9582 35.0253C35.9582 35.0253 36.0941 35.9196 36.5133 37.3872C36.7625 38.2586 37.3063 39.2103 37.7255 40.139C37.3856 40.6206 37.1817 40.8958 37.1817 40.8958L37.193 40.9072C36.9211 41.2741 36.6153 41.664 36.298 42.0538C35.1425 43.4526 33.7603 45.0464 33.5791 45.505C33.3638 46.0439 33.4091 46.4452 33.8283 46.7663C34.1342 46.9956 34.678 47.0414 35.2558 46.9956C36.298 46.9268 37.0231 46.6631 37.3856 46.5026C37.9521 46.2962 38.5979 45.9866 39.221 45.528C40.3539 44.6795 41.0449 43.4756 40.977 41.8704C40.943 40.9875 40.6598 40.1161 40.3085 39.2905C40.4105 39.1415 40.5125 38.9924 40.6144 38.8319C42.4044 36.1833 43.7866 33.271 43.7866 33.271C43.7866 33.271 43.9225 34.1653 44.3417 35.6329C44.557 36.3782 44.9875 37.1923 45.3727 37.9949C43.696 39.3823 42.6423 40.9875 42.2798 42.0423C41.6114 43.9915 42.1325 44.8744 43.1182 45.0808C43.56 45.1725 44.1944 44.9661 44.6703 44.7597C45.2594 44.5648 45.9731 44.2323 46.6302 43.7393C47.7631 42.8908 48.8507 41.7098 48.7941 40.1161C48.7601 39.3823 48.5675 38.6599 48.3069 37.972C49.7344 37.3757 51.581 37.0318 53.9261 37.3184C58.9676 37.9146 59.9646 41.1021 59.772 42.4322C59.5794 43.7622 58.5258 44.496 58.1746 44.7253C57.8234 44.9432 57.7101 45.0235 57.7441 45.184C57.7894 45.4248 57.948 45.4133 58.2539 45.3674C58.673 45.2986 60.9049 44.2782 60.9955 41.8245C61.1315 38.6714 58.1746 35.2316 52.9292 35.266ZM14.0477 48.532C12.3823 50.378 10.0372 51.0774 9.04019 50.4812C7.96393 49.8506 8.3831 47.1332 10.4337 45.1725C11.6799 43.9801 13.2999 42.8794 14.3649 42.2029C14.6028 42.0538 14.9653 41.836 15.3958 41.5722C15.4638 41.5264 15.5091 41.5035 15.5091 41.5035C15.5884 41.4576 15.6791 41.4003 15.7697 41.3429C16.5287 44.1406 15.8037 46.5943 14.0477 48.532ZM26.2265 40.1505C25.6487 41.5837 24.4251 45.2642 23.6887 45.0579C23.0543 44.8859 22.6691 42.0997 23.5641 39.3479C24.0173 37.9605 24.9803 36.3094 25.5467 35.6673C26.4644 34.6354 27.4613 34.2914 27.7106 34.7157C28.0051 35.266 26.589 39.2561 26.2265 40.1505ZM36.2754 45.012C36.0261 45.1381 35.7996 45.2298 35.6976 45.161C35.6183 45.1152 35.7996 44.9432 35.7996 44.9432C35.7996 44.9432 37.0571 43.5788 37.5556 42.9481C37.8388 42.5812 38.1787 42.157 38.5412 41.6754V41.813C38.5412 43.4641 36.9778 44.5648 36.2754 45.012ZM44.0245 43.2233C43.8432 43.0857 43.8659 42.6615 44.4777 41.3315C44.7156 40.804 45.2594 39.9212 46.1997 39.0842C46.313 39.4281 46.381 39.7606 46.3696 40.0702C46.3583 42.1341 44.9082 42.9023 44.0245 43.2233Z" fill="#CF649A"/>
</svg>